<?xml version="1.0" encoding="UTF-8" standalone="no"?>
<svg
   xmlns:dc="http://purl.org/dc/elements/1.1/"
   xmlns:cc="http://creativecommons.org/ns#"
   xmlns:rdf="http://www.w3.org/1999/02/22-rdf-syntax-ns#"
   xmlns:svg="http://www.w3.org/2000/svg"
   xmlns="http://www.w3.org/2000/svg"
   version="1.1"
   id="svg13936"
   viewBox="0 0 1045.4706 772.15114"
   height="217.91821mm"
   width="295.05502mm">
  <defs
     id="defs13938" />
  <metadata
     id="metadata13941">
    <rdf:RDF>
      <cc:Work
         rdf:about="">
        <dc:format>image/svg+xml</dc:format>
        <dc:type
           rdf:resource="http://purl.org/dc/dcmitype/StillImage" />
        <dc:title></dc:title>
      </cc:Work>
    </rdf:RDF>
  </metadata>
  <g
     transform="translate(629.55461,327.78199)"
     id="layer1">
    <path
       id="path14499"
       d="m -430.00703,442.49163 c -8.98657,-4.61281 -103.92876,-32.90896 -111.73489,-33.30094 -4.21044,-0.21138 -7.5448,-2.9738 -8.17448,-6.77233 -0.6208,-3.74575 -8.53893,-10.41957 -19.02841,-16.0382 -20.96224,-11.22837 -39.84309,-29.27823 -37.17859,-35.54243 1.02257,-2.40381 -2.02878,-12.03214 -6.78072,-21.39633 -16.23804,-31.99787 -17.50593,-57.85317 -16.31981,-332.7893722 0.59306,-137.5507078 3.7148,-195.5282378 12.845,-238.5789278 2.9173,-13.7565 5.30448,-25.58445 5.30448,-26.28432 0,-0.69988 12.33088,-8.63933 27.40164,-17.64324 16.66967,-9.95907 39.99491,-20.16565 59.55486,-26.06011 17.68442,-5.32914 35.08866,-11.09156 38.67653,-12.8054 6.38784,-3.05143 400.083917,-4.08189 724.14097,-1.89537 146.76275,0.99027 147.63101,1.03543 160.76615,8.35914 9.78477,5.45559 13.80677,10.24995 15.52302,18.50359 1.2743,6.12704 1.2295,103.83249 -0.0996,217.123221 -2.58663,220.580769 -2.77223,250.714199 -2.04833,332.684899 0.256,29.10932 0.37866,56.17378 0.27022,60.14323 -0.16,5.84108 -2.23144,7.21719 -10.86387,7.21719 -12.37959,0 -12.12644,-0.75781 -12.30635,36.85407 l -0.13866,28.83494 -53.33272,5.40144 c -29.333,2.97079 -74.13248,6.95342 -99.55441,8.85029 -25.42193,1.89687 -67.83424,5.5619 -94.24922,8.1445 -26.41498,2.5826 -63.214559,5.36179 -81.776834,6.17592 -18.562274,0.81417 -56.4036153,3.72507 -84.09254,6.46869 -27.688569,2.74362 -73.288042,5.80579 -101.332166,6.80481 -28.04376,0.99902 -70.97909,3.91602 -95.41116,6.48219 -24.43208,2.56618 -52.137,4.6658 -61.56622,4.6658 -9.42923,0 -20.14199,1.44735 -23.80595,3.2163 -4.47746,2.16195 -7.39547,2.14482 -8.90052,-0.0523 -1.23163,-1.79776 -3.41401,-2.61356 -4.85008,-1.8129 -1.43607,0.80066 -22.52525,2.34338 -46.86488,3.42823 -24.33963,1.08486 -47.45403,2.53817 -51.36509,3.22961 -3.91107,0.69144 -9.62976,-0.0356 -12.70812,-1.61591 z m 53.59653,-8.05704 c 20.5331,-1.28707 47.73278,-2.69667 60.44375,-3.13245 12.71096,-0.43576 39.91065,-2.37536 60.44375,-4.31017 58.03275,-5.46842 83.11121,-7.13668 127.64225,-8.49101 22.68454,-0.68993 46.044629,-1.99772 51.911228,-2.90622 17.737039,-2.74679 79.5660141,-8.00524 117.331978,-9.9789 19.55533,-1.02195 41.955071,-2.50276 49.777203,-3.29066 37.090421,-3.736 84.735731,-7.80432 113.776461,-9.71507 17.5998,-1.15803 34.7836,-2.58697 38.18623,-3.17544 11.67133,-2.01857 104.93461,-9.80302 127.19675,-10.61684 l 12.49586,-0.45676 -0.4128,-26.46302 c -0.55395,-35.4968 -0.0996,-34.16309 -11.24573,-32.95715 -5.37772,0.58177 -30.57743,2.69782 -55.99936,4.70227 -25.42193,2.00449 -53.4216,4.27736 -62.2215,5.05085 -22.74463,1.99919 -55.7078,4.68062 -76.44356,6.21839 -9.77767,0.72512 -30.57743,2.76345 -46.22169,4.5296 -15.64427,1.76619 -41.24397,4.03233 -56.888234,5.03587 -15.644263,1.00354 -39.643986,2.79129 -53.332717,3.97276 -13.6887308,1.1815 -29.688546,2.24727 -35.555145,2.36839 -5.866599,0.12125 -11.466534,1.03388 -12.444301,2.02832 -0.977766,0.99446 -9.377669,1.22275 -18.666451,0.50735 -11.414624,-0.87912 -16.888694,-2.75552 -16.888694,-5.78918 0,-2.46866 1.199987,-4.57146 2.666636,-4.67289 1.46665,-0.10136 23.301064,-0.7912 48.521395,-1.5328 37.188549,-1.09352 47.149678,-2.40567 52.706947,-6.94274 3.76849,-3.07693 6.54428,-4.19146 6.168107,-2.47678 -1.633403,7.44368 0.614393,8.55063 6.915831,3.40581 4.423771,-3.61181 7.566491,-4.33747 9.098562,-2.10094 1.287452,1.87913 3.940576,3.41658 5.896109,3.41658 1.955533,0 2.354107,-1.8043 0.885679,-4.00955 -2.130109,-3.19824 -1.56656,-3.20388 2.783612,-0.0289 2.999788,2.18995 6.298239,3.22025 7.330049,2.28952 1.031455,-0.9307 15.28409,-2.47408 31.672525,-3.4297 16.38808,-0.95566 32.1966,-2.52839 35.1299,-3.49505 2.9333,-0.96665 19.66982,-2.34879 37.19211,-3.07141 23.35368,-0.96312 33.62805,-2.75812 38.48489,-6.72356 3.6444,-2.97531 6.31815,-4.00673 5.94197,-2.29205 -1.6334,7.44368 0.6144,8.55063 6.91583,3.4058 4.42377,-3.6118 7.56649,-4.33746 9.09856,-2.10094 1.28746,1.87914 3.94058,3.41659 5.89611,3.41659 1.95554,0 2.35411,-1.8043 0.88568,-4.00955 -2.13011,-3.19824 -1.56656,-3.20389 2.78362,-0.0289 2.99978,2.18995 6.19619,3.31237 7.10285,2.49426 0.90701,-0.81811 11.95968,-2.28336 24.56149,-3.25614 48.82326,-3.76878 58.79932,-4.44357 68.45539,-4.63038 7.01076,-0.13569 9.19171,-1.3883 7.3176,-4.20281 -2.01989,-3.0327 -1.42114,-3.15889 2.45651,-0.51794 4.83728,3.29441 27.40733,3.52468 36.51229,0.37257 3.13952,-1.08701 3.99426,-52.06464 3.45845,-206.33902 -0.39147,-112.692404 -0.85582,-207.06047 -1.03181,-209.70677 -0.17778,-2.6463 0.77581,-8.99544 2.11588,-14.10919 1.58932,-6.06561 1.16159,-8.58704 -1.23056,-7.25327 -2.01669,1.12447 -4.53222,-0.94019 -5.58963,-4.58811 -1.37171,-4.733 -0.5255,-6.14892 2.9557,-4.94384 3.67712,1.27305 4.74022,-1.42814 4.31818,-10.97336 -0.30933,-6.96209 -2.28904,-12.66004 -4.4028,-12.66004 -2.11375,0 -5.55158,-5.77375 -7.63938,-12.83056 -2.08779,-7.0568 -2.59623,-12.83055 -1.13029,-12.83055 1.46629,0 3.71658,5.05203 5.00047,11.22673 5.05417,24.30438 7.74676,8.66464 7.9992,-46.46024 0.14577,-31.72782 -0.97492,-56.99628 -2.48886,-56.1521 -1.51394,0.84419 -3.89222,-0.98285 -5.28492,-4.06007 -2.31855,-5.12404 -2.77792,-5.05501 -5.45594,0.82033 -4.80954,10.55281 -3.81826,14.43437 3.68743,14.43437 7.08827,0 9.24789,3.41835 4.73274,7.49151 -1.30771,1.17996 -5.24829,-0.19791 -8.75616,-3.06208 -3.55836,-2.90503 -8.96985,-4.31026 -12.23986,-3.17826 -4.56421,1.58012 -5.2611,0.77882 -3.14841,-3.62052 3.57792,-7.45026 4.64421,-20.48944 2.16709,-26.4994 -1.42043,-3.44552 -2.55748,-2.62074 -4.006,2.90529 -1.8894,7.20785 -2.4142,7.36355 -7.95902,2.36101 -5.54518,-5.00253 -6.17771,-4.98258 -9.58851,0.30248 -3.37632,5.23144 -3.66396,5.17434 -3.81436,-0.75719 -0.13511,-5.32561 -0.74808,-5.59804 -3.6092,-1.60382 -3.10076,4.32845 -5.08545,2.32704 -3.97649,-4.00955 0.23111,-1.32315 -1.979,-2.40573 -4.9123,-2.40573 -2.9333,0 -5.33327,-2.16516 -5.33327,-4.81146 0,-2.6463 -2.39997,-4.81146 -5.33327,-4.81146 -5.98429,0 -6.22464,0.58748 -3.17507,7.75675 1.18683,2.79061 4.78678,5.12183 7.9999,5.18053 4.68546,0.0856 4.25809,1.29845 -2.15819,6.12752 -4.39995,3.31147 -7.99991,8.31545 -7.99991,11.12002 0,2.80456 -1.4183,5.09921 -3.15197,5.09921 -4.15781,0 -7.18533,-19.05071 -3.36636,-21.18017 4.76546,-2.65708 3.40796,-7.68858 -2.07428,-7.68858 -2.7701,0 -5.57007,-1.34246 -6.22215,-2.98326 -0.65173,-1.64081 -17.64602,-3.75487 -37.7649,-4.69791 -20.11888,-0.94305 -38.02054,-2.51781 -39.78088,-3.49947 -1.76069,-0.98167 -4.85114,0.77153 -6.86712,3.896 -3.39907,5.26694 -3.67782,5.21344 -3.82857,-0.73446 -0.13511,-5.32561 -0.74808,-5.59803 -3.60921,-1.60382 -3.06378,4.27685 -3.4588,4.27685 -3.55551,0 -0.096,-4.27684 -0.49173,-4.27684 -3.55552,0 -2.18344,3.04803 -3.46662,3.37774 -3.50111,0.89959 -0.0676,-4.91263 -24.66389,-4.64306 -31.84781,0.34905 -3.44423,2.39348 -4.37506,2.42879 -2.83623,0.10746 1.58469,-2.3911 -10.19295,-3.40308 -38.24312,-3.28581 -36.984105,0.15461 -40.862104,0.73795 -44.292465,6.66287 -3.553381,6.13705 -3.647958,6.09734 -1.723713,-0.72374 1.465938,-5.19605 0.475372,-7.21718 -3.53667,-7.21718 -3.065209,0 -5.699135,1.80429 -5.853799,4.00955 -0.223998,3.20763 -0.639282,3.20763 -2.073932,0 -1.977933,-4.42225 -22.533784,-5.62344 -22.533784,-1.31677 0,1.481 -4.399949,4.40742 -9.777665,6.50317 l -9.777665,3.81045 8.888786,-6.4319 8.888786,-6.43186 -16.888693,-0.0712 c -12.676832,-0.0536 -16.888694,1.12858 -16.888694,4.74015 0,5.86052 4.11373,6.18077 10.300681,0.80191 3.729735,-3.24286 4.366883,-2.78282 3.331161,2.40573 -0.995188,4.9858 -4.241017,6.49111 -14.567298,6.75552 -12.8876735,0.33003 -17.87108261,-3.10064 -8.8422091,-6.08727 3.5181811,-1.1638 3.5331151,-2.34231 0.07111,-5.65545 -3.5946252,-3.44058 -5.96722,-3.41546 -13.3331794,0.14113 -4.9282986,2.37949 -8.9606075,6.24762 -8.9606075,8.5958 0,6.54647 -6.050063,5.06843 -8.092351,-1.97699 -1.176875,-4.05988 0.234664,-6.71199 4.02982,-7.57651 3.212052,-0.73157 -0.959633,-1.22253 -9.270648,-1.09108 -9.816065,0.15525 -15.110937,1.68613 -15.110937,4.36887 0,2.27142 -1.599981,4.12987 -3.555514,4.12987 -1.955533,0 -3.555515,-2.16516 -3.555515,-4.81146 0,-2.6463 -2.494549,-4.81146 -5.543047,-4.81146 -3.048854,0 -4.816655,1.08258 -3.928843,2.40573 0.887812,1.32315 -0.519105,4.18382 -3.126364,6.35709 -3.812934,3.17768 -5.178963,2.70667 -6.977697,-2.40573 -1.786291,-5.07814 -5.407227,-6.35709 -17.996593,-6.35709 -10.088061,0 -15.861151,1.44302 -16.041061,4.00955 -0.224,3.20764 -0.63928,3.20764 -2.07393,0 -2.26202,-5.05733 -21.46891,-5.28815 -23.3192,-0.28035 -0.75768,2.05113 -4.21506,4.10494 -7.6824,4.56409 -4.18733,0.55444 -5.65255,-0.69795 -4.36332,-3.7293 1.48122,-3.48241 -1.45954,-4.56409 -12.40875,-4.56409 -13.24856,0 -14.15593,0.55201 -11.8196,7.19204 2.24247,6.37506 1.87056,6.69813 -3.27676,2.84418 -3.19392,-2.39129 -4.93043,-5.62773 -3.8588,-7.19204 1.07163,-1.5643 -3.74573,-2.84418 -10.70565,-2.84418 -6.95957,0 -12.65408,1.36056 -12.65408,3.02346 0,1.6629 3.41649,2.42988 7.59209,1.70441 4.1756,-0.72547 6.53433,-0.36484 5.24154,0.80146 -4.98234,4.4949 -16.38914,3.98126 -16.38914,-0.73801 0,-2.65288 -3.17366,-4.79132 -7.11103,-4.79132 -4.93292,0 -7.18463,2.2108 -7.35174,7.21719 l -0.24177,7.21719 -3.85809,-7.21719 c -3.12423,-5.8439 -6.79921,-7.21719 -19.31462,-7.21719 -9.84522,0 -15.55858,1.45563 -15.73742,4.00955 -0.224,3.20764 -0.63928,3.20764 -2.07393,0 -2.46362,-5.5079 -21.32065,-5.07272 -23.71138,0.54723 -2.11055,4.96228 -12.17372,4.89495 -15.99554,-0.10714 -3.18788,-4.17214 -22.98889,-5.37203 -20.14519,-1.22073 1.20069,1.75246 0.62186,3.18628 -1.28639,3.18628 -1.90789,0 -4.1308,-1.79141 -4.93968,-3.98091 -1.04069,-2.81676 -3.39658,-2.24371 -8.05572,1.95955 -5.99958,5.41244 -6.95672,5.48118 -10.77286,0.77326 -5.28527,-6.52106 -49.60867,-7.49128 -52.88508,-1.15763 -1.659,3.20763 -2.48886,3.20763 -4.14786,0 -1.14096,-2.20526 -6.83512,-4.00955 -12.65443,-4.00955 -6.14784,0 -9.65927,1.34371 -8.38248,3.20764 1.20852,1.7642 0.5031,3.20764 -1.56798,3.20764 -2.07074,0 -3.76529,2.88687 -3.76529,6.41527 0,3.52841 -1.25723,6.41528 -2.79357,6.41528 -3.89187,0 -3.69134,-13.9949 0.23466,-16.40977 1.76674,-1.08649 -1.06096,-2.71238 -6.28401,-3.61308 -11.14867,-1.92269 -13.90064,2.30879 -11.84307,18.20951 0.78186,6.04245 0.40747,10.42082 -0.83199,9.7297 -1.23945,-0.69109 -2.59197,50.65221 -3.00583,114.0962 -0.60657,93.032659 0.14578,115.362221 3.88582,115.401835 3.50432,0.03721 3.59143,0.648905 0.35662,2.503915 -3.01152,1.726833 -4.37826,17.169273 -4.60937,52.0750247 -0.18133,27.2911053 -0.25244,50.8795373 -0.16355,52.4186913 0.0889,1.539185 2.50024,1.049828 5.3546,-1.087454 4.32742,-3.23994 4.93683,-2.699838 3.66716,3.248921 -0.83768,3.924162 -2.62824,8.022113 -3.97898,9.106551 -1.35038,1.084439 -1.419,-0.629274 -0.15288,-3.808269 1.37385,-3.446736 0.88461,-4.988873 -1.21101,-3.820234 -1.93349,1.077831 -3.51498,4.846582 -3.51498,8.374985 0,4.278542 1.48016,5.612951 4.44439,4.006438 2.94112,-1.594165 2.7701,-0.547288 -0.5063,3.095339 -4.05045,4.503493 -4.91159,28.312771 -4.73666,130.958987 0.11733,69.0001 -0.85475,128.05616 -2.16069,131.23567 -1.30558,3.17954 -1.81189,13.19052 -1.12496,22.24668 l 1.24905,16.46574 12.97301,-1.69896 c 13.86224,-1.8154 51.4234,-5.10749 80.52778,-7.05799 23.35831,-1.5654 36.07176,-3.44603 40.68539,-6.01827 2.06718,-1.15264 3.75854,-0.61237 3.75854,1.20058 0,1.81296 1.99998,2.63283 4.44439,1.82198 4.03942,-1.33993 18.87694,-2.48782 82.66571,-6.39533 25.93215,-1.58849 39.25608,-3.47089 44.24091,-6.25015 2.06718,-1.15263 3.75854,-0.85692 3.75854,0.65715 0,1.51407 5.58713,2.16442 12.41586,1.4452 6.82872,-0.71922 11.79186,-2.23367 11.02991,-3.36545 -0.7623,-1.13179 14.85032,-1.9378 34.69471,-1.79112 46.995727,0.34733 88.478973,6.91927 85.31172,9.81189 -3.005476,2.74461 -99.31476,2.97761 -164.78529,7.23511 -35.68385,2.3205 -99.81467,8.26644 -119.10973,11.04336 -1.95554,0.28131 -4.64315,2.67687 -5.9722,5.32317 -1.92993,3.84211 -2.46717,3.6254 -2.66664,-1.07559 -0.23111,-5.41334 -2.46717,-5.68252 -27.80519,-3.34537 -15.15538,1.39789 -34.75515,2.60364 -43.55505,2.6794 -8.7999,0.0757 -17.17527,1.58118 -18.61205,3.34538 -3.44921,4.2353 -3.50147,66.56109 -0.0533,64.68016 1.46665,-0.80027 19.46644,-2.50809 39.99953,-3.79518 z m 53.33272,-11.16656 c 0,-1.76421 1.69456,-3.20764 3.76529,-3.20764 2.07109,0 2.7765,1.44343 1.56798,3.20764 -1.20852,1.7642 -2.90308,3.20763 -3.76529,3.20763 -0.86257,0 -1.56798,-1.44343 -1.56798,-3.20763 z m 53.33272,-6.6046 c 0,-3.63252 1.52994,-5.75145 3.40014,-4.70871 1.8702,1.0427 2.49917,4.01477 1.39731,6.60459 -2.82023,6.63054 -4.79745,5.84919 -4.79745,-1.89588 z m 73.77692,-8.35032 c 2.44442,-0.88983 6.44437,-0.88983 8.88879,0 2.44442,0.88984 0.44444,1.61791 -4.44439,1.61791 -4.88884,0 -6.88881,-0.72807 -4.4444,-1.61791 z m 100.443288,-1.08328 c 0,-1.7642 1.694558,-3.20764 3.76529,-3.20764 2.071087,0 2.776501,1.44344 1.567982,3.20764 -1.20852,1.7642 -2.903078,3.20764 -3.76529,3.20764 -0.862568,0 -1.567982,-1.44344 -1.567982,-3.20764 z m -54.549058,-4.97484 c 2.1582,-5.07361 8.32737,-6.395 8.32737,-1.78364 0,1.57547 -2.31855,3.66712 -5.1523,4.64811 -3.44351,1.19215 -4.4963,0.24218 -3.17507,-2.86447 z m 221.658239,-7.85573 c 0,-1.7642 1.694558,-3.20764 3.76529,-3.20764 2.071087,0 2.776501,1.44344 1.567982,3.20764 -1.208519,1.7642 -2.903078,3.20764 -3.76529,3.20764 -0.862568,0 -1.567982,-1.44344 -1.567982,-3.20764 z M -278.14177,389.5878 c 1.12568,-2.6463 2.47926,-4.81145 3.00833,-4.81145 0.52941,0 2.95392,2.16515 5.38838,4.81145 3.69453,4.01597 3.19712,4.81146 -3.00868,4.81146 -5.14803,0 -6.80525,-1.47994 -5.38803,-4.81146 z m 499.05771,-8.01909 c 0,-1.76421 1.69456,-3.20764 3.76529,-3.20764 2.07109,0 2.7765,1.44343 1.56798,3.20764 -1.20852,1.7642 -2.90308,3.20764 -3.76529,3.20764 -0.86257,0 -1.56798,-1.44344 -1.56798,-3.20764 z m -371.30736,-3.56347 c 1.6622,-2.42651 10.81054,-1.96721 13.75664,0.69067 0.96924,0.87437 -2.08104,1.58974 -6.77823,1.58974 -4.69755,0 -7.83778,-1.02619 -6.97841,-2.28041 z m 424.92061,-1.51528 c 0.17066,-3.73674 1.01332,-4.49679 2.14824,-1.93796 1.02719,2.31549 0.90096,5.08208 -0.28089,6.14798 -1.1815,1.06587 -2.02166,-0.82866 -1.86735,-4.21002 z m -397.31311,-2.79925 c 0,-2.56871 1.35963,-3.91239 3.02113,-2.98599 1.66149,0.9264 2.10024,3.02804 0.97527,4.67036 -2.87499,4.19681 -3.9964,3.72426 -3.9964,-1.68437 z m 167.605892,-4.81248 c 1.155897,-1.68716 4.450082,-2.25443 7.320804,-1.26064 7.349604,2.5444 6.483481,4.3282 -2.101309,4.3282 -4.02662,0 -6.375393,-1.38041 -5.219495,-3.06756 z m -186.568512,-3.34772 c 0,-1.7642 1.69456,-3.20764 3.76529,-3.20764 2.07109,0 2.7765,1.44344 1.56798,3.20764 -1.20852,1.7642 -2.90308,3.20764 -3.76529,3.20764 -0.86257,0 -1.56798,-1.44344 -1.56798,-3.20764 z m -122.17317,-30.47257 c 1.12568,-2.6463 2.47926,-4.81146 3.00832,-4.81146 0.52942,0 2.95392,2.16516 5.38839,4.81146 3.69453,4.01596 3.19711,4.81146 -3.00868,4.81146 -5.14803,0 -6.80526,-1.47994 -5.38803,-4.81146 z m 227.060847,1.60382 c -1.208519,-1.7642 -0.503105,-3.20764 1.567982,-3.20764 2.070732,0 3.76529,1.44344 3.76529,3.20764 0,1.7642 -0.705414,3.20764 -1.567982,3.20764 -0.862212,0 -2.556771,-1.44344 -3.76529,-3.20764 z m -33.777388,-3.39695 c 0,-1.86832 1.599982,-2.50485 3.555515,-1.41451 1.955533,1.09034 3.555514,2.61897 3.555514,3.39696 0,0.77798 -1.599981,1.4145 -3.555514,1.4145 -1.955533,0 -3.555515,-1.52863 -3.555515,-3.39695 z m 61.1104058,-12.84172 c 0.8554568,-2.31553 3.6554244,-4.84155 6.2221503,-5.61337 2.66663591,-0.80191 3.99995385,0.40095 3.11107522,2.80668 -0.85545682,2.3155 -3.65542442,4.84152 -6.22215032,5.61337 -2.6666359,0.80191 -3.999954,-0.40095 -3.1110752,-2.80668 z m -51.9777108,-12.9859 c 1.662203,-2.42652 10.810542,-1.96722 13.756641,0.69066 0.969233,0.87438 -2.081043,1.58974 -6.778233,1.58974 -4.697546,0 -7.837776,-1.02618 -6.978408,-2.2804 z m 27.607503,-4.31453 c 0,-2.56871 1.359629,-3.91239 3.021121,-2.986 1.661492,0.9264 2.100242,3.02805 0.975278,4.67036 -2.874989,4.19681 -3.996399,3.72426 -3.996399,-1.68436 z m 36.1869602,-8.10305 c -0.7907464,-1.1541 3.2529402,-2.09837 8.9854958,-2.09837 5.732556,0 9.614467,0.72926 8.626745,1.62056 -2.755168,2.48551 -15.9909262,2.8446 -17.6122408,0.47781 z m 58.6268788,0.13216 c 0,-1.66008 1.581493,-3.90023 3.514626,-4.97806 2.015621,-1.12377 2.611525,0.16391 1.397673,3.01832 -2.363707,5.55698 -4.912299,6.5737 -4.912299,1.95974 z m -328.885096,-3.39696 c 1.20852,-1.7642 3.70307,-3.20763 5.54305,-3.20763 1.84034,0 3.34574,1.44343 3.34574,3.20763 0,1.76421 -2.49455,3.20764 -5.54305,3.20764 -3.04885,0 -4.55425,-1.44343 -3.34574,-3.20764 z m -99.68987,-3.01001 c 1.13421,-1.6555 -3.81897,-3.45979 -11.0068,-4.00955 l -13.06936,-0.99953 0.7815,-55.97548 c 0.42986,-30.78654 1.57189,-57.12927 2.53793,-58.53942 0.96603,-1.41017 -0.0356,-2.56393 -2.21865,-2.56393 -2.32281,0 -2.79605,-1.66669 -1.13847,-4.00954 1.56051,-2.20526 2.97561,-70.76854 3.14485,-152.362856 0.25244,-121.186394 -0.55537,-148.353304 -4.40493,-148.353304 -2.59197,0 -4.68794,-2.52602 -4.65807,-5.61337 0.0427,-4.37278 0.72994,-4.65156 3.11107,-1.26137 5.15763,7.34312 6.30891,0.43412 7.14018,-42.84366 0.88568,-46.12434 3.04601,-82.07867 5.03924,-83.87684 0.71323,-0.64359 6.75227,-0.16424 13.42028,1.0649 11.46725,2.11409 11.64218,2.3401 3.23446,4.17644 -6.48313,1.41598 -8.88879,4.07255 -8.88879,9.81586 0,7.61384 0.92621,7.90574 27.97941,8.81821 l 27.97977,0.94372 -2.22931,124.15421 c -1.22594,68.284824 -3.19676,148.258769 -4.37933,177.719907 -2.05509,51.201583 -1.81864,53.945883 5.36029,62.179633 l 7.51067,8.61392 0.24178,-57.368173 c 0.29511,-70.2372534 3.22947,-234.061517 4.81808,-269.072347 0.64034,-14.11361 1.36389,-34.6826 1.6078,-45.70886 0.24533,-11.02625 1.64336,-20.0479 3.11001,-20.04809 1.46665,-1.6e-4 2.1998,42.58125 1.62914,94.62535 -0.70222,64.07259 0.15999,94.625701 2.66663,94.625701 2.03731,0 3.70414,-2.388857 3.70414,-5.30861 0,-4.686393 0.87963,-4.592409 7.50355,0.801909 6.17522,5.028552 6.52473,6.288096 1.97474,7.113389 -3.15623,0.572531 -4.68724,2.98134 -3.56761,5.613368 1.07875,2.535767 0.32356,4.6105 -1.67855,4.6105 -2.00176,0 -4.35373,-1.804297 -5.22697,-4.009549 -0.87288,-2.205251 -2.47286,-3.28783 -3.55516,-2.405729 -2.59339,2.11361 -5.68029,134.594874 -5.92313,254.205391 -0.16355,80.86798 -0.97527,95.42726 -5.31691,95.42726 -2.81775,0 -6.26518,1.66646 -7.66036,3.70325 -1.51429,2.21029 -0.98097,2.83578 1.3223,1.5515 2.12264,-1.18346 4.65239,-0.99408 5.62162,0.42085 0.96923,1.41495 -3.6028,2.57262 -10.15988,2.57262 -6.55708,0 -11.12912,-1.15767 -10.15989,-2.57262 0.96924,-1.41493 3.49899,-1.60431 5.62163,-0.42085 2.12264,1.18346 2.86894,0.70632 1.65865,-1.06031 -2.88175,-4.20666 -35.47906,0.1854 -37.26571,5.02104 -0.73457,1.98829 -2.89667,3.61507 -4.80492,3.61507 -1.90789,0 -2.54113,-1.35449 -1.40692,-3.01001 z m 35.27391,-19.64089 c 1.7262,-1.41845 2.17633,-4.84116 1.00052,-7.60605 -1.54309,-3.62742 -7.03814,-5.02707 -19.73666,-5.02707 -23.08525,0 -28.8466,2.301 -28.8466,11.52074 0,7.42691 0.58204,7.57516 22.22196,5.65905 12.22209,-1.08223 23.63422,-3.12825 25.36078,-4.54667 z m 17.41562,-19.85031 c 1.00514,-11.02626 2.06397,-33.7604 2.35304,-50.52032 l 0.52586,-30.47257 -6.56241,8.72485 c -8.89697,11.82916 -11.80467,92.31578 -3.33508,92.31578 3.80227,0 5.67994,-5.36314 7.01859,-20.04774 z m -61.44285,-38.06836 c 0,-25.87329 -1.21421,-37.81466 -3.70413,-36.42643 -2.29473,1.27956 -3.45205,16.56791 -3.04174,40.18771 0.36408,20.96737 2.03091,37.35927 3.70413,36.42643 1.67287,-0.93281 3.04174,-19.01729 3.04174,-40.18771 z m 17.49705,7.59579 c -0.15289,-17.20097 -0.88035,-29.83104 -1.6135,-28.06684 -2.67303,6.43471 -3.36209,59.3434 -0.77261,59.34238 1.46665,-5.8e-4 2.54041,-14.07458 2.38611,-31.27554 z m 17.5909,-0.68737 -0.46755,-30.58711 -2.95925,22.45347 c -1.62772,12.34941 -2.10984,24.97949 -1.07092,28.06684 1.03856,3.08735 0.0782,5.61337 -2.13224,5.61337 -2.85473,0 -3.3589,-7.90924 -1.73901,-27.26493 1.55945,-18.63135 1.06808,-27.26493 -1.55198,-27.26493 -2.46646,0 -3.83391,10.62447 -3.83391,29.7852 0,27.6468 0.51057,29.78524 7.11103,29.78524 6.64668,0 7.08045,-1.99791 6.64383,-30.58715 z m 11.13374,1.48928 c 0,-18.17663 -1.43465,-30.47257 -3.55551,-30.47257 -2.12087,0 -3.55552,12.29594 -3.55552,30.47257 0,18.17663 1.43465,30.47257 3.55552,30.47257 2.12086,0 3.55551,-12.29594 3.55551,-30.47257 z m -37.93378,-5.67108 c 0.91305,-17.36667 0.22755,-31.21677 -1.54559,-31.21677 -1.75286,0 -3.1868,14.67495 -3.1868,32.61101 0,17.93602 0.69546,31.98359 1.54558,31.21677 0.84977,-0.76682 2.28406,-15.44177 3.18681,-32.61101 z m 40.21144,-36.02092 c 11.09143,-10.00629 15.16036,-36.64111 7.81822,-51.17861 -5.10358,-10.10474 -10.03224,-10.713 -7.72151,-0.95283 1.6455,6.94964 1.50648,6.99249 -3.75462,1.15581 -5.04385,-5.59596 -6.11406,-5.67663 -13.94046,-1.05038 -4.66235,2.75604 -10.56415,9.55662 -13.11487,15.11238 -3.98182,8.67252 -3.78982,11.70602 1.35821,21.4455 5.23265,9.8991 7.33893,11.16634 16.53705,9.94846 13.0562,-1.72879 13.19025,-0.80095 0.76266,5.28151 -9.46052,4.63029 -9.50994,4.78961 -1.5239,4.91388 4.53968,0.0706 10.65019,-2.03346 13.57922,-4.67572 z m -2.27766,-22.6501 c 0,-4.51462 1.44958,-7.40005 3.22165,-6.41207 1.77207,0.98799 2.3854,4.68174 1.36319,8.20841 -2.55855,8.82598 -4.58484,8.03203 -4.58484,-1.79634 z m -40.05962,-4.50686 c 0.78007,-17.64621 6.30357,-25.38067 22.9192,-32.09175 7.85697,-3.17351 12.56839,-6.29852 10.47028,-6.94451 -2.24424,-0.69096 -2.83695,-4.476 -1.43999,-9.19361 l 2.37544,-8.019093 2.51268,8.019093 c 1.38239,4.41051 2.67268,-22.535905 2.86753,-59.880874 0.19555,-37.3450009 1.32549,-70.183205 2.51268,-72.973787 1.18683,-2.790614 0.42062,-5.073811 -1.70274,-5.073811 -2.61152,0 -4.19835,20.494375 -4.90447,63.35087 l -1.04355,63.35087 -1.48122,-78.587155 c -1.11466,-59.153675 -2.02807,-71.44833 -3.69276,-49.718405 l -2.21189,28.8687514 -0.67163,-24.8592024 c -0.37938,-14.030277 -2.22078,-24.859202 -4.22751,-24.859202 -2.26806,0 -3.55552,26.908531 -3.55552,74.310314 0,40.870645 -1.03998,73.372144 -2.31072,72.225541 -1.2711,-1.146635 -2.13616,-35.668849 -1.92212,-76.716043 0.21334,-41.047194 -0.8775,-71.821699 -2.42521,-68.387761 -2.63499,5.84682 -3.01152,5.744913 -5.92349,-1.60382 -2.10877,-5.321377 -3.77382,9.705065 -5.17256,46.682534 -2.37011,62.653562 -4.0668,56.964782 -3.58787,-12.028646 0.21333,-30.949418 -0.95643,-47.312675 -3.38663,-47.312675 -2.51588,0 -3.49436,30.816205 -3.03036,95.42726 0.37688,52.484993 1.25296,86.405771 1.94735,75.379521 1.42612,-22.648887 7.65787,-27.218297 8.74906,-6.415283 0.39359,7.497853 1.67144,-3.688785 2.8405,-24.859202 l 2.12513,-38.491668 0.71537,39.482893 c 0.46684,25.77572 1.9694,38.7834 4.32848,37.46811 1.98753,-1.10811 2.69295,-3.35846 1.56798,-5.00077 -1.12496,-1.64228 -0.81954,-4.775729 0.67911,-6.96321 1.85455,-2.707055 3.51142,-1.426566 5.18856,4.009548 1.35536,4.392732 2.62361,-9.695345 2.81845,-31.306813 0.23822,-26.396527 1.64621,-39.293577 4.29044,-39.293577 2.1646,0 2.96459,2.283197 1.77776,5.073811 -1.18719,2.790582 -2.1582,21.55527 -2.1582,41.699307 0,29.182874 -1.00727,36.625494 -4.9571,36.625494 -2.72672,0 -9.92664,4.1877 -15.99981,9.30604 -9.14052,7.70308 -11.04272,11.75484 -11.04272,23.52267 0,11.54041 1.9438,18.49352 5.17043,18.49352 0.23467,0 0.68231,-5.72189 0.99164,-12.71528 z m -5.45096,-87.853156 c 0,-5.914983 1.41545,-12.771311 3.14556,-15.236286 2.08246,-2.967226 3.1637,0.667061 3.19996,10.75454 0.0356,8.379957 -1.38558,15.236286 -3.14556,15.236286 -1.75998,0 -3.19996,-4.839526 -3.19996,-10.75454 z m 10.92396,-46.982962 c 0,-7.9389067 0.69332,-11.1866412 1.5406,-7.217188 0.84764,3.969453 0.84764,10.464922 0,14.434375 -0.84728,3.969454 -1.5406,0.721719 -1.5406,-7.217187 z m 19.15569,-5.613368 c 3.00725,-20.726192 4.76439,-21.21911 4.76439,-1.3365274 0,9.1150514 -1.56941,16.5728124 -3.48761,16.5728124 -2.10024,0 -2.60832,-6.059808 -1.27678,-15.236285 z m -19.15569,-23.255383 c 0,-7.938907 0.69332,-11.186641 1.5406,-7.217188 0.84764,3.969453 0.84764,10.4649224 0,14.4343756 -0.84728,3.9694532 -1.5406,0.7217188 -1.5406,-7.2171876 z m 1.30132,-24.057293 c -1.12568,-2.646302 -0.49706,-4.811458 1.39731,-4.811458 1.89403,0 3.44388,2.165156 3.44388,4.811458 0,2.646303 -0.62898,4.811459 -1.39732,4.811459 -0.7687,0 -2.3182,-2.165156 -3.44387,-4.811459 z m 34.81986,-20.170371 c -2.82237,-21.209647 -5.09007,-20.951592 -5.09007,0.579235 0,11.382339 1.34718,17.614878 3.54236,16.390715 2.02095,-1.126651 2.68548,-8.416973 1.54771,-16.96995 z m -12.2011,-16.717477 c 8.77003,-7.911962 9.17074,-19.819488 0.88888,-26.4125 -14.16517,-11.27658 -31.47128,7.775925 -22.74961,25.045212 4.77755,9.459359 12.36502,9.93393 21.86073,1.367288 z m -31.16444,-40.8974 c -2.15642,-32.43802 -7.94622,-38.1642 -7.94622,-7.85871 0,13.25823 1.51429,23.094998 3.55551,23.094998 1.95554,0 3.55552,2.165157 3.55552,4.811459 0,2.646302 0.55964,4.811458 1.24372,4.811458 0.68408,0 0.50026,-11.186645 -0.40853,-24.859205 z m 45.3865,-10.80342 c 0,-12.34941 -1.33332,-21.71014 -2.96281,-20.80157 -1.6295,0.90853 -2.25776,6.40662 -1.3959,12.21793 1.50007,10.11711 1.3287,10.29347 -4.03515,4.15078 -5.31052,-6.08159 -5.60812,-5.61295 -5.71514,9.01032 -0.0711,9.48964 1.2551,14.66273 3.44245,13.44315 1.95554,-1.09034 3.55552,0.3531 3.55552,3.20764 0,2.85454 1.59998,4.29798 3.55551,3.20764 1.95553,-1.09034 3.55552,-12.08648 3.55552,-24.43589 z m -35.55515,3.58624 c 0,-5.29261 -1.59998,-9.62292 -3.55551,-9.62292 -1.95554,0 -3.55552,4.33031 -3.55552,9.62292 0,5.2926 1.59998,9.62291 3.55552,9.62291 1.95553,0 3.55551,-4.33031 3.55551,-9.62291 z m 6.01949,-2.34469 c -0.90168,-3.12094 -1.69847,-1.3441 -1.771,3.9485 -0.0711,5.29261 0.66523,7.84608 1.63909,5.67441 0.97421,-2.17166 1.03323,-6.50198 0.13155,-9.62291 z m 11.75808,3.41389 c 0,-4.70452 -1.09936,-7.56201 -2.44264,-6.34994 -3.57542,3.22544 -3.98182,14.90365 -0.51874,14.90365 1.62878,0 2.96138,-3.84916 2.96138,-8.55371 z m 3.55552,-20.31504 c 12.88447,-11.62374 6.51263,-28.86875 -10.66655,-28.86875 -11.36626,0 -17.77757,7.21174 -17.77757,19.99726 0,15.27564 15.86186,20.22281 28.44412,8.87149 z m -21.10447,-3.01229 c -7.24685,-4.13699 1.3863,-13.0259 12.65088,-13.0259 10.30352,0 11.298,8.02394 1.57616,12.71771 -8.22426,3.97086 -7.82605,3.96223 -14.22704,0.30825 z m -5.5658,-37.0832 4.75977,9.62292 0.28799,-10.08164 c 0.17778,-6.19013 -1.76993,-10.79431 -5.04456,-11.92799 -2.9333,-1.01548 -5.49292,-5.13934 -5.68776,-9.16416 l -0.35555,-7.31788 -2.31215,7.31704 c -1.27181,4.02437 -1.53776,15.57187 -0.59128,25.66112 l 1.72122,18.34407 1.23056,-16.0382 1.23021,-16.03819 4.75977,9.62291 z m 41.70334,-20.17374 c 0.88746,-21.68078 0.26666,-40.1698 -1.3767,-41.08671 -1.64442,-0.9169 -2.98983,17.42332 -2.98983,40.7561 0,23.33279 0.61937,41.82178 1.3767,41.08671 0.75697,-0.73509 2.10273,-19.07534 2.98983,-40.7561 z m -19.00103,19.37183 c -0.25244,-5.427 -1.03821,-6.66117 -2.03837,-3.20763 -0.89457,3.08735 -3.20317,5.61336 -5.13061,5.61336 -1.9278,0 -2.58415,-1.34371 -1.45918,-2.98599 1.12496,-1.64231 0.41955,-3.89263 -1.56799,-5.00077 -1.98753,-1.10811 -3.61346,0.85147 -3.61346,4.35463 0,3.50315 2.79996,7.0295 6.22215,7.83629 3.42218,0.80682 6.62214,1.63439 7.11102,1.83904 0.48889,0.20464 0.70329,-3.59737 0.47644,-8.44893 z m 11.07899,-0.80191 c 0,-5.2926 -1.59998,-9.62291 -3.55552,-9.62291 -1.95553,0 -3.55551,4.33031 -3.55551,9.62291 0,5.29261 1.59998,9.62292 3.55551,9.62292 1.95554,0 3.55552,-4.33031 3.55552,-9.62292 z m -10.43295,-16.15104 c 13.03309,-6.29258 5.00048,-30.75339 -9.2838,-28.27161 -3.74147,0.65003 -8.32737,5.09357 -10.19117,9.87455 -2.68051,6.87609 -2.02345,10.05371 3.14414,15.20514 7.59315,7.56949 7.3592,7.52375 16.33083,3.19192 z m -25.47668,-35.97309 c 0.19555,-3.08735 -1.2455,-5.61337 -3.20103,-5.61337 -1.95554,0 -3.39587,6.13461 -3.20103,13.63247 0.30222,11.58092 0.78257,12.42569 3.20103,5.61337 1.56585,-4.41051 3.00618,-10.54512 3.20103,-13.63247 z m 6.26481,-6.41528 c -0.9863,-2.20525 -1.7934,-0.40095 -1.7934,4.00955 0,4.41051 0.8071,6.2148 1.7934,4.00955 0.9863,-2.20525 0.9863,-5.81385 0,-8.0191 z m 29.64482,3.82024 c 0,-3.63253 -1.5303,-5.75143 -3.40014,-4.70872 -1.8702,1.04271 -2.49917,4.01478 -1.39732,6.60459 2.82024,6.63054 4.79746,5.8492 4.79746,-1.89587 z m -11.79329,-3.61976 c -1.13492,-2.55883 -1.97758,-1.79878 -2.14824,1.93796 -0.15289,3.38136 0.68621,5.27589 1.86771,4.21003 1.1815,-1.06587 1.30772,-3.83246 0.28089,-6.14799 z M 238.42151,290.9529 c -3.00618,-8.8611 -1.58042,-10.86222 7.73858,-10.86222 5.61167,0 9.31438,0.80172 8.22853,1.78159 -1.08621,0.9799 -4.66199,1.80003 -7.94622,1.82255 -3.28423,0.0224 -5.57114,1.84519 -5.08225,4.05045 0.71537,3.22704 -1.94665,6.13252 -2.93864,3.20763 z m -529.49966,-5.61336 c 0,-1.7642 1.59998,-3.20764 3.55552,-3.20764 1.95553,0 3.55551,1.44344 3.55551,3.20764 0,1.7642 -1.59998,3.20764 -3.55551,3.20764 -1.95554,0 -3.55552,-1.44344 -3.55552,-3.20764 z m 46.22169,-1.60382 c 0,-2.64631 -2.363,-4.81146 -5.2515,-4.81146 -2.88814,0 -7.70657,-3.38092 -10.70778,-7.51313 -4.69506,-6.46458 -5.41825,-26.04987 -5.18039,-140.3342 0.15289,-73.051606 0.31289,-134.986239 0.35662,-137.6325411 0.13155,-7.9521539 -0.0533,-45.3303859 -0.31644,-63.8314389 -0.13511,-9.526367 -1.90007,-19.117624 -3.92067,-21.313927 -2.02024,-2.19627 -3.42787,-5.227778 -3.12778,-6.736619 1.32407,-6.653574 -0.70968,-8.770034 -4.17667,-4.347184 -3.35285,4.276841 -3.61204,4.276841 -2.33384,0 0.79111,-2.6463 4.51266,-5.2316 8.27049,-5.74511 6.20117,-0.84733 6.83121,-3.81282 6.81556,-32.07639 0,-17.1285 -1.21918,-32.82373 -2.68868,-34.87832 -1.46949,-2.05456 -0.66168,-4.47068 1.79483,-5.36917 3.37916,-1.23591 3.16796,-2.46196 -0.86684,-5.03632 -3.57685,-2.28204 -3.878,-3.41889 -0.91448,-3.45183 2.86255,-0.0321 4.22467,-4.52162 3.86734,-12.74719 -0.352,-8.08755 -1.95554,-11.99301 -4.4188,-10.75618 -2.12691,1.06808 -1.86735,-0.002 0.57706,-2.37782 2.61971,-2.54626 4.4444,-12.98167 4.4444,-25.41794 0,-25.49336 6.0657,-35.35624 21.74446,-35.35624 6.21112,0 9.75597,1.34128 8.47741,3.20764 -1.20852,1.7642 -5.20847,3.20764 -8.88879,3.20764 -3.68031,0 -7.52382,1.21509 -8.54105,2.70019 -1.01759,1.48511 -2.93935,120.58911 -4.27124,264.6755107 -2.31073,250.0257693 -2.12762,262.2679493 4.01453,268.3906593 4.17275,4.15992 8.86247,5.72038 13.33887,4.4386 3.79693,-1.08719 15.58133,-1.8832 26.18743,-1.76891 10.6061,0.11419 23.63101,-1.39199 28.94402,-3.34734 5.313,-1.95531 23.25982,-3.98398 39.88185,-4.50817 16.62203,-0.52419 41.42174,-1.78685 55.110474,-2.80595 13.688731,-1.01906 52.888278,-2.50308 87.11010529,-3.29777 C 65.099782,253.39408 117.29793,251.27085 156.91668,248.5313 c 12.71096,-0.87892 42.31062,-2.36534 65.77702,-3.30316 41.08219,-1.6418 67.82108,-3.53697 94.22113,-6.67814 7.97751,-0.94918 16.27288,-5.15167 23.11084,-11.70773 9.07581,-8.70197 10.66655,-12.75476 10.66655,-27.17765 0,-9.32281 0.79999,-16.95465 1.77775,-16.95965 2.72353,-0.0128 0.72355,-422.97442 -2.01882,-426.97758 -6.70676,-9.79042 -26.89142,-12.29559 -113.91335,-14.13806 -48.54984,-1.02795 -89.12608,-2.67581 -90.16891,-3.66193 -1.04319,-0.98613 42.58119,-1.1663 96.94323,-0.40038 54.36204,0.76592 99.65574,0.20144 100.65306,-1.25441 0.99733,-1.45582 0.12089,-2.64698 -1.95197,-2.64698 -2.07074,0 -3.76529,-1.44344 -3.76529,-3.20764 0,-5.42033 7.21556,-3.54957 9.27918,2.40573 1.06985,3.08735 4.17737,9.38029 6.90587,13.98428 2.72815,4.60402 3.93631,9.29519 2.68406,10.42483 -1.25225,1.12966 -0.70186,2.05391 1.22274,2.05391 2.27447,0 3.06166,79.83936 2.24922,228.084273 -1.20247,219.362157 -1.51785,228.557787 -8.25164,240.465697 -8.90016,15.73869 -14.93494,18.5115 -44.85352,20.60831 -13.39043,0.93849 -31.54631,2.41811 -40.3462,3.28808 -8.7999,0.86998 -22.39974,2.2159 -30.22188,2.99093 -7.82213,0.77503 -32.62184,2.26896 -55.11047,3.31988 -32.07145,1.49867 -41.84698,3.05066 -45.33281,7.19714 -4.09204,4.8674 -4.44439,4.83933 -4.44439,-0.35425 0,-4.37853 -1.79021,-5.13672 -7.99991,-3.38839 -4.39995,1.23879 -9.00612,3.66453 -10.23633,5.39056 -1.31021,1.83875 -3.03427,1.32768 -4.16351,-1.23423 -1.36851,-3.10448 -2.00886,-3.20973 -2.20833,-0.36295 -0.15288,2.20525 -1.97508,4.00955 -4.04582,4.00955 -2.07108,0 -2.7765,-1.44344 -1.56798,-3.20764 1.20852,-1.7642 0.62044,-3.20764 -1.30736,-3.20764 -1.927445,0 -4.236396,2.52602 -5.130608,5.61337 -1.514293,5.22829 -1.654381,5.23375 -2.038376,0.0795 -0.34133,-4.58955 -1.969044,-5.0001 -9.53269,-2.40573 -5.01612,1.72055 -11.816041,3.10615 -15.110937,3.07914 -5.182162,-0.0423 -5.270694,-0.48323 -0.657414,-3.26492 5.413982,-3.26458 -89.174793,-1.56479 -119.109736,2.14042 -7.822132,0.96819 -20.521718,1.63943 -28.22083,1.49159 -7.699466,-0.14788 -17.643174,1.88532 -22.097169,4.51808 -10.08273,5.96015 -13.20838,6.06568 -10.78316,0.36413 2.8181,-6.62547 -40.46105,-3.12959 -46.45315,3.7523 -4.0156,4.61166 -4.4444,4.55988 -4.4444,-0.53648 0,-4.37852 -1.7902,-5.13671 -7.99991,-3.38839 -4.39994,1.23879 -9.00611,3.66454 -10.23632,5.39057 -1.31021,1.83875 -3.03428,1.32767 -4.16351,-1.23424 -1.36852,-3.10448 -2.00886,-3.20972 -2.20833,-0.36294 -0.15289,2.20525 -1.97509,4.00955 -4.04582,4.00955 -2.07109,0 -2.7765,-1.44344 -1.56798,-3.20764 1.20852,-1.7642 0.5031,-3.20764 -1.56798,-3.20764 -2.07073,0 -3.87765,2.52602 -4.01525,5.61337 -0.20621,4.59456 -0.68834,4.74012 -2.66663,0.80191 -2.77935,-5.5336 -18.4165,-8.04149 -18.4165,-2.95382 0,1.86229 -3.01045,2.52396 -6.69006,1.47041 -4.22217,-1.20896 -7.45982,-0.10553 -8.77714,2.99148 -2.6837,6.30962 -9.4214,6.37797 -9.4214,0.0956 z m 227.28093,4.00955 c -3.006188,-8.86111 -1.580426,-10.86222 7.7385773,-10.86222 5.6116685,0 9.31438128,0.80171 8.2285271,1.78158 -1.0862096,0.9799 -4.6619906,1.80003 -7.9462193,1.82255 -3.2842291,0.0224 -5.5711361,1.8452 -5.0822521,4.05045 0.715369,3.22704 -1.946645,6.13252 -2.938633,3.20764 z m 368.51166,-2.76156 c 1.6622,-2.42651 10.81054,-1.96721 13.75664,0.69067 0.96923,0.87437 -2.08105,1.58974 -6.77824,1.58974 -4.69754,0 -7.83777,-1.02619 -6.9784,-2.28041 z m 27.77141,-4.06885 c 0.4487,-2.75691 1.80833,-5.90832 3.02183,-7.00315 1.21385,-1.0948 1.83962,0.26495 1.39127,3.02195 -0.4487,2.7569 -1.80833,5.90831 -3.02218,7.00314 -1.2135,1.0948 -1.83927,-0.26495 -1.39092,-3.02194 z m 14.80267,1.43869 c -1.12496,-1.64232 -0.68621,-3.74396 0.97528,-4.67036 1.66149,-0.9264 3.02112,0.41728 3.02112,2.98599 0,5.40863 -1.12141,5.88118 -3.9964,1.68437 z m -692.88444,-8.77537 c -1.30381,-1.17611 -2.37046,-3.62995 -2.37046,-5.45298 0,-2.00991 1.65616,-1.82053 4.20724,0.48114 2.31428,2.08766 3.38094,4.54151 2.37046,5.45299 -1.01048,0.91151 -2.90379,0.695 -4.20724,-0.48115 z m 527.4012,-1.25851 c 0,-1.86833 1.59998,-2.50485 3.55551,-1.41451 1.95553,1.09034 3.55552,2.61897 3.55552,3.39695 0,0.77799 -1.59999,1.41451 -3.55552,1.41451 -1.95553,0 -3.55551,-1.52863 -3.55551,-3.39695 z m -518.82459,-4.88944 c 0.17067,-3.73674 1.01332,-4.49679 2.14824,-1.93796 1.02719,2.3155 0.90097,5.08209 -0.28088,6.14799 -1.1815,1.06586 -2.02167,-0.82867 -1.86736,-4.21003 z m 54.42639,-37.20964 c -3.10823,-4.53701 -11.24787,-53.58678 -9.19953,-55.43487 0.78576,-0.70872 2.07819,-75.360394 2.8725,-165.892572 1.89189,-215.684118 2.57383,-230.470658 10.88734,-236.003548 5.11958,-3.40712 21.52935,-4.04621 76.83609,-2.99234 38.67937,0.73702 71.200242,2.12856 72.268674,3.09232 1.068077,0.96377 -2.460771,3.68779 -7.842398,6.05336 -11.531246,5.06891 -15.332086,12.32019 -6.457881,12.32019 3.422183,0 5.103586,1.00925 3.736135,2.24278 -3.271785,2.95171 -35.18288,1.2105 -39.00826,-2.12849 -3.6188,-3.15846 2.43197,-6.92324 18.97614,-11.80661 l 12.4443,-3.6732 -14.8201,-0.33635 c -17.04869,-0.38691 -26.91062,2.25449 -24.04346,6.43969 2.56104,3.73853 -7.08756,12.46982 -13.77975,12.46982 -2.83374,0 -6.96205,1.96741 -9.17394,4.37201 -3.26751,3.55192 -2.18201,4.10014 5.78696,2.92255 8.13182,-1.20171 7.30765,-0.28324 -4.82306,5.37212 -18.22556,8.49723 -28.14083,25.94813 -25.03757,44.06504 l 2.09562,12.23252 -5.05274,-9.62292 c -3.44885,-6.56918 -5.10323,-7.77464 -5.21274,-3.79868 -0.0889,3.20335 1.44389,8.52864 3.40476,11.83398 2.49383,4.20364 2.3285,6.69919 -0.54933,8.30384 -2.26309,1.26176 -3.20921,0.97259 -2.10273,-0.64262 1.10647,-1.61517 -0.24533,-5.72268 -3.00619,-9.12779 -4.56564,-5.63306 -5.00759,-4.76257 -4.90483,9.6583 0.13866,19.20648 6.39815,27.52709 21.52082,28.60034 7.02427,0.4985 13.77584,3.672167 17.63713,8.290653 5.37345,6.42673 7.43493,6.971964 14.60356,3.862607 6.06855,-2.632156 6.71886,-3.679643 2.38255,-3.837491 -3.28067,-0.119324 -9.77944,-4.614862 -14.4425,-9.989939 -7.44133,-8.57818 -9.61162,-9.38391 -17.7541,-6.59112 -8.10124,2.77878 -10.0454,2.08686 -15.35201,-5.46344 -3.34182,-4.75484 -3.94839,-6.84087 -1.34789,-4.63562 6.58197,5.58175 12.23524,5.03956 6.98303,-0.66975 -3.54769,-3.85629 -2.67801,-5.04761 4.94394,-6.77348 5.22519,-1.18307 11.38512,-0.49468 14.15913,1.5824 3.77524,2.82663 6.29006,2.43213 10.87738,-1.70656 5.58572,-5.03908 5.81185,-4.63783 3.54201,6.27773 -2.14184,10.30008 -1.44781,11.98685 5.94659,14.45455 7.02179,2.34347 9.66354,1.21336 16.38986,-7.01161 4.41026,-5.39294 7.97004,-12.05094 7.91066,-14.79555 -0.0889,-4.12852 -0.73385,-4.02091 -3.73222,0.62318 -5.3866,8.34355 -9.54798,6.79756 -8.34373,-3.09987 1.06879,-8.78485 9.74851,-16.94788 18.02006,-16.94788 2.46255,0 6.049,-2.52601 7.9704,-5.61336 3.24832,-5.22047 3.67818,-5.16437 6.13931,0.8019 1.45562,3.52841 4.180571,7.34351 6.055749,8.47802 3.99391,2.41619 47.372964,0.63973 52.366685,-2.14453 1.874822,-1.04534 3.408671,-0.2749 3.408671,1.71246 0,2.15338 2.872856,2.79049 7.111029,1.57697 12.222793,-3.49979 7.761333,3.80211 -5.895043,9.64845 -18.302366,7.83533 -56.986364,4.47341 -66.384651,-5.76929 -6.47815,-7.06021 -6.49486,-7.03673 -4.45435,6.25284 1.82753,11.90018 0.69012,14.80637 -10.5389,26.93156 -6.92295,7.475568 -14.11504,16.167147 -15.98204,19.314643 -1.86736,3.147495 -6.99832,6.218649 -11.40254,6.824797 -4.40421,0.606147 -7.55155,3.024066 -6.99405,5.373116 0.55751,2.349082 -0.66239,6.09275 -2.71037,8.319268 -2.66201,2.893419 -2.25064,5.151565 1.44141,7.915972 2.84121,2.127274 4.28973,5.927396 3.21916,8.444687 -1.07092,2.517323 -0.17422,4.576948 1.98896,4.576948 2.16495,0 4.06217,-1.804297 4.21648,-4.009549 0.15289,-2.205252 1.95802,0.320764 4.00813,5.613369 5.18145,13.376592 15.38009,22.941675 39.8175,37.3443911 30.053695,17.7126149 42.181555,17.1167959 63.415088,-3.1155156 27.783501,-26.4734465 40.2647791,-55.0785295 24.032789,-55.0785295 -3.911066,0 -7.111029,-1.443437 -7.111029,-3.207639 0,-1.764201 -1.781668,-3.207639 -3.959066,-3.207639 -2.321751,0 -3.34965,3.746426 -2.485304,9.058758 0.833768,5.125518 -0.636437,10.836912 -3.385917,13.154142 -5.720467,4.820889 -11.000761,1.712142 -5.508203,-3.242955 2.099176,-1.893822 2.954277,-9.687134 1.947356,-17.746808 -1.458117,-11.670353 -0.425596,-15.521316 5.495047,-20.497487 7.271027,-6.111258 23.9431904,-11.548369 31.36568245,-10.228779 7.42178095,1.31953 36.79424155,-26.62048 39.14799255,-37.23908 3.044587,-13.73322 8.492702,-13.03485 8.492702,1.08864 0,21.28034 -15.516977,44.002006 -30.049787,44.002006 -6.384637,0 -9.0608727,1.72061 -9.0608727,5.825008 0,3.203758 -1.6259368,6.73168 -3.6134694,7.839791 -1.9875326,1.108143 -2.8049454,3.194904 -1.8168679,4.637315 0.9880775,1.442412 -0.6588368,4.4608 -3.6593355,6.707558 -3.0008543,2.246727 -4.6282132,6.03142 -3.6163138,8.410398 6.1385958,14.4312 -40.6558857,70.522413 -60.1820607,72.138774 -3.911066,0.323779 -9.825664,0.745969 -13.14367,0.938267 -3.318006,0.192137 -7.184628,1.388811 -8.592612,2.658972 -4.484926,4.046276 -8.336259,2.483322 -6.208284,-2.519568 1.408695,-3.312337 -1.697047,-6.2607022 -9.889305,-9.3877332 -13.10954,-5.00394893 -39.69163,-28.5630628 -43.6763,-38.7093708 -2.03838,-5.189574 -3.71693,-3.22836 -8.78674,10.264958 -6.83974,18.2045385 -22.64472,40.646528 -33.42184,47.456506 -3.75569,2.37314 -5.77273,5.855673 -4.48279,7.738974 1.2903,1.883301 3.10254,12.884958 4.02698,24.448112 2.18237,27.291779 10.46672,62.726563 15.2944,65.418293 3.52529,1.96567 21.96845,0.73894 72.43614,-4.81804 l 20.444206,-2.25112 0,-18.639172 c 0,-21.713631 -6.072463,-50.073586 -11.351691,-53.017269 -5.681712,-3.1678 -10.325215,5.691346 -9.027095,17.222199 1.29385,11.49637 -2.58344,14.209263 -5.5722,3.898596 -2.32353,-8.015344 7.851995,-41.588354 12.604651,-41.588354 1.892245,0 2.564593,2.059625 1.493672,4.576948 -2.693658,6.332809 3.095431,9.586125 27.852478,15.652316 37.221615,9.120376 46.144889,23.966965 60.1369056,100.057196 2.9197885,15.87781 6.9830305,33.91126 9.0299402,40.07432 4.5524808,13.70845 4.9051878,24.93285 0.6510147,20.71044 C -0.97874393,197.93205 -6.8695203,178.72859 -17.57553,131.37287 -27.943055,85.5137 -39.365501,57.548252 -48.787258,54.955967 c -3.327962,-0.915621 -4.156397,0.55428 -2.679081,4.753688 1.17652,3.343515 2.798901,18.309525 3.605648,33.257796 1.421494,26.339499 5.696645,42.942199 11.66102,45.286219 4.492749,1.76577 18.156591,29.60339 20.82216,42.42256 1.912511,9.19714 0.479994,14.45154 -7.136629,26.1769 l -9.529845,14.67001 45.592007,-2.10091 c 31.263639,-1.44067 50.061644,-3.86283 59.814064,-7.70715 7.822132,-3.08341 21.119045,-8.2462 29.549174,-11.47286 8.42977,-3.22666 16.82967,-8.40026 18.6668,-11.49688 4.02556,-6.78567 -1.98966,-23.46087 -7.37876,-20.45601 -1.99108,1.11016 -2.54717,3.58521 -1.23518,5.5001 1.35536,1.97873 0.74417,2.56672 -1.41616,1.36219 -2.09065,-1.16569 -4.47569,-1.02786 -5.29985,0.30633 -0.82417,1.33415 -1.03075,0.66764 -0.45902,-1.4811 0.57208,-2.14876 -0.49031,-4.75997 -2.36051,-5.80268 -1.8702,-1.04274 -3.42467,-0.006 -3.454534,2.30299 -0.03911,3.06917 -1.025411,2.90436 -3.663602,-0.61259 -2.638548,-3.51741 -2.973477,-2.22332 -1.245853,4.81145 1.299896,5.29261 4.796389,12.14894 7.770219,15.23629 4.98732,5.17796 4.60546,5.60955 -4.921896,5.56426 -5.681001,-0.0257 -12.429012,-1.2506 -14.995738,-2.71905 -6.269083,-3.58669 -6.499836,-21.36314 -0.363729,-28.0332 4.305728,-4.68058 3.922088,-5.96816 -3.017921,-10.12529 -6.011664,-3.60109 -7.951197,-7.87216 -7.951197,-17.51034 0,-7.01117 -2.627169,-20.90063 -5.838155,-30.86548 C 60.869431,91.089474 60.611656,85.731755 64.17997,73.694577 66.52981,65.768661 70.957492,56.78663 74.019146,53.73453 77.242575,50.521021 78.750824,45.304598 77.602037,41.341592 76.511206,37.57762 77.328263,31.114388 79.415705,26.978875 82.595402,20.683627 81.737812,17.877841 74.148922,9.7411836 55.448338,-10.308805 53.552182,-33.798282 68.667385,-58.166747 c 10.348681,-16.684021 22.90178,-22.210526 49.680495,-21.871383 12.41301,0.157175 41.85303,0.07345 65.42218,-0.186363 41.62867,-0.458532 43.48394,-0.180591 64.9372,9.724984 12.14635,5.608396 25.93784,14.328651 30.64747,19.378341 11.7268,12.57279 23.91652,42.9732207 21.17807,52.8165345 -1.21066,4.3513869 -0.25956,12.1405285 2.11375,17.3092535 7.05023,15.355289 2.13046,18.195589 -7.25538,4.188632 -20.25577,-30.2293995 -53.01664,-58.160012 -86.21447,-73.50308 -6.25451,-2.890628 -12.1716,-6.217334 -13.14936,-7.392742 -4.30858,-5.179567 -46.47698,-15.806763 -67.55478,-17.025121 -30.058674,-1.737417 -42.974791,1.688918 -53.143918,14.097766 -11.649999,14.215775 -13.164293,32.916887 -4.183419,51.6684242 4.013465,8.37995689 8.913319,15.2362852 10.888052,15.2362852 1.974733,0 6.277261,-4.691172 9.56149,-10.4248267 9.389045,-16.3928317 14.849255,-18.8419597 38.767905,-17.3896377 30.64925,1.861008 78.39519,22.8751495 102.59331,45.153966 16.0247,14.753568 20.9754,22.639035 32.41349,51.624737 2.53153,6.415278 2.53153,6.415278 5.23514,0 2.31499,-5.493339 3.23374,-4.70936 6.39424,5.455424 3.47444,11.173842 1.85811,24.718193 -4.65595,39.019773 -2.84228,6.23979 -0.21333,6.08569 21.60722,-1.26622 17.20122,-5.79565 16.93491,-3.06749 16.19963,-165.991464 -0.38008,-84.190966 -1.58682,-156.322196 -2.68157,-160.291656 -1.9662,-7.12821 -2.76405,-7.22113 -64.71569,-7.53866 -62.45724,-0.32012 -111.70396,-1.57485 -165.834889,-4.22542 -15.644264,-0.76601 -36.044028,-1.49979 -45.33281,-1.63057 -9.288781,-0.13087 -16.888694,-1.51792 -16.888694,-3.08248 0,-1.56455 8.399903,-2.40813 18.666451,-1.8746 66.766872,3.4697 214.682322,6.50701 224.886292,4.61784 1.95553,-0.36205 4.35551,-0.43569 5.33327,-0.16359 0.97777,0.27201 11.04485,0.9366 22.3713,1.47683 11.32645,0.5402 22.52632,2.72585 24.8886,4.85698 3.24761,2.92995 4.4931,53.04671 5.10714,205.5242348 L 316.76123,191.77489 304.27,201.6693 c -12.77141,10.11641 -19.3548,12.39085 -19.3548,6.6868 0,-1.7642 1.53527,-3.20763 3.41152,-3.20763 1.8766,0 7.47653,-3.9547 12.4443,-8.78823 8.39101,-8.16379 9.03278,-11.01272 9.03278,-40.09549 0,-30.49297 -1.56265,-35.0296 -9.57642,-27.79999 -2.13829,1.92901 -10.7149,3.7333 -19.05969,4.00954 -11.27063,0.37315 -17.65598,2.7333 -24.83421,9.17937 -5.31478,4.77239 -8.82976,9.42866 -7.81146,10.3473 1.0183,0.91863 0.004,3.67788 -2.25277,6.13169 -2.2574,2.45378 -3.6853,7.74244 -3.1733,11.75256 1.36674,10.70553 -6.61077,11.37769 -11.17427,0.94151 l -3.92742,-8.98139 1.30096,8.82101 c 0.71572,4.85155 0.0391,8.821 -1.50078,8.821 -5.26714,0 -5.62838,-11.21647 -0.65529,-20.34583 7.16863,-13.15962 2.60904,-14.38661 -6.1969,-1.66749 -5.53914,8.00107 -6.95494,13.89286 -5.4826,22.81523 1.18043,7.15416 0.52692,12.02865 -1.61279,12.02865 -1.97864,0 -3.62164,-0.36086 -3.65115,-0.80191 -0.0356,-0.44105 -2.24638,-6.48658 -4.92724,-13.43449 -4.40421,-11.41567 -4.20475,-13.79044 2.07038,-24.65173 4.75621,-8.23186 10.12504,-12.64939 17.03874,-14.01934 6.92685,-1.37252 10.81125,-4.57621 12.37817,-10.20889 3.2412,-11.65011 0.43377,-12.37549 -9.70763,-2.50837 -6.70676,6.52533 -10.72201,8.02333 -16.82327,6.27635 -7.72613,-2.21224 -7.60773,-2.47222 3.30094,-7.23845 10.74903,-4.69656 23.47244,-20.47962 19.4412,-24.11635 -1.03786,-0.93644 -5.94304,0.19567 -10.9005,2.51595 -10.62494,4.97302 -31.17759,0.30568 -28.31256,-6.429524 0.9447,-2.221097 -0.0498,-5.633576 -2.21189,-7.583372 -2.16104,-1.949763 -2.61721,-4.651686 -1.01296,-6.004219 1.60389,-1.352565 3.63053,-0.654903 4.50341,1.550348 0.87324,2.205252 3.22521,4.009549 5.22697,4.009549 2.00175,0 2.7189,-2.165156 1.59322,-4.811458 -1.12567,-2.646302 -0.70328,-4.811459 0.9383,-4.811459 1.64158,0 1.53847,-6.856328 -0.22755,-15.236285 -1.7678,-8.379957 -2.81988,-18.845745 -2.33882,-23.257307 0.48142,-4.411562 -0.38399,-9.859673 -1.92353,-12.106913 -1.53954,-2.24724 -1.8094,-8.15122 -0.59982,-13.119949 2.06825,-8.4953355 0.8647,-9.6233338 -20.18074,-18.915864 -29.17584,-12.882456 -73.93515,-17.103356 -73.93515,-6.9722845 0,1.4945994 -3.999952,8.0350074 -8.888784,14.5342614 C 84.693511,18.274401 83.35486,25.520682 90.901439,25.520682 c 9.765931,0 15.258131,29.657863 7.476892,40.37205 -3.292407,4.533036 -4.87781,10.758454 -3.637291,14.283841 1.675358,4.762703 0.874656,5.790623 -3.367428,4.322069 -7.518847,-2.602902 -7.001164,-8.388617 1.545226,-17.278653 7.436362,-7.735381 9.430292,-16.038195 3.851689,-16.038195 -1.792335,0 -3.932399,1.804297 -4.755145,4.009549 -1.175453,3.1508 -2.725302,3.094025 -7.236539,-0.265272 -5.021453,-3.73892 -6.430859,-2.785353 -11.245025,7.608937 -6.999386,15.113368 -6.977342,31.120257 0.07467,52.538822 3.067342,9.31809 4.70359,18.99515 3.636224,21.50458 -2.563881,6.0279 10.021929,17.12039 20.119946,17.73289 16.986462,1.03029 40.708862,-0.66042 57.080222,-4.06812 9.39438,-1.95541 17.83304,-2.87645 18.75285,-2.04676 2.79037,2.51742 -19.95177,20.93369 -30.9056,25.02706 -8.41768,3.1455 -10.26121,5.76114 -10.26121,14.55912 0,13.62893 8.94319,18.38496 29.40126,15.63557 17.70255,-2.37914 19.54111,-3.51368 13.917,-8.58778 -2.31429,-2.08763 -4.08102,-6.03302 -3.92671,-8.76754 0.24177,-4.31174 0.54114,-4.33304 2.24175,-0.16038 2.79072,6.84709 12.16448,16.0382 16.35714,16.0382 1.95553,0 0.90772,-2.63967 -2.32886,-5.86594 -3.23623,-3.22628 -5.88438,-7.98962 -5.88438,-10.58521 0,-2.59559 -1.55269,-6.12018 -3.45062,-7.83235 -2.23073,-2.01238 -0.9959,-6.48915 3.49222,-12.66129 l 6.94286,-9.54818 -2.07109,16.02931 c -1.69172,13.094 -0.79004,17.35089 4.92474,23.24647 3.84778,3.96945 8.67475,7.21719 10.72699,7.21719 2.05224,0 4.26448,1.34255 4.91621,2.98349 1.26256,3.17816 12.7355,4.74724 28.74029,3.93064 7.22303,-0.36853 9.77766,-2.17501 9.77766,-6.91413 0,-3.52841 1.53279,-6.41528 3.40583,-6.41528 5.31798,0 22.37165,-28.29003 22.37165,-37.11194 0,-6.6212 0.85937,-7.27155 5.25754,-3.97853 5.34394,4.00108 4.81808,19.417 -1.12852,33.07137 -2.48459,5.70559 -2.13011,5.92826 3.2053,2.01299 3.29952,-2.42129 5.99886,-7.11246 5.99886,-10.42483 0,-3.3124 1.59998,-6.02253 3.55552,-6.02253 4.54679,0 4.47817,3.07041 -0.34844,15.55955 -2.14682,5.55585 -5.45452,10.10156 -7.35032,10.10156 -1.89615,0 -2.43197,2.88687 -1.19038,6.41528 1.93491,5.49991 0.57386,6.46114 -9.53803,6.73671 -6.48739,0.17674 -27.41373,1.25938 -46.50328,2.40573 -24.09892,1.44716 -34.26058,1.03341 -33.24335,-1.35356 2.23997,-5.2569 -10.30246,-11.288 -14.88232,-7.15621 -5.40154,4.87317 -46.75395,1.62515 -50.58928,-3.97353 -2.55322,-3.72718 -3.47338,-3.5778 -5.36598,0.87142 -4.43551,10.42817 1.43145,12.53651 28.89957,10.38547 18.00051,-1.4096 26.33499,-0.95825 26.33499,1.42615 0,2.15018 -9.20665,3.55836 -23.99972,3.67085 -13.19985,0.1004 -31.62773,0.72496 -40.95064,1.38801 -9.91704,0.7053 -16.100079,-0.0359 -14.90116,-1.7863 1.127454,-1.64552 5.95513,-2.99183 10.72876,-2.99183 6.19335,0 8.67901,-1.76689 8.67901,-6.16944 0,-5.77773 -0.67448,-5.86588 -10.62388,-1.3882 -5.842768,2.62968 -11.902076,6.84215 -13.464369,9.36107 -1.918911,3.09332 -11.453735,5.06053 -29.376016,6.06087 -14.594321,0.81455 -42.934616,2.43761 -62.9788287,3.6068 -29.6145913,1.72741 -36.4543343,1.30259 -36.4984233,-2.26694 -0.03556,-2.97367 -0.898478,-3.24032 -2.666636,-0.82552 -1.545226,2.10983 -21.496285,4.46234 -48.833924,5.75823 -25.421933,1.20508 -53.421613,2.98621 -62.221513,3.9581 l -15.99981,1.76702 1.24265,-29.17681 c 0.84124,-19.75277 -0.0356,-29.17685 -2.66663,-29.17685 -2.55251,0 -3.90929,10.01971 -3.90929,28.86876 0,15.87781 -1.19999,28.86897 -2.66664,28.8692 -1.46665,2.5e-4 -2.10273,-12.26897 -1.41296,-27.26494 0.84657,-18.41399 -0.0356,-27.26538 -2.66664,-27.26538 -2.55214,0 -3.92031,9.59893 -3.92031,27.50012 0,24.45324 -0.6887,27.3805 -6.21575,26.4202 -6.71921,-1.16733 -6.66445,-0.94119 -7.4648,-30.85425 -0.29866,-11.13038 -1.90469,-19.47707 -3.57045,-18.5482 -1.66611,0.92886 -2.25561,12.56153 -1.3102,25.85042 l 1.71873,24.16158 -16.25759,0 c -8.94176,0 -17.42806,-1.70852 -18.85845,-3.79673 z m 23.5688,-6.6281 c 0.0356,-2.67303 1.20319,-2.40573 3.50111,0.80191 2.4878,3.47316 3.36317,0.79658 3.14663,-9.62292 -0.3271,-15.78954 -5.65362,-35.80133 -6.40205,-24.05729 -0.27378,4.29541 -1.31412,5.1302 -3.14841,2.52633 -4.08422,-5.798 -17.5262,-1.34249 -19.88528,6.59122 -3.3333,11.20929 -2.55002,14.58324 4.95603,21.35502 7.97253,7.19242 17.74913,8.5114 17.83197,2.40573 z m -10.02797,-10.42483 c 0.0711,-5.2926 0.86932,-7.06944 1.771,-3.94851 0.90132,3.12094 0.8423,7.45125 -0.13156,9.62292 -0.97385,2.17167 -1.71162,-0.38181 -1.63909,-5.67441 z m 34.86217,-8.0191 c 0,-12.63903 -1.53456,-22.45347 -3.51071,-22.45347 -2.04514,0 -2.91659,7.02867 -2.08745,16.8401 0.78257,9.26206 1.5623,19.36612 1.73261,22.45348 0.17066,3.08735 1.11003,5.61336 2.08779,5.61336 0.97777,0 1.77776,-10.10406 1.77776,-22.45347 z m 31.57901,-8.82101 c 0.23111,-7.49785 2.12834,-13.63246 4.21578,-13.63246 2.08708,0 2.97241,2.52601 1.96691,5.61337 -2.86824,8.80824 -3.86342,35.66028 -1.40372,37.87939 1.22061,1.10118 3.24405,-4.98647 4.49666,-13.52812 4.49346,-30.64068 3.64191,-35.42741 -6.18837,-34.78505 -7.52312,0.49164 -8.03298,2.03698 -8.55208,25.92696 -0.38186,17.56843 0.30933,22.43609 2.24602,15.7813 1.53882,-5.29261 2.98734,-15.75753 3.2188,-23.25539 z m 66.520125,25.32974 c -0.839813,-1.22542 4.559947,-1.92109 11.998795,-1.54596 13.316824,0.67159 13.640731,0.4092 21.046157,-17.0487 4.136485,-9.75192 7.417514,-21.57178 7.291293,-26.26632 -0.156443,-5.81561 -3.189652,-1.13525 -9.517401,14.68729 -5.108208,12.7726 -9.965752,22.6111 -10.794898,21.86333 -0.82879,-0.74776 1.854201,-10.12122 5.961887,-20.82992 8.473502,-22.08896 8.584079,-22.65248 4.441193,-22.65248 -1.665403,0 -5.847754,9.39903 -9.294826,20.8867 -3.446716,11.48768 -7.955819,21.82853 -10.020506,22.97966 -2.463261,1.37341 -2.793924,-0.0192 -0.962122,-4.0466 4.395682,-9.66708 8.936074,-27.97754 8.680433,-35.0083 -0.127999,-3.5284 -2.30504,0.0802 -4.837633,8.0191 -10.108328,31.68839 -16.636253,38.23117 -7.600624,7.61814 4.809189,-16.29445 4.779678,-16.43915 -3.34965,-16.43915 -6.424815,0 -8.94603,2.51896 -11.63791,11.62769 l -3.436053,11.62769 -0.36764,-10.08164 c -0.36764,-10.09322 -11.03382,-18.67157 -11.03382,-8.87422 0,2.69506 1.59998,4.00801 3.55551,2.91767 1.95553,-1.09034 3.55551,0.42235 3.55551,3.36151 0,3.43233 -1.90788,4.6835 -5.33327,3.49761 -3.74573,-1.29669 -5.34962,0.27201 -5.38767,5.27018 -0.0356,3.91409 -1.68922,9.28169 -3.68742,11.92799 -2.60619,3.45171 -2.97063,1.18551 -1.28923,-8.0191 1.28887,-7.0568 2.54824,-13.55227 2.79854,-14.43437 0.24889,-0.8821 -1.14523,-2.32554 -3.10076,-3.20764 -2.0622,-0.93028 -4.85008,7.48907 -6.63779,20.04774 -1.69563,11.90836 -4.60333,21.65157 -6.46179,21.65157 -1.85883,0 -2.44726,-2.64948 -1.30808,-5.88775 3.68956,-10.48773 5.50998,-35.81156 2.5742,-35.81156 -2.42451,0 -11.11241,43.96008 -9.06159,45.85102 2.00851,1.85202 54.519194,-1.78031 53.217165,-3.68118 z m -26.708315,-5.54928 c 0.17067,-3.73674 1.01332,-4.49679 2.14824,-1.93796 1.02719,2.31549 0.90097,5.08208 -0.28088,6.14798 -1.1815,1.06587 -2.02167,-0.82866 -1.86736,-4.21002 z m 10.94743,-10.95945 c 0,-4.4105 0.8071,-6.2148 1.7934,-4.00955 0.9863,2.20526 0.9863,5.81385 0,8.0191 -0.9863,2.20525 -1.7934,0.40096 -1.7934,-4.00955 z m 12.096216,-9.5025 c 1.820779,-13.78926 3.780579,-18.71308 6.32526,-15.89132 0.662748,0.7351 -0.914478,7.832 -3.505026,15.7709 l -4.710345,14.43438 z m -19.207246,3.08722 c 0,-4.4105 0.8071,-6.2148 1.7934,-4.00954 0.9863,2.20525 0.9863,5.81384 0,8.01909 -0.9863,2.20525 -1.7934,0.40096 -1.7934,-4.00955 z m 63.437846,18.77326 c 0,-5.95543 15.080715,-41.52138 16.907183,-39.87355 0.918389,0.82872 -0.909856,8.33761 -4.062887,16.68639 -7.397959,19.58706 -7.050229,21.50972 1.377762,7.62154 8.221417,-13.54749 8.893409,-28.43431 1.959089,-43.40615 -6.901965,-14.90298 -12.996828,-14.29645 -7.273161,0.7238 2.52086,6.61476 3.262185,14.0526 1.678914,16.84011 -1.559448,2.74593 -6.933964,14.01407 -11.942973,25.04033 -7.296982,16.06296 -8.067462,20.04775 -3.875511,20.04775 2.877478,0 5.231584,-1.65611 5.231584,-3.68022 z M -220.07097,183.72602 c 2.0654,-1.70146 -7.42142,-7.32977 -12.46812,-7.3971 -2.02558,-0.0257 -3.68245,2.83687 -3.68245,6.36418 0,4.96741 1.63163,5.9623 7.23796,4.41297 3.98076,-1.10015 7.99173,-2.62118 8.91261,-3.38005 z m 309.432872,2.36602 c 0,-1.66008 -1.599982,-3.91043 -3.555515,-5.00077 -1.955533,-1.09034 -3.555514,0.26784 -3.555514,3.01832 0,2.75043 1.599981,5.00078 3.555514,5.00078 1.955533,0 3.555515,-1.35825 3.555515,-3.01833 z M -185.30159,177.3391 c 11.80004,-1.93886 15.08249,-5.80352 7.11103,-8.37194 -2.44442,-0.7876 -3.12459,-2.70015 -1.5111,-4.25012 1.64052,-1.57601 4.46075,-0.35572 6.39886,2.76848 2.26984,3.65915 7.78053,5.58665 15.9728,5.58665 11.122,0 12.24234,-0.75251 10.1165,-6.79477 -1.72727,-4.9099 -1.05385,-6.39738 2.42735,-5.36212 2.64957,0.78796 5.34465,4.67767 5.98926,8.64382 0.79502,4.89332 2.8885,6.61685 6.513,5.36212 2.93756,-1.01699 7.59137,-1.84905 10.34157,-1.84905 2.75019,0 4.76581,-2.52601 4.47923,-5.61337 -1.07803,-11.60315 0.7687,-16.8401 5.93842,-16.8401 5.70803,0 6.9905,-8.58566 2.7157,-18.18157 -2.07108,-4.64931 -3.08654,-3.53241 -4.86501,5.35101 l -2.24779,11.22674 -0.46826,-10.42483 c -0.47964,-10.68535 -7.37876,-14.92524 -7.82889,-4.81146 -0.21333,4.80004 -0.69261,4.68386 -3.30556,-0.80191 -2.67091,-5.60727 -3.15445,-5.20323 -3.83854,3.20764 l -0.78256,9.62292 -1.48123,-8.82101 c -1.46132,-8.70389 -8.06853,-12.5929 -8.17413,-4.81145 -0.0356,2.67302 -1.20354,2.40572 -3.50112,-0.80191 -2.56921,-3.58643 -3.46058,-1.79712 -3.50111,7.02787 -0.064,13.9173 6.82445,20.12351 7.54089,6.79391 0.4064,-7.56477 0.73137,-7.85243 2.02487,-1.79314 0.84763,3.96945 3.92422,7.21719 6.83689,7.21719 2.91268,0 4.32742,1.41361 3.14379,3.14134 -1.18363,1.72776 -0.39004,6.41893 1.76389,10.42482 3.75391,6.98153 3.68671,7.02534 -1.61314,1.05705 -3.04138,-3.42454 -5.52953,-7.30428 -5.52953,-8.62165 0,-1.31738 -3.19996,-2.17777 -7.11103,-1.91198 -3.91107,0.26591 -7.11103,1.41235 -7.11103,2.54795 0,1.13557 -4.39995,2.1344 -9.77766,2.21959 -34.59054,0.54813 -43.058,3.38689 -30.22188,10.13178 3.42219,1.79824 4.62217,3.26749 2.66664,3.26502 -1.95553,-0.002 -6.59121,-2.07749 -10.30139,-4.61117 -3.71054,-2.53368 -8.20613,-3.79265 -9.99064,-2.7977 -1.78452,0.99498 -0.34844,3.7897 3.19071,6.21053 3.53916,2.42084 4.63071,4.44739 2.42558,4.50353 -2.20478,0.0561 -5.86376,-1.91413 -8.1304,-4.37833 -4.03053,-4.38138 -18.08228,-3.48257 -18.08228,1.15664 0,4.14305 15.76906,9.51456 23.11085,7.87232 3.91106,-0.87489 12.31096,-2.44509 18.66645,-3.48934 z m 20.29807,-10.89561 c -3.8268,-5.58591 0.53155,-6.76889 5.40794,-1.46794 2.80459,3.0485 3.07445,4.88898 0.71679,4.88898 -2.07962,0 -4.83585,-1.53947 -6.12473,-3.42104 z m -59.6402,-0.30473 c 5.50501,-2.0491 11.04983,-3.54046 12.32164,-3.31413 1.27181,0.22614 1.87411,-4.95352 1.33865,-11.51068 -0.53546,-6.55718 -0.25244,-8.31355 0.6279,-3.90305 0.8807,4.4105 3.29597,9.46253 5.36705,11.22674 2.61117,2.22424 3.17437,0.99501 1.83714,-4.00955 -1.06097,-3.96946 -0.47857,-7.21719 1.29385,-7.21719 1.77242,0 3.22272,2.16516 3.22272,4.81146 0,2.6463 1.70771,4.81146 3.79515,4.81146 2.08709,0 2.91837,-2.52602 1.84674,-5.61337 -2.60939,-7.51903 -9.2447,-76.481181 -8.71883,-90.615803 0.2311,-6.174705 2.61117,8.762628 5.29202,33.194092 4.77221,43.492541 13.68162,84.793681 10.59686,49.123671 -1.40834,-16.28617 3.57187,-16.9736 5.58073,-0.77034 0.63964,5.15657 3.33152,10.01877 5.98216,10.8049 7.068,2.09629 1.72975,-18.78066 -6.43904,-25.18215 -4.94145,-3.87245 -7.37911,-13.91265 -10.79739,-44.470642 -2.42806,-21.707953 -5.68989,-43.273905 -7.24862,-47.92434 -2.71997,-8.114621 -2.86326,-8.002899 -3.5605,2.771336 l -0.72603,11.226737 -2.71428,-9.622917 c -2.14113,-7.591327 -2.92086,-4.88254 -3.69347,12.830556 l -0.97919,22.453473 -2.43837,-16.038195 c -1.34114,-8.821008 -2.68975,-12.705266 -2.99694,-8.631693 -0.74346,9.859192 -7.6696,5.684097 -7.6696,-4.623362 0,-5.953923 -1.62879,-7.78231 -6.22215,-6.985051 -5.55123,0.963478 -6.27584,6.020097 -6.7185,46.895265 -0.3584,33.053023 0.63217,45.463793 3.55551,44.553433 2.80886,-0.87479 3.86342,-14.78507 3.43783,-45.342897 -0.33778,-24.244555 0.0853,-43.448336 0.94434,-42.675071 0.85724,0.773298 3.1957,21.471262 5.19674,45.995522 2.00105,24.524256 4.45257,47.476426 5.44776,51.004826 1.63305,5.79159 1.43038,5.87098 -2.08389,0.81664 -3.1228,-4.49137 -4.82625,-4.81191 -8.61287,-1.6207 -2.59624,2.18787 -4.01169,5.64381 -3.14557,7.67993 0.86577,2.03608 -0.13511,4.65486 -2.22326,5.81955 -3.57756,1.99467 -5.57647,17.77715 -2.25171,17.77715 0.85048,0 6.05042,-1.67653 11.55542,-3.72561 z m -9.26567,-7.76842 c 0.17067,-3.73674 1.01332,-4.49679 2.14824,-1.93796 1.02719,2.3155 0.90097,5.08209 -0.28088,6.14799 -1.1815,1.06587 -2.02167,-0.82866 -1.86736,-4.21003 z m 14.22206,-6.41527 c 0.17067,-3.73674 1.01332,-4.49679 2.14824,-1.93796 1.02719,2.31549 0.90097,5.08208 -0.28088,6.14798 -1.1815,1.06587 -2.02167,-0.82866 -1.86736,-4.21002 z m 15.00712,-23.78984 c 0,-9.70311 0.6663,-13.67256 1.48087,-8.82101 0.81492,4.85155 0.81492,12.79046 0,17.64201 -0.81457,4.85156 -1.48087,0.8821 -1.48087,-8.821 z m -9.36167,-5.34608 c -1.30381,-1.17611 -2.23287,-5.86728 -2.06505,-10.42483 0.29867,-8.13649 0.36231,-8.11523 3.43819,1.17528 3.23196,9.76255 2.75516,12.974 -1.37314,9.24955 z m 5.63726,-34.749411 c 0.0391,-7.056806 0.76764,-9.565981 1.61812,-5.575967 0.85012,3.990014 0.81812,9.763764 -0.0711,12.830556 -0.88995,3.066791 -1.58576,-0.197912 -1.54629,-7.254589 z m 112.879768,77.172651 c 0,-2.54218 1.771357,-5.60984 3.93631,-6.81697 2.647436,-1.476 3.153386,0.0321 1.545227,4.60197 -1.820068,5.17376 -1.138832,6.36328 2.852944,4.9814 3.826445,-1.32473 4.517637,-4.13699 2.557482,-10.40466 -3.392316,-10.84637 -0.908789,-19.53288 3.705913,-12.96174 2.043354,2.90936 3.089031,0.34748 3.125297,-7.65616 0.05689,-12.75469 -6.717789,-17.07788 -7.540891,-4.81145 l -0.484261,7.21718 -1.540604,-7.21718 c -2.423439,-11.35033 -8.173772,-8.42381 -6.302861,3.20763 l 1.676781,10.42483 -3.645114,-10.42483 c -4.853991,-13.88259 -6.997251,-13.14577 -6.997251,2.40573 0,9.48239 1.44638,12.83056 5.543046,12.83056 3.048854,0 4.538259,1.46698 3.309828,3.25995 -1.228074,1.79298 -3.53987,2.53154 -5.136651,1.64123 -1.596783,-0.89032 -3.664313,1.97298 -4.594433,6.36292 -1.13208,5.3423 -0.0924,7.98173 3.14912,7.98173 2.66201,0 4.840118,-2.07996 4.840118,-4.62214 z m 53.332717,-1.40139 c 0,-1.30528 -2.482815,-5.17514 -5.517447,-8.59968 -5.311939,-5.99456 -5.440648,-5.92781 -3.456671,1.79266 2.041932,7.94695 2.010643,7.95831 -3.465916,1.26297 -6.634234,-8.11054 -23.115111,-6.89456 -23.115111,1.70547 0,4.32316 3.619159,5.50794 17.777573,5.82001 9.777665,0.21555 17.777572,-0.67614 17.777572,-1.98143 z m -65.777015,-6.80702 c 1.20852,-1.7642 0.5031,-3.20764 -1.56798,-3.20764 -2.07074,0 -3.76529,1.44344 -3.76529,3.20764 0,1.7642 0.70541,3.20764 1.56798,3.20764 0.86221,0 2.55677,-1.44344 3.76529,-3.20764 z m -51.13435,-12.02865 0.42062,-8.82101 2.71428,9.62292 2.71428,9.62292 0.42062,-11.62769 c 0.37831,-10.4631 -0.49955,-11.62769 -8.76648,-11.62769 -7.63333,0 -8.84434,1.15298 -7.15974,6.81623 1.11537,3.74893 2.0494,8.62053 2.07607,10.82578 0.0995,8.17669 7.17503,3.68529 7.58035,-4.81146 z m 89.142086,-8.82101 c -0.798924,-6.1747 -2.077843,-11.22673 -2.841567,-11.22673 -0.763725,0 -1.388784,5.05203 -1.388784,11.22673 0,6.17471 1.278563,11.22674 2.841567,11.22674 1.563004,0 2.187708,-5.05203 1.388784,-11.22674 z m 9.729665,-2.42779 c -1.811534,-5.69825 -3.118186,-14.70026 -2.903788,-20.00451 0.319996,-7.93445 0.932611,-7.1489 3.453827,4.43135 4.309994,19.79646 8.280437,21.32477 5.098963,1.96276 -1.449228,-8.82101 -3.14343,-27.365364 -3.764579,-41.209662 -1.522827,-33.937269 -5.177896,-35.415029 -5.177896,-2.093466 0,29.649268 -2.676946,33.899038 -3.918177,6.220414 -0.847279,-18.892961 -6.008464,-37.20858 -6.498413,-23.060518 -0.138665,3.969453 -2.155709,7.217188 -4.484926,7.217188 -2.329574,0 -1.129587,2.137731 2.666635,4.750513 5.979665,4.115978 6.189085,5.187073 1.568338,8.019097 -3.862,2.366789 -4.195507,3.935196 -1.209942,5.684706 2.268063,1.328861 5.272117,14.680658 6.675834,29.670658 2.716058,29.00306 3.909644,33.16449 8.739811,30.47126 1.677136,-0.93509 1.566559,-6.35915 -0.245331,-12.05979 z M 246.66533,96.890746 c 2.14291,-3.969453 6.02589,-7.217188 8.62888,-7.217188 5.98535,0 6.1905,-5.346973 0.28799,-7.507607 -3.34467,-1.224324 -3.12458,-2.468952 0.88888,-5.029642 4.50057,-2.871414 4.22289,-3.41806 -1.77775,-3.500945 -5.45559,-0.07538 -5.96651,-0.75232 -2.19411,-2.907661 4.15995,-2.376925 4.11088,-3.847756 -0.32,-9.553408 -2.87961,-3.709185 -6.29255,-5.790846 -7.58356,-4.625928 -1.29136,1.164918 -2.3477,0.433993 -2.3477,-1.62422 0,-2.058246 1.61349,-3.742256 3.58573,-3.742256 2.15642,0 1.86061,-2.491791 -0.74239,-6.252202 -3.05881,-4.418683 -5.59247,-5.305595 -8.63919,-3.024322 -3.22734,2.416346 -3.85702,1.367256 -2.50486,-4.172626 1.44354,-5.912801 1.0407,-6.433272 -2.00282,-2.589045 -4.8195,6.087072 -5.03141,18.246814 -0.36302,20.849653 1.95554,1.090341 3.50468,3.701551 3.44245,5.802683 -0.0604,2.101132 -2.58414,0.933359 -5.6042,-2.595044 -3.55267,-4.150621 -4.91052,-10.503735 -3.84706,-17.9971 1.35642,-9.558123 -0.0711,-13.042228 -8.17235,-19.940063 l -9.81607,-8.358305 -2.35517,18.780277 c -2.83197,22.582612 5.55549,43.410069 16.4471,40.840557 3.92742,-0.926558 6.34979,0.265914 6.34979,3.125973 0,3.577672 1.55625,3.872647 6.87743,1.30352 10.03366,-4.844593 11.50885,-4.118608 6.48597,3.19266 -3.69987,5.385433 -3.55125,7.043109 0.85866,9.573808 3.54449,2.03406 3.84244,3.07712 0.88888,3.109773 -2.69117,0.02887 -4.33382,4.161367 -4.16387,10.473932 0.15289,5.73366 1.07164,8.25967 2.03802,5.61337 0.96639,-2.6463 3.51036,-8.05919 5.65327,-12.028644 z m 13.36127,3.616804 c 0,-3.989981 -1.11323,-4.370695 -4.7715,-1.63166 -2.62433,1.9649 -5.82429,2.62279 -7.11103,1.46198 -1.28674,-1.160847 -2.33953,-0.426586 -2.33953,1.63163 0,2.05824 3.19996,3.74225 7.11103,3.74225 4.18911,0 7.11103,-2.13843 7.11103,-5.2042 z m 5.98428,-11.435424 c -1.13492,-2.55883 -1.97757,-1.79878 -2.14824,1.937959 -0.15289,3.381365 0.68622,5.275893 1.86771,4.210027 1.1815,-1.065899 1.30772,-3.832488 0.28089,-6.147986 z M 92.235824,34.903123 c -0.700792,-1.896517 -2.793923,-3.448212 -4.65168,-3.448212 -1.857756,0 -3.951243,1.551695 -4.651679,3.448212 -0.700792,1.896516 1.392339,3.448212 4.651679,3.448212 3.259341,0 5.352472,-1.551696 4.65168,-3.448212 z M -215.71724,28.161564 c 16.63305,-4.495827 38.86497,-23.0646246 48.9349,-40.872314 8.56203,-15.140761 9.05981,-19.505973 2.22362,-19.505973 -5.99175,0 -26.96502,-23.001691 -26.96502,-29.573116 0,-2.525952 -3.88049,-7.88133 -8.62284,-11.900854 -27.29142,-23.130317 -15.91555,-97.932777 20.34075,-133.754377 l 17.05153,-16.84678 -15.27378,-0.99353 c -8.40026,-0.54642 -23.59688,-0.50305 -33.76992,0.0962 l -18.4965,1.08989 -1.93668,13.34448 c -3.65827,25.20339 -4.44191,242.690676 -0.87466,242.690676 1.88336,0 9.70798,-1.698509 17.3886,-3.774493 z m 502.18869,-41.934363 c -6.39957,-18.63603 -13.86438,-30.504871 -18.23375,-28.992181 -2.64672,0.916294 -4.65559,-0.61237 -4.65559,-3.542933 0,-2.835072 -1.92744,-4.793785 -4.28297,-4.352734 -2.35553,0.44105 -4.35551,-0.882101 -4.44439,-2.940347 -0.17778,-4.092241 -4.70786,-9.022158 -8.45751,-9.201946 -1.3038,-0.06255 -5.73753,-1.805099 -9.85233,-3.872358 -7.83635,-3.936575 -54.73963,-9.40515 -54.73963,-6.382207 0,0.959437 10.35472,6.115973 23.01093,11.458937 26.14228,11.036556 26.90529,11.529698 56.53837,36.538408 23.71315,20.0125241 28.91593,22.3506363 25.11687,11.287361 z M -177.30169,-57.68852 c 0,-1.660082 -1.59998,-3.910433 -3.55551,-5.000773 -1.95553,-1.090341 -3.55551,0.267837 -3.55551,3.018324 0,2.750422 1.59998,5.000773 3.55551,5.000773 1.95553,0 3.55551,-1.358243 3.55551,-3.018324 z m 12.15382,-13.289826 c -0.64781,-1.03055 -2.13224,-6.760452 -3.29881,-12.733108 -1.16621,-5.972623 -2.43588,-11.059746 -2.8213,-11.304682 -3.85026,-2.44746 -27.36679,-3.437145 -27.36679,-1.151702 0,1.653281 5.99993,3.028075 13.33318,3.055083 9.87508,0.03625 11.95008,0.849351 7.9999,3.134409 -2.93329,1.696937 -8.13323,2.299267 -11.55542,1.338548 -3.42218,-0.960688 -6.22215,-0.962645 -6.22215,-0.0032 0,4.096219 13.2482,20.952715 15.13192,19.253276 1.13812,-1.026862 4.05044,1.472145 6.47139,5.553353 4.23284,7.13504 4.50021,7.176451 6.95423,1.076644 1.40372,-3.489077 2.02202,-7.18694 1.37385,-8.21749 z M -2.2565958,-84.982641 c 4.1976404,-6.766996 0.5507492,-10.703378 -5.1508739,-5.55964 -2.3139288,2.087627 -6.4013483,3.795695 -9.0832733,3.795695 -2.681924,0 -7.021074,1.935073 -9.64291,4.300161 -3.985021,3.59509 -2.695436,4.186707 7.864087,3.608337 7.575023,-0.414876 13.9845491,-2.874365 16.0129702,-6.144553 z M -108.85803,-213.96886 c -2.44442,-0.88983 -6.44437,-0.88983 -8.88879,0 -2.44441,0.88983 -0.44444,1.6179 4.4444,1.6179 4.88883,0 6.8888,-0.72807 4.44439,-1.6179 z m 326.21845,409.68382 c 0,-1.66008 1.59998,-3.91043 3.55552,-5.00077 1.95553,-1.09034 3.55551,0.26783 3.55551,3.01832 0,2.75042 -1.59998,5.00077 -3.55551,5.00077 -1.95554,0 -3.55552,-1.35824 -3.55552,-3.01832 z M 194.4782,174.01243 c -1.92958,-4.57153 -1.52105,-4.93996 1.99038,-1.79564 2.42983,2.17587 3.52244,4.76411 2.4277,5.75171 -1.09474,0.9876 -3.08299,-0.79263 -4.41808,-3.95607 z m 59.87557,-1.43587 c -1.57189,-2.29442 -0.97527,-2.83254 1.56799,-1.4145 4.06573,2.26683 5.84775,-4.89396 4.71354,-18.93954 -0.45759,-5.66755 -0.10666,-5.79037 3.01223,-1.05397 1.94203,2.94875 2.8405,8.7225 1.99678,12.83056 -0.84372,4.10809 -1.6526,8.55182 -1.79802,9.87497 -0.40675,3.70329 -6.6513,2.8497 -9.49252,-1.29752 z m -61.88195,-18.10869 c 0,-3.37338 7.72222,-10.26445 11.5028,-10.26445 1.63305,0 1.25688,2.88688 -0.83625,6.41528 -3.75818,6.33489 -10.66655,8.82793 -10.66655,3.84917 z m 177.77573,-16.67973 c 0,-3.5284 0.61332,-6.41527 1.36318,-6.41527 0.7495,0 2.1998,2.88687 3.22236,6.41527 1.02293,3.52841 0.4096,6.41528 -1.36282,6.41528 -1.77243,0 -3.22272,-2.88687 -3.22272,-6.41528 z M -34.800576,123.08648 c 0.170665,-3.73674 1.013322,-4.49679 2.148242,-1.93796 1.027188,2.31549 0.900968,5.08208 -0.280885,6.14798 -1.181498,1.06587 -2.021666,-0.82866 -1.867357,-4.21002 z m 121.916459,1.91149 c -5.333983,-1.9428 -8.093062,-6.39622 -9.312959,-15.03295 -1.695269,-12.001928 3.556581,-23.067705 6.96632,-14.678093 0.896345,2.205251 4.970253,4.009548 9.053406,4.009548 4.082797,0 10.25624,2.312615 13.71824,5.139115 3.46201,2.82654 10.38673,5.35256 15.38827,5.61337 11.69835,0.61006 11.4548,2.50793 -1.42363,11.09776 -10.98974,7.32997 -21.581973,8.51618 -34.389647,3.85125 z m 9.357048,-6.45566 c 0,-1.7642 3.199963,-3.20764 7.111029,-3.20764 3.91107,0 7.11103,-1.44344 7.11103,-3.20764 0,-1.7642 -2.26913,-3.20764 -5.04243,-3.20764 -2.7733,0 -7.758135,-0.94006 -11.076852,-2.08904 -4.891321,-1.69328 -5.574691,-0.78176 -3.606714,4.81146 1.449583,4.12025 0.898479,6.9005 -1.367451,6.9005 -2.087442,0 -3.795156,-1.68401 -3.795156,-3.74226 0,-2.05821 -0.960344,-2.87597 -2.133664,-1.81722 -3.238363,2.92152 1.880156,8.76712 7.676711,8.76712 2.818101,0 5.123497,-1.44344 5.123497,-3.20764 z M 191.52001,72.816582 c -0.94186,-2.214554 0.288,-5.711522 2.73064,-7.771019 3.47338,-2.927323 4.44332,-2.048559 4.44332,4.026421 0,8.242317 -4.30501,10.489396 -7.17396,3.744598 z m -59.76393,0.229987 c -0.14933,-0.558225 -0.85297,-3.81693 -1.56301,-7.241565 -0.71003,-3.424636 -2.21793,-9.559246 -3.35107,-13.632466 -1.13314,-4.073285 -0.48035,-7.405925 1.45136,-7.405925 1.93136,0 2.52157,-2.327431 1.31163,-5.172094 -1.86522,-4.385259 -0.36088,-4.8155 9.88931,-2.828143 16.32835,3.165908 23.65342,6.938476 28.13265,14.489034 4.78075,8.058904 -0.49137,8.360262 -6.03975,0.345206 -4.62075,-6.674808 -21.53042,-10.921786 -23.39493,-5.875721 -0.65706,1.778443 2.60548,6.661689 7.2497,10.851667 10.23454,9.233125 8.83972,15.108236 -3.91036,16.469943 -5.22696,0.558226 -9.62584,0.558226 -9.77553,0 z m 13.08678,-11.372972 c -3.61454,-3.260598 -6.59655,1.648373 -3.63125,5.97705 2.24033,3.269931 3.07766,3.272465 4.28191,0.01283 0.82346,-2.228635 0.53084,-4.924142 -0.65066,-5.990009 z m -574.85025,4.744579 c -1.47447,-4.475298 -2.40424,-15.901678 -1.05883,-13.010761 0.98025,2.106168 3.91711,3.090335 6.5265,2.187064 2.60904,-0.903271 5.86624,-0.0032 7.23796,1.998552 1.58398,2.312098 0.0924,3.269899 -4.08457,2.624394 -3.79765,-0.586677 -6.20331,0.678768 -5.69025,2.993112 0.71395,3.220726 -1.96158,6.149108 -2.93081,3.207639 z m 800.81635,-5.613368 c 0,-4.410504 0.8071,-6.214801 1.7934,-4.009549 0.9863,2.205252 0.9863,5.813845 0,8.019097 -0.9863,2.205252 -1.7934,0.400955 -1.7934,-4.009548 z m -663.28443,-8.281451 c -3.24618,-7.631582 -2.49775,-9.976783 1.45172,-4.549105 3.11214,4.276841 3.89009,4.276841 7.00223,0 3.94947,-5.427678 4.6979,-3.082477 1.45172,4.549105 -1.18683,2.790614 -3.41579,5.073812 -4.95283,5.073812 -1.53705,0 -3.76601,-2.283198 -4.95284,-5.073812 z m 147.17341,2.40079 c 0,-2.058246 -2.32743,-3.742256 -5.1722,-3.742256 -5.3187,0 -11.8516,-20.994992 -7.69876,-24.74145 1.21243,-1.093901 2.20442,1.138583 2.20442,4.960999 0,3.822447 2.22646,6.949895 4.94786,6.949895 4.9834,0 11.29942,15.280294 7.6696,18.555133 -1.07306,0.967937 -1.95092,0.07602 -1.95092,-1.982321 z m 338.3353,-6.949895 c 0,-4.410504 0.8071,-6.214801 1.7934,-4.009549 0.9863,2.205252 0.9863,5.813846 0,8.019097 -0.9863,2.205252 -1.7934,0.400955 -1.7934,-4.009548 z m 85.49519,-16.184079 c -2.38717,-3.44818 -2.89775,-6.269394 -1.13492,-6.269394 3.19214,0 8.68932,9.63857 6.58197,11.539962 -0.60906,0.549372 -3.06023,-1.822388 -5.44705,-5.270568 z m 104.56555,2.766589 c 1.02683,-1.49893 3.3564,-1.894913 5.17683,-0.879888 4.65203,2.593761 4.1283,3.605258 -1.86701,3.605258 -2.84725,0 -4.33666,-1.226408 -3.30982,-2.72537 z m -671.46852,-7.68438 c -1.22878,-1.793969 -0.76443,-5.357976 1.03217,-7.920046 5.6714,-8.08803 3.40938,-11.3654989 -3.04139,-4.406462 -6.07033,6.548716 -6.18339,6.434812 -6.3601,-6.415278 -0.0996,-7.19531159 0.45262,-10.5563719 1.22594,-7.46901942 1.6046,6.40847782 7.94017,7.66231182 8.10337,1.60381952 0.0605,-2.26244404 1.66505,-1.59961752 3.68103,1.5211586 3.84884,5.9581894 -0.73919,28.7813103 -4.64102,23.0858273 z m -120.03559,-40.032586 c 0,-1.868321 1.59998,-2.504845 3.55552,-1.414505 1.95553,1.090341 3.55551,2.618973 3.55551,3.396954 0,0.777981 -1.59998,1.4145049 -3.55551,1.4145049 -1.95554,0 -3.55552,-1.5286329 -3.55552,-3.3969539 z m 323.748441,-10.235512 c -14.840362,-14.284707 -14.570498,-22.019896 0.692259,-19.84316 24.67456,3.519068 48.888324,8.934686 48.888324,10.934328 0,1.152376 -4.487415,5.973875 -9.972151,10.714444 -13.584554,11.7413061 -26.128765,11.169448 -39.608432,-1.805612 z m 31.803011,-5.239261 c 0,-2.884822 -11.841641,-6.666244 -21.123667,-6.745601 -3.636581,-0.03208 -3.12032,1.32344 1.777757,4.665672 7.659645,5.226623 19.34591,6.483055 19.34591,2.079929 z m 416.275728,-2.245219 c 0.17066,-3.736739 1.01332,-4.496789 2.14824,-1.937959 1.02719,2.315498 0.90097,5.082087 -0.28089,6.147985 -1.18149,1.065866 -2.02166,-0.828661 -1.86735,-4.210026 z m 7.05592,-1.745693 c -0.32,-7.380682 8.94958,-13.985884 12.45176,-8.873902 1.68283,2.456539 1.14097,3.021115 -1.49153,1.553492 -2.48709,-1.386823 -5.4499,0.652402 -7.43494,5.117788 -2.17206,4.886357 -3.37703,5.639126 -3.52529,2.202622 z m -794.07546,-9.006602 c -1.09438,-3.775936 0.33422,-6.947168 3.64974,-8.094605 7.1665,-2.480884 10.91934,1.06237 4.7619,4.495602 -2.63819,1.471024 -3.69738,4.279408 -2.35375,6.240879 1.34363,1.961439 0.93546,3.566253 -0.90772,3.566253 -1.84283,0 -4.16031,-2.793661 -5.15017,-6.208129 z m 813.77158,0.327468 c -1.00727,-1.470189 0.42809,-2.673054 3.1893,-2.673054 2.76121,0 4.19657,1.202865 3.1893,2.673054 -1.00728,1.470157 -2.44229,2.673022 -3.1893,2.673022 -0.74701,0 -2.18202,-1.202865 -3.1893,-2.673022 z M -58.287949,-51.602635 c -1.155898,-1.687153 -1.33794,-3.067561 -0.404617,-3.067561 0.933322,0 4.227506,-0.876134 7.320804,-1.947005 3.093298,-1.070838 5.624113,-0.503567 5.624113,1.260634 0,4.487616 -9.989218,7.477873 -12.5403,3.753932 z M 392.9296,-52.679599 c 0.4487,-2.756902 1.80833,-5.908311 3.02183,-7.003142 1.21385,-1.0948 1.83962,0.264951 1.39127,3.021948 -0.44871,2.756902 -1.80833,5.908311 -3.02219,7.003142 -1.21349,1.0948 -1.83926,-0.264951 -1.39091,-3.021948 z m -14.38597,-3.453312 c 0,-2.56871 1.35963,-3.91239 3.02112,-2.985992 1.66149,0.926399 2.10024,3.028044 0.97528,4.670355 -2.87499,4.196811 -3.9964,3.724261 -3.9964,-1.684363 z m -794.06479,-5.141878 c 0,-1.868321 1.59998,-2.504845 3.55552,-1.414504 1.95553,1.09034 3.55551,2.618973 3.55551,3.396953 0,0.777981 -1.59998,1.414505 -3.55551,1.414505 -1.95554,0 -3.55552,-1.528632 -3.55552,-3.396954 z m 794.30194,-14.196465 c 0,-5.293727 2.15322,-6.901267 9.24434,-6.901267 7.22089,0 9.24434,1.58236 9.24434,7.228703 0,3.975772 -1.30594,6.500473 -2.90237,5.610417 -1.59643,-0.890055 -2.05011,-2.86224 -1.0087,-4.382629 2.54646,-3.717365 -4.38359,-7.323489 -9.06158,-4.715197 -2.56815,1.431954 -2.58557,3.320516 -0.0569,6.069976 2.60441,2.830869 2.3445,3.991297 -0.89386,3.991297 -2.51126,0 -4.56563,-3.105572 -4.56563,-6.9013 z m -790.74642,1.555224 c 0,-1.764201 1.59998,-3.207639 3.55551,-3.207639 1.95554,0 3.55552,1.443438 3.55552,3.207639 0,1.764202 -1.59998,3.207639 -3.55552,3.207639 -1.95553,0 -3.55551,-1.443437 -3.55551,-3.207639 z m 324.606738,-10.684774 c -8.219994,-3.826488 -15.019918,-7.851241 -15.110938,-8.943891 -0.28088,-3.375207 35.666434,-2.916578 42.839329,0.546549 7.889687,3.809328 9.098917,12.666838 1.729402,12.666838 -2.773301,0 -7.17325,0.604736 -9.777665,1.343873 -2.604414,0.739136 -11.46049,-1.78688 -19.680128,-5.613369 z M 379.2942,-89.723916 c -1.12852,-1.647059 -0.4256,-3.901291 1.56194,-5.009434 5.25042,-2.927548 4.4451,-8.86184 -0.83093,-6.12265 -2.44441,1.269075 -3.25827,1.126207 -1.80869,-0.31755 1.44958,-1.4437 1.07519,-4.3214 -0.83234,-6.39494 -2.38184,-2.58911 -1.87732,-3.77007 1.611,-3.77007 2.79357,0 4.7683,1.56372 4.38786,3.47493 -0.38008,1.91121 1.70878,3.47493 4.64208,3.47493 2.9333,0 4.79994,-2.16515 4.14822,-4.81145 -0.65208,-2.64631 0.0604,-3.68709 1.58434,-2.31291 3.75711,3.38958 5.02749,12.366544 1.46913,10.38259 -1.56229,-0.87107 -5.0218,0.83575 -7.68773,3.792934 -4.22395,4.68543 -4.06182,5.111308 1.26114,3.312432 3.35961,-1.135375 7.21592,-0.323041 8.56986,1.805131 1.35394,2.128205 1.19465,2.83767 -0.35555,1.576587 -1.54843,-1.261051 -5.70767,-0.896311 -9.24292,0.810602 -3.95586,1.909893 -7.21698,1.95172 -8.47955,0.108739 z m -666.5363,-8.516699 c 0.17066,-3.736735 1.01332,-4.496785 2.14824,-1.937955 1.02719,2.315526 0.90096,5.082115 -0.28089,6.147981 -1.1815,1.065867 -2.02166,-0.828661 -1.86735,-4.210026 z m 219.730436,-6.307565 c -6.297883,-5.68159 -15.209425,-6.77335 -28.013188,-3.43182 -8.493418,2.21654 -8.584438,2.10014 -2.049043,-2.61699 12.102971,-8.73549 30.178496,-9.93559 38.367912,-2.54744 3.965466,3.57771 6.12153,8.09397 4.791056,10.03609 -3.289206,4.801616 -6.579124,4.439922 -13.096737,-1.43984 z m 41.054814,-5.03814 c -1.102565,-1.60931 -3.280317,-2.21478 -4.83941,-1.34551 -1.558738,0.86927 -5.69629,-1.27234 -9.19385,-4.75914 -3.497915,-3.4868 -5.311583,-6.52007 -4.030887,-6.7406 1.281052,-0.22036 3.567959,-0.58138 5.082253,-0.80191 10.753653,-1.56584 29.9793869,-23.05144 34.0849395,-38.09071 2.7036132,-9.90513 -3.127075,-12.32446 -6.5122805,-2.70205 -1.183986,3.36542 -4.539681,6.94531 -7.457336,7.95533 -4.103064,1.42047 -5.144829,-0.51021 -4.600125,-8.52469 0.387196,-5.69856 -0.532616,-13.77957 -2.04442,-17.95774 -3.675691,-10.15997 5.160473,-7.77942 11.278803,3.03853 l 4.391771,7.76579 0.07467,-8.0191 0.07467,-8.01909 5.3115828,9.18767 c 7.7460439,13.39956 6.610057,21.38905 -5.4897148,38.60134 l -10.800586,15.36478 14.356101,-2.18819 c 14.8040957,-2.25641 18.124591,0.87832 11.2667143,10.63634 -3.76315656,5.35458 -28.2311403,10.57106 -30.9521763,6.59895 z m 37.10535,-4.33442 c -1.0218553,-0.922 2.44726,-9.71292 7.709422,-19.53539 10.090194,-18.83381 10.145305,-36.27923 0.124443,-39.29265 -3.352139,-1.00812 -4.208307,0.19278 -2.686547,3.76972 1.227719,2.88703 0.643192,5.24914 -1.299185,5.24914 -3.327962,0 -11.2965807,-13.88629 -11.9468843,-20.81816 -0.1635537,-1.74688 -5.0978967,-4.10212 -10.9644956,-5.23384 -10.5136561,-2.02822 -10.5300121,-2.06318 -1.1427424,-2.43722 9.37375841,-0.37357 20.6980723,6.66743 20.6980723,12.86946 0,1.74229 1.604248,2.27332 3.565114,1.18003 4.963143,-2.76723 -2.329928,-14.42902 -9.0235401,-14.42902 -2.8643225,0 -5.20811761,-1.62791 -5.20811761,-3.61761 0,-4.78211 -28.99059829,-0.73368 -32.72744429,4.57028 -3.026454,4.29551 -3.517826,3.10967 -4.161019,-10.04097 -0.24533,-4.99859 1.155543,-9.10203 3.111076,-9.11874 1.955533,-0.016 7.355648,-1.13368 12.000572,-2.48207 5.7802,-1.67795 7.685245,-1.3425 6.037619,1.06288 -1.530293,2.23396 -0.309329,2.78837 3.349295,1.52154 14.4712995,-5.00982 -16.20248,-13.34371 -50.720481,-13.78049 -8.311015,-0.10522 -15.110937,-1.42577 -15.110937,-2.93467 0,-1.50891 6.799922,-2.34107 15.110937,-1.84927 8.311015,0.49183 23.910835,1.01008 34.666266,1.15164 19.4995085,0.25661 19.6043962,0.3121 36.7487315,19.44968 20.1469675,22.48939 29.4051715,49.23475 23.4550185,67.75746 -3.668936,11.42044 -18.410455,29.85231 -21.585173,26.98827 z m 103.602,-4.01234 c 0,-4.03601 10.16309,-12.03634 12.55204,-9.88104 0.94256,0.85028 -1.49616,4.16657 -5.41932,7.36952 -3.9228,3.20296 -7.13272,4.33314 -7.13272,2.51152 z m 269.16987,-6.50326 c -1.75251,-8.23026 -0.60764,-13.22751 2.32673,-10.15754 3.33685,3.49088 5.58963,18.97854 2.76015,18.97854 -1.7646,0 -4.054,-3.96945 -5.08688,-8.821 z m -12.61141,-4.00955 c 0,-4.41051 0.8071,-6.2148 1.7934,-4.00955 0.9863,2.20525 0.9863,5.81384 0,8.0191 -0.9863,2.20525 -1.7934,0.40095 -1.7934,-4.00955 z m -658.33159,0 c 0,-1.7642 1.59998,-3.20764 3.55551,-3.20764 1.95553,0 3.55551,1.44344 3.55551,3.20764 0,1.7642 -1.59998,3.20764 -3.55551,3.20764 -1.95553,0 -3.55551,-1.44344 -3.55551,-3.20764 z m 424.88398,-6.41528 c 1.20852,-1.7642 2.90307,-3.20764 3.76529,-3.20764 0.86257,0 1.56798,1.44344 1.56798,3.20764 0,1.7642 -1.69456,3.20764 -3.76529,3.20764 -2.07109,0 -2.7765,-1.44344 -1.56798,-3.20764 z m 229.33068,-8.0191 c 0,-2.6463 1.59998,-4.81146 3.55552,-4.81146 1.95553,0 3.55551,2.16516 3.55551,4.81146 0,2.6463 -1.59998,4.81146 -3.55551,4.81146 -1.95554,0 -3.55552,-2.16516 -3.55552,-4.81146 z m -211.55311,-1.60382 c 1.20852,-1.7642 2.90308,-3.20764 3.76529,-3.20764 0.86257,0 1.56798,1.44344 1.56798,3.20764 0,1.7642 -1.69456,3.20764 -3.76529,3.20764 -2.07109,0 -2.7765,-1.44344 -1.56798,-3.20764 z m 8.88879,-4.46827 c 0,-0.69336 2.48317,-2.12025 5.5178,-3.17091 3.16441,-1.09538 4.59159,-0.55765 3.34574,1.26063 -2.0878,3.04793 -8.86354,4.50818 -8.86354,1.91028 z m 24.8886,0.0497 c 0,-0.6661 2.79997,-3.19212 6.22215,-5.61337 5.6394,-3.98989 5.76491,-3.87643 1.34256,1.21104 -4.64492,5.34313 -7.56471,7.04231 -7.56471,4.40233 z m -328.29239,-7.34264 c -3.27498,-2.95443 -2.99303,-8.21011 0.34133,-6.35141 1.49118,0.83145 6.69112,-0.53857 11.55542,-3.04441 l 8.84399,-4.55613 -9.82389,1.9881 c -5.82037,1.17791 -12.03079,0.33571 -15.23929,-2.06675 -4.50875,-3.37585 -7.17432,-2.535 -15.91661,5.02134 -5.77558,4.99188 -11.53303,8.14509 -12.79452,7.00715 -3.17152,-2.86147 5.91246,-21.82257 9.49749,-19.82366 1.59322,0.88845 3.91817,0.12478 5.16616,-1.69694 1.24799,-1.82174 3.90609,-2.39957 5.90678,-1.28405 2.00068,1.11552 8.47456,-3.2655 14.38596,-9.73563 12.75043,-13.95512 17.65811,-13.05872 6.05042,1.10519 -9.16754,11.18667 -7.8264,13.8502 7.37485,14.64576 25.530372,1.33614 28.503493,1.85469 28.503493,4.97107 0,1.80786 -3.844577,4.60569 -8.543193,6.2174 -4.69896,1.61171 -9.59349,4.46288 -10.87667,6.33589 -2.56175,3.7395 -20.65078,4.67767 -24.43136,1.26708 z m 317.62584,0.92736 c 0,-0.6661 2.79997,-3.19211 6.22215,-5.61337 5.63941,-3.98992 5.76492,-3.87646 1.34257,1.21105 -4.64493,5.34312 -7.56472,7.0423 -7.56472,4.40232 z m 24.88861,-1.618 c 0,-1.7642 1.59998,-4.09971 3.55551,-5.19005 1.95553,-1.09034 3.55551,-0.53898 3.55551,1.22522 0,1.7642 -1.59998,4.09971 -3.55551,5.19005 -1.95553,1.09034 -3.55551,0.53898 -3.55551,-1.22522 z m 20.66642,-8.98504 c 2.56673,-0.92663 5.63336,-0.81266 6.81486,0.25308 1.1815,1.06587 -0.91875,1.82399 -4.66661,1.68472 -4.14218,-0.15397 -4.98448,-0.91399 -2.14825,-1.93796 z m -303.351871,-19.62415 c 0.149332,-10.05408 1.507894,-20.08447 3.021832,-22.28972 1.514293,-2.20525 1.764246,-5.45299 0.555727,-7.21719 -1.20852,-1.7642 -0.597327,-3.20764 1.358206,-3.20764 1.955533,0 4.560303,1.46699 5.788733,3.25996 1.228075,1.79297 3.702358,2.44079 5.498248,1.43956 1.795535,-1.00124 5.471581,0.0394 8.16915,2.31248 4.134708,3.48475 4.144308,4.64238 0.06044,7.38145 -4.075331,2.73252 -4.024487,4.66558 0.319996,12.16879 6.594768,11.38991 3.581825,21.43941 -3.845644,12.82561 -4.589814,-5.32314 -4.775412,-5.32949 -2.754457,-0.0943 1.213141,3.14278 0.434483,5.61337 -1.769224,5.61337 -2.164598,0 -3.960133,-4.69117 -3.990354,-10.42483 -0.06044,-11.5091 -5.200651,-21.18738 -9.292693,-17.49565 -1.442828,1.30147 -0.729592,4.07434 1.584337,6.162 5.601358,5.05341 5.365627,20.10581 -0.382573,24.40959 -3.662891,2.74237 -4.53577,-0.25629 -4.321017,-14.84351 z m 457.186191,13.52893 c 0.17066,-3.73674 1.01332,-4.49679 2.14824,-1.93796 1.02719,2.3155 0.90097,5.08208 -0.28089,6.14798 -1.1815,1.06587 -2.02166,-0.82866 -1.86735,-4.21002 z m -778.93821,-14.7017 c 0,-1.47016 1.50541,-2.67303 3.34574,-2.67303 1.83998,0 4.16955,1.20287 5.17683,2.67303 1.00728,1.47019 -0.49848,2.67305 -3.34574,2.67305 -2.84726,0 -5.17683,-1.20286 -5.17683,-2.67305 z m 354.254399,-5.07875 c -4.297906,-7.53003 -4.311417,-9.42633 -0.09244,-12.95704 2.719257,-2.27479 5.106074,-3.71823 5.304472,-3.20764 1.37634,3.54146 2.497393,24.98568 1.306651,24.98568 -0.816701,0 -3.750356,-3.96945 -6.519746,-8.821 z m 419.695421,4.32316 c -2.53508,-5.95957 0.53333,-8.33271 10.77392,-8.33271 7.04596,0 7.68062,0.74093 3.85169,4.49544 -2.52157,2.47248 -5.11781,3.1942 -5.76954,1.60382 -0.65208,-1.59038 -2.60157,-2.89162 -4.3331,-2.89162 -1.73118,0 -2.22646,2.16515 -1.10079,4.81145 1.12568,2.64631 1.24657,4.81146 0.27022,4.81146 -0.97777,0 -2.6389,-2.02402 -3.69098,-4.49784 z m -1.84176,-17.95563 c 0,-4.4105 0.8071,-6.2148 1.7934,-4.00955 0.9863,2.20525 0.9863,5.81385 0,8.0191 -0.9863,2.20525 -1.7934,0.40095 -1.7934,-4.00955 z m -770.3303,-12.83056 c 1.20852,-1.7642 2.90308,-3.20763 3.76529,-3.20763 0.86257,0 1.56798,1.44343 1.56798,3.20763 0,1.76421 -1.69456,3.20764 -3.76529,3.20764 -2.07109,0 -2.7765,-1.44343 -1.56798,-3.20764 z m -26.13303,-6.25489 c 1.5278,-4.13507 6.40455,-4.87786 6.84436,-1.04248 0.14578,1.27904 -1.65331,2.90291 -3.99995,3.60859 -2.34664,0.70568 -3.62663,-0.44907 -2.84441,-2.56611 z m 810.12397,-8.17948 c 0,-2.6463 1.59999,-4.81146 3.55552,-4.81146 1.95553,0 3.55551,2.16516 3.55551,4.81146 0,2.6463 -1.59998,4.81146 -3.55551,4.81146 -1.95553,0 -3.55552,-2.16516 -3.55552,-4.81146 z m -7.11102,-4.81146 c 0,-3.5284 1.45029,-6.41528 3.22271,-6.41528 1.77243,0 2.38575,2.88688 1.36283,6.41528 -1.02256,3.5284 -2.47286,6.41528 -3.22236,6.41528 -0.74986,0 -1.36318,-2.88688 -1.36318,-6.41528 z m 16.18754,-12.55659 c -1.14487,-1.67109 -0.56604,-3.88333 1.28639,-4.91609 1.85242,-1.0328 4.3043,-0.51056 5.44918,1.16052 1.14487,1.67108 0.56604,3.88333 -1.28639,4.91609 -1.85242,1.0328 -4.3043,0.51056 -5.44918,-1.16052 z m -14.40979,-3.4816 c -1.20852,-1.76421 -0.5031,-3.20764 1.56798,-3.20764 2.07074,0 3.76529,1.44343 3.76529,3.20764 0,1.7642 -0.70541,3.20763 -1.56798,3.20763 -0.86221,0 -2.55677,-1.44343 -3.76529,-3.20763 z m -666.37843,-8.28639 c 0.17066,-3.73674 1.01332,-4.49679 2.14824,-1.93796 1.02719,2.31553 0.90096,5.08212 -0.28089,6.14798 -1.1815,1.06587 -2.02166,-0.82866 -1.86735,-4.21002 z m 382.994328,0.15172 c -0.78968,-0.71232 -42.149913,-2.2109 -91.9118276,-3.33021 -49.7622694,-1.1193 -91.2302354,-2.68469 -92.1511134,-3.47862 -4.140752,-3.56898 9.04914,-6.51439 22.875825,-5.10839 9.149049,0.93032 16.181146,0.12125 17.655973,-2.03155 1.347896,-1.96776 4.050798,-3.57771 6.006331,-3.57771 1.955533,0 2.566726,1.44344 1.358207,3.20764 -2.590193,3.78094 1.09012,4.27367 24.888601,3.33229 9.7776649,-0.38675 19.297555,-2.01645 21.1553113,-3.62155 4.5571027,-3.93732 10.0354397,-3.7199 7.2888047,0.28932 -1.208519,1.76421 -0.903101,3.35305 0.679103,3.53075 1.581849,0.1777 10.076328,0.92547 18.876227,1.66172 8.799898,0.73621 20.79976,1.86966 26.666358,2.51879 5.866599,0.6491 27.066355,1.34478 47.110572,1.54593 20.04421,0.20112 36.44402,1.45703 36.44402,2.79087 0,2.4771 -44.3362,4.62179 -46.942392,2.27075 z m -449.258098,-4.99706 c -1.0951,-1.59859 2.10308,-2.9065 7.10747,-2.9065 10.8941,0 11.77409,1.82816 1.99109,4.13622 -3.90929,0.92222 -8.00346,0.36888 -9.09856,-1.22972 z m 25.09482,0.3012 c -6.78535,-2.63042 -6.74446,-2.76707 0.88888,-2.98217 4.39995,-0.12414 7.9999,1.21797 7.9999,2.98217 0,1.7642 -0.39999,3.10618 -0.88887,2.98221 -0.48889,-0.12414 -4.08885,-1.46599 -7.99991,-2.98221 z m 55.11047,0 c 0,-1.7642 1.69456,-3.20764 3.76529,-3.20764 2.07109,0 2.7765,1.44344 1.56798,3.20764 -1.20851,1.7642 -2.90307,3.20764 -3.76528,3.20764 -0.86257,0 -1.56799,-1.44344 -1.56799,-3.20764 z m 118.22086,-2.50446 c -23.95528,-0.49535 -43.55683,-1.93879 -43.55932,-3.20764 -0.002,-1.26884 18.50183,-1.83348 41.11988,-1.25473 38.85858,0.99434 41.50246,0.65811 48.00336,-6.10417 7.63475,-7.94157 9.01856,-4.91468 2.30966,5.0519 -3.99818,5.93952 -7.54871,6.3485 -47.87358,5.51464 z m 48.88832,-1.04636 c 0,-1.95294 2.31856,-2.74818 5.1523,-1.76719 3.443516,1.19215 4.496304,0.24218 3.175075,-2.86445 -1.087632,-2.55646 -0.20622,-4.64809 1.958733,-4.64809 2.164953,0 3.935954,2.88687 3.935954,6.41527 0,4.27684 -2.370461,6.41528 -7.111029,6.41528 -3.911063,0 -7.111033,-1.59788 -7.111033,-3.55082 z m -120.88749,-2.86446 c 0,-1.7642 1.59998,-3.20764 3.55552,-3.20764 1.95553,0 3.55551,1.44344 3.55551,3.20764 0,1.7642 -1.59998,3.20764 -3.55551,3.20764 -1.95554,0 -3.55552,-1.44344 -3.55552,-3.20764 z m 10.66655,0 c 0,-1.7642 3.19996,-3.20764 7.11102,-3.20764 3.91107,0 7.11103,1.44344 7.11103,3.20764 0,1.7642 -3.19996,3.20764 -7.11103,3.20764 -3.91106,0 -7.11102,-1.44344 -7.11102,-3.20764 z m 465.10573,-2.19117 c 2.56673,-0.92662 5.63336,-0.81265 6.81486,0.25341 1.1815,1.06586 -0.91875,1.82399 -4.66661,1.68471 -4.14218,-0.15396 -4.98448,-0.91401 -2.14825,-1.93796 z m 104.05711,-2.88758 c 0.17067,-3.73674 1.01333,-4.49679 2.14825,-1.93796 1.02718,2.31553 0.90096,5.08209 -0.28089,6.14799 -1.1815,1.06586 -2.02166,-0.82866 -1.86736,-4.21003 z m -10.05819,-2.92697 c -5.83602,-5.97987 -5.60882,-8.03247 0.88888,-8.03247 2.96281,0 5.33327,2.85124 5.33327,6.41528 0,7.52502 -0.36408,7.61968 -6.22215,1.61719 z m 20.72474,-3.48831 c 0.17066,-3.73673 1.01332,-4.49678 2.14824,-1.93795 1.02719,2.31553 0.90097,5.08211 -0.28089,6.14798 -1.18149,1.06587 -2.02166,-0.82866 -1.86735,-4.21003 z m -531.02249,-4.33701 c -1.07235,-3.70037 0.31288,-6.93967 3.43178,-8.0191 9.54051,-3.30291 11.13338,-1.89235 6.98161,6.18311 -4.94537,9.61926 -8.00098,10.15801 -10.41339,1.83599 z m 79.191617,-2.00029 c 0,-4.51462 1.449583,-7.40005 3.221652,-6.41207 1.772068,0.98799 2.385394,4.68175 1.363184,8.20842 -2.558548,8.82598 -4.584836,8.03202 -4.584836,-1.79635 z m 123.502929,6.29099 c -3.205296,-2.89147 1.208164,-11.14232 4.868211,-9.10158 1.750379,0.97608 3.182896,3.85468 3.182896,6.39686 0,4.72354 -4.23604,6.14661 -8.051107,2.70472 z m 39.209147,-6.23655 c 1.948778,-9.1965 3.931333,-8.77119 6.082063,1.30467 0.88959,4.16647 -0.351995,6.84931 -3.174007,6.84931 -3.048143,0 -4.044042,-2.79248 -2.908056,-8.15398 z m 228.394517,3.34252 c 0,-2.6463 1.33332,-4.81146 2.96281,-4.81146 1.62985,0 2.96317,2.16516 2.96317,4.81146 0,2.6463 -1.33332,4.81146 -2.96317,4.81146 -1.62949,0 -2.96281,-2.16516 -2.96281,-4.81146 z m -625.77055,-1.41451 c 0,-1.66008 1.59998,-3.91043 3.55551,-5.00077 1.95554,-1.09034 3.55552,0.26784 3.55552,3.01832 0,2.75043 -1.59998,5.00078 -3.55552,5.00078 -1.95553,0 -3.55551,-1.35825 -3.55551,-3.01833 z m 593.77092,-0.18925 c 0,-1.7642 1.59998,-3.20764 3.55552,-3.20764 1.95553,0 3.55551,1.44344 3.55551,3.20764 0,1.7642 -1.59998,3.20764 -3.55551,3.20764 -1.95554,0 -3.55552,-1.44344 -3.55552,-3.20764 z m -693.32533,-3.20764 c 0,-1.7642 1.69456,-3.20764 3.76529,-3.20764 2.07109,0 2.77651,1.44344 1.56799,3.20764 -1.20852,1.76421 -2.90308,3.20764 -3.76529,3.20764 -0.86257,0 -1.56799,-1.44343 -1.56799,-3.20764 z m 474.06493,-2.69275 c -4.637458,-6.69941 -2.83339,-10.01107 8.596167,-15.77834 6.796722,-3.42967 7.999908,-3.28061 7.999908,0.99119 0,2.76537 -1.432517,4.22934 -3.182897,3.25325 -4.183774,-2.33262 -7.825332,6.48367 -5.213806,12.62283 2.896677,6.81005 -3.301296,5.98693 -8.199372,-1.08893 z m 156.85117,2.96672 c 1.10541,-1.61351 0,-3.66473 -2.45686,-4.55822 -2.8469,-1.03549 -2.34807,-1.71637 1.37527,-1.87778 3.21312,-0.13921 6.76259,1.91191 7.88826,4.55821 1.26897,2.98285 0,4.81146 -3.38485,4.81146 -2.98734,0 -4.52723,-1.32013 -3.42182,-2.93367 z m -495.52601,-5.35272 c 0.17066,-3.73674 1.01332,-4.49679 2.14824,-1.93796 1.02719,2.31553 0.90096,5.08212 -0.28089,6.14799 -1.1815,1.06587 -2.02166,-0.82866 -1.86735,-4.21003 z m 149.3316,0 c 0.17067,-3.73674 1.01333,-4.49679 2.14825,-1.93796 1.02718,2.31553 0.90096,5.08212 -0.28089,6.14799 -1.1815,1.06587 -2.02167,-0.82866 -1.86736,-4.21003 z m 19.35694,1.75102 c 2.50023,-3.64939 14.78134,-4.13795 17.139,-0.68182 0.90274,1.32316 -3.06023,2.71254 -8.8063,3.08755 -5.95584,0.38867 -9.53838,-0.64567 -8.3327,-2.40573 z m 55.028338,0.11997 c 6.96312,-4.05959 11.66991,-4.05959 8.888787,0 -1.20852,1.7642 -4.903055,3.18553 -8.209683,3.15853 -5.181452,-0.0423 -5.275317,-0.47887 -0.679104,-3.15853 z m 17.110914,1.01647 c 2.566726,-0.92663 5.633357,-0.81266 6.814855,0.2534 1.181497,1.06586 -0.918745,1.82399 -4.666613,1.68471 -4.142175,-0.15396 -4.984476,-0.91398 -2.148242,-1.93795 z m 13.11096,-1.01647 c -1.20852,-1.76421 -0.503106,-3.20764 1.567981,-3.20764 2.070732,0 3.76529,1.44343 3.76529,3.20764 0,1.7642 -0.705414,3.20764 -1.567982,3.20764 -0.862212,0 -2.55677,-1.44344 -3.765289,-3.20764 z m 22.731826,-0.941 c 2.4273497,-2.19004 7.5046244,-2.22892 15.3370673,-0.1174 l 11.7083097,3.15642 -15.3370678,0.1174 c -10.431524,0.0799 -14.1765472,-0.92974 -11.7083092,-3.15642 z m -377.172178,-4.45781 c 2.56673,-0.92663 5.63336,-0.81266 6.81486,0.2534 1.18149,1.06587 -0.91875,1.82399 -4.66662,1.68472 -4.14217,-0.15397 -4.98447,-0.91399 -2.14824,-1.93796 z m 42.66617,0 c 2.56673,-0.92663 5.63336,-0.81266 6.81486,0.2534 1.1815,1.06587 -0.91875,1.82399 -4.66661,1.68472 -4.14218,-0.15397 -4.98448,-0.91399 -2.14825,-1.93796 z m 30.88854,-1.01647 c 1.20852,-1.7642 2.90307,-3.20764 3.76529,-3.20764 0.86256,0 1.56798,1.44344 1.56798,3.20764 0,1.7642 -1.69456,3.20764 -3.76529,3.20764 -2.07109,0 -2.7765,-1.44344 -1.56798,-3.20764 z m 164.08948,-1.50111 c -1.10185,-2.58979 -0.47288,-5.56186 1.39732,-6.60456 1.86984,-1.04271 3.40013,1.07619 3.40013,4.70871 0,7.74507 -1.97722,8.52642 -4.79745,1.89585 z m 143.4625203,-4.91417 c 0,-1.7642 1.5999815,-3.20764 3.5555145,-3.20764 1.955533,0 3.55551449,1.44344 3.55551449,3.20764 0,1.7642 -1.59998149,3.20764 -3.55551449,3.20764 -1.955533,0 -3.5555145,-1.44344 -3.5555145,-3.20764 z m -373.3290203,-3.20764 c 0,-1.7642 1.59998,-3.20764 3.55551,-3.20764 1.95554,0 3.55552,1.44344 3.55552,3.20764 0,1.7642 -1.59998,3.20764 -3.55552,3.20764 -1.95553,0 -3.55551,-1.44344 -3.55551,-3.20764 z m 15.99981,0 c -1.20852,-1.7642 1.09688,-3.20764 5.1235,-3.20764 4.02626,0 7.3208,1.44344 7.3208,3.20764 0,1.7642 -2.30539,3.20764 -5.12349,3.20764 -2.81775,0 -6.11229,-1.44344 -7.32081,-3.20764 z m 741.99819,6.41528 c 2.13189,0 5.92135,2.52374 8.42159,5.60833 6.38677,7.87992 9.64967,3.4801 3.3941,-4.57701 -6.91121,-8.90181 -23.20365,-6.53213 -23.04756,3.35217 0.096,6.18953 0.45439,6.30699 3.73222,1.22988 1.99322,-3.08735 5.36812,-5.61337 7.49965,-5.61337 z m -18.45099,0 c 0,-1.7642 -2.39997,-3.20764 -5.33327,-3.20764 -2.9333,0 -5.33327,1.44344 -5.33327,3.20764 0,1.7642 2.39997,3.20764 5.33327,3.20764 2.9333,0 5.33327,-1.44344 5.33327,-3.20764 z m -691.54757,-9.62292 c 1.20852,-1.7642 0.50311,-3.20764 -1.56798,-3.20764 -2.07073,0 -3.76529,1.44344 -3.76529,3.20764 0,1.7642 0.70542,3.20764 1.56798,3.20764 0.86222,0 2.55677,-1.44344 3.76529,-3.20764 z"
       style="fill:#000000" />
  </g>
</svg>
