<?xml version="1.0" encoding="UTF-8"?>
<svg width="295.06mm" height="217.92mm" version="1.1" viewBox="0 0 1045.5 772.15" xmlns="http://www.w3.org/2000/svg" xmlns:cc="http://creativecommons.org/ns#" xmlns:dc="http://purl.org/dc/elements/1.1/" xmlns:rdf="http://www.w3.org/1999/02/22-rdf-syntax-ns#">
<metadata>
<rdf:RDF>
<cc:Work rdf:about="">
<dc:format>image/svg+xml</dc:format>
<dc:type rdf:resource="http://purl.org/dc/dcmitype/StillImage"/>
<dc:title/>
</cc:Work>
</rdf:RDF>
</metadata>
<g transform="translate(629.55 327.78)">
<path d="m-430.01 442.49c-8.9866-4.6128-103.93-32.909-111.73-33.301-4.2104-0.21138-7.5448-2.9738-8.1745-6.7723-0.6208-3.7458-8.5389-10.42-19.028-16.038-20.962-11.228-39.843-29.278-37.179-35.542 1.0226-2.4038-2.0288-12.032-6.7807-21.396-16.238-31.998-17.506-57.853-16.32-332.79 0.59306-137.55 3.7148-195.53 12.845-238.58 2.9173-13.756 5.3045-25.584 5.3045-26.284 0-0.69988 12.331-8.6393 27.402-17.643 16.67-9.9591 39.995-20.166 59.555-26.06 17.684-5.3291 35.089-11.092 38.677-12.805 6.3878-3.0514 400.08-4.0819 724.14-1.8954 146.76 0.99027 147.63 1.0354 160.77 8.3591 9.7848 5.4556 13.807 10.25 15.523 18.504 1.2743 6.127 1.2295 103.83-0.0996 217.12-2.5866 220.58-2.7722 250.71-2.0483 332.68 0.256 29.109 0.37866 56.174 0.27022 60.143-0.16 5.8411-2.2314 7.2172-10.864 7.2172-12.38 0-12.126-0.75781-12.306 36.854l-0.13866 28.835-53.333 5.4014c-29.333 2.9708-74.132 6.9534-99.554 8.8503s-67.834 5.5619-94.249 8.1445-63.215 5.3618-81.777 6.1759c-18.562 0.81417-56.404 3.7251-84.093 6.4687-27.689 2.7436-73.288 5.8058-101.33 6.8048-28.044 0.99902-70.979 3.916-95.411 6.4822-24.432 2.5662-52.137 4.6658-61.566 4.6658-9.4292 0-20.142 1.4474-23.806 3.2163-4.4775 2.162-7.3955 2.1448-8.9005-0.0523-1.2316-1.7978-3.414-2.6136-4.8501-1.8129s-22.525 2.3434-46.865 3.4282c-24.34 1.0849-47.454 2.5382-51.365 3.2296-3.9111 0.69144-9.6298-0.0356-12.708-1.6159zm53.597-8.057c20.533-1.2871 47.733-2.6967 60.444-3.1324 12.711-0.43576 39.911-2.3754 60.444-4.3102 58.033-5.4684 83.111-7.1367 127.64-8.491 22.685-0.68993 46.045-1.9977 51.911-2.9062 17.737-2.7468 79.566-8.0052 117.33-9.9789 19.555-1.022 41.955-2.5028 49.777-3.2907 37.09-3.736 84.736-7.8043 113.78-9.7151 17.6-1.158 34.784-2.587 38.186-3.1754 11.671-2.0186 104.93-9.803 127.2-10.617l12.496-0.45676-0.4128-26.463c-0.55395-35.497-0.0996-34.163-11.246-32.957-5.3777 0.58177-30.577 2.6978-55.999 4.7023-25.422 2.0045-53.422 4.2774-62.222 5.0508-22.745 1.9992-55.708 4.6806-76.444 6.2184-9.7777 0.72512-30.577 2.7634-46.222 4.5296-15.644 1.7662-41.244 4.0323-56.888 5.0359-15.644 1.0035-39.644 2.7913-53.333 3.9728-13.689 1.1815-29.689 2.2473-35.555 2.3684-5.8666 0.12125-11.467 1.0339-12.444 2.0283-0.97777 0.99446-9.3777 1.2228-18.666 0.50735-11.415-0.87912-16.889-2.7555-16.889-5.7892 0-2.4687 1.2-4.5715 2.6666-4.6729 1.4666-0.10136 23.301-0.7912 48.521-1.5328 37.189-1.0935 47.15-2.4057 52.707-6.9427 3.7685-3.0769 6.5443-4.1915 6.1681-2.4768-1.6334 7.4437 0.61439 8.5506 6.9158 3.4058 4.4238-3.6118 7.5665-4.3375 9.0986-2.1009 1.2875 1.8791 3.9406 3.4166 5.8961 3.4166s2.3541-1.8043 0.88568-4.0096c-2.1301-3.1982-1.5666-3.2039 2.7836-0.0289 2.9998 2.19 6.2982 3.2202 7.33 2.2895 1.0315-0.9307 15.284-2.4741 31.673-3.4297 16.388-0.95566 32.197-2.5284 35.13-3.495 2.9333-0.96665 19.67-2.3488 37.192-3.0714 23.354-0.96312 33.628-2.7581 38.485-6.7236 3.6444-2.9753 6.3182-4.0067 5.942-2.292-1.6334 7.4437 0.6144 8.5506 6.9158 3.4058 4.4238-3.6118 7.5665-4.3375 9.0986-2.1009 1.2875 1.8791 3.9406 3.4166 5.8961 3.4166 1.9555 0 2.3541-1.8043 0.88568-4.0096-2.1301-3.1982-1.5666-3.2039 2.7836-0.0289 2.9998 2.19 6.1962 3.3124 7.1028 2.4943 0.90701-0.81811 11.96-2.2834 24.561-3.2561 48.823-3.7688 58.799-4.4436 68.455-4.6304 7.0108-0.13569 9.1917-1.3883 7.3176-4.2028-2.0199-3.0327-1.4211-3.1589 2.4565-0.51794 4.8373 3.2944 27.407 3.5247 36.512 0.37257 3.1395-1.087 3.9943-52.065 3.4584-206.34-0.39147-112.69-0.85582-207.06-1.0318-209.71-0.17778-2.6463 0.77581-8.9954 2.1159-14.109 1.5893-6.0656 1.1616-8.587-1.2306-7.2533-2.0167 1.1245-4.5322-0.94019-5.5896-4.5881-1.3717-4.733-0.5255-6.1489 2.9557-4.9438 3.6771 1.273 4.7402-1.4281 4.3182-10.973-0.30933-6.9621-2.289-12.66-4.4028-12.66-2.1138 0-5.5516-5.7738-7.6394-12.831-2.0878-7.0568-2.5962-12.831-1.1303-12.831 1.4663 0 3.7166 5.052 5.0005 11.227 5.0542 24.304 7.7468 8.6646 7.9992-46.46 0.14577-31.728-0.97492-56.996-2.4889-56.152-1.5139 0.84419-3.8922-0.98285-5.2849-4.0601-2.3186-5.124-2.7779-5.055-5.4559 0.82033-4.8095 10.553-3.8183 14.434 3.6874 14.434 7.0883 0 9.2479 3.4184 4.7327 7.4915-1.3077 1.18-5.2483-0.19791-8.7562-3.0621-3.5584-2.905-8.9698-4.3103-12.24-3.1783-4.5642 1.5801-5.2611 0.77882-3.1484-3.6205 3.5779-7.4503 4.6442-20.489 2.1671-26.499-1.4204-3.4455-2.5575-2.6207-4.006 2.9053-1.8894 7.2078-2.4142 7.3636-7.959 2.361-5.5452-5.0025-6.1777-4.9826-9.5885 0.30248-3.3763 5.2314-3.664 5.1743-3.8144-0.75719-0.13511-5.3256-0.74808-5.598-3.6092-1.6038-3.1008 4.3284-5.0854 2.327-3.9765-4.0096 0.23111-1.3232-1.979-2.4057-4.9123-2.4057s-5.3333-2.1652-5.3333-4.8115-2.4-4.8115-5.3333-4.8115c-5.9843 0-6.2246 0.58748-3.1751 7.7568 1.1868 2.7906 4.7868 5.1218 7.9999 5.1805 4.6855 0.0856 4.2581 1.2984-2.1582 6.1275-4.4 3.3115-7.9999 8.3154-7.9999 11.12 0 2.8046-1.4183 5.0992-3.152 5.0992-4.1578 0-7.1853-19.051-3.3664-21.18 4.7655-2.6571 3.408-7.6886-2.0743-7.6886-2.7701 0-5.5701-1.3425-6.2222-2.9833-0.65173-1.6408-17.646-3.7549-37.765-4.6979-20.119-0.94305-38.021-2.5178-39.781-3.4995-1.7607-0.98167-4.8511 0.77153-6.8671 3.896-3.3991 5.2669-3.6778 5.2134-3.8286-0.73446-0.13511-5.3256-0.74808-5.598-3.6092-1.6038-3.0638 4.2768-3.4588 4.2768-3.5555 0-0.096-4.2768-0.49173-4.2768-3.5555 0-2.1834 3.048-3.4666 3.3777-3.5011 0.89959-0.0676-4.9126-24.664-4.6431-31.848 0.34905-3.4442 2.3935-4.3751 2.4288-2.8362 0.10746 1.5847-2.3911-10.193-3.4031-38.243-3.2858-36.984 0.15461-40.862 0.73795-44.292 6.6629-3.5534 6.137-3.648 6.0973-1.7237-0.72374 1.4659-5.196 0.47537-7.2172-3.5367-7.2172-3.0652 0-5.6991 1.8043-5.8538 4.0096-0.224 3.2076-0.63928 3.2076-2.0739 0-1.9779-4.4222-22.534-5.6234-22.534-1.3168 0 1.481-4.3999 4.4074-9.7777 6.5032l-9.7777 3.8104 17.778-12.864-16.889-0.0712c-12.677-0.0536-16.889 1.1286-16.889 4.7402 0 5.8605 4.1137 6.1808 10.301 0.80191 3.7297-3.2429 4.3669-2.7828 3.3312 2.4057-0.99519 4.9858-4.241 6.4911-14.567 6.7555-12.888 0.33003-17.871-3.1006-8.8422-6.0873 3.5182-1.1638 3.5331-2.3423 0.07111-5.6554-3.5946-3.4406-5.9672-3.4155-13.333 0.14113-4.9283 2.3795-8.9606 6.2476-8.9606 8.5958 0 6.5465-6.0501 5.0684-8.0924-1.977-1.1769-4.0599 0.23466-6.712 4.0298-7.5765 3.2121-0.73157-0.95963-1.2225-9.2706-1.0911-9.8161 0.15525-15.111 1.6861-15.111 4.3689 0 2.2714-1.6 4.1299-3.5555 4.1299s-3.5555-2.1652-3.5555-4.8115-2.4945-4.8115-5.543-4.8115c-3.0489 0-4.8167 1.0826-3.9288 2.4057s-0.5191 4.1838-3.1264 6.3571c-3.8129 3.1777-5.179 2.7067-6.9777-2.4057-1.7863-5.0781-5.4072-6.3571-17.997-6.3571-10.088 0-15.861 1.443-16.041 4.0096-0.224 3.2076-0.63928 3.2076-2.0739 0-2.262-5.0573-21.469-5.2882-23.319-0.28035-0.75768 2.0511-4.2151 4.1049-7.6824 4.5641-4.1873 0.55444-5.6526-0.69795-4.3633-3.7293 1.4812-3.4824-1.4595-4.5641-12.409-4.5641-13.249 0-14.156 0.55201-11.82 7.192 2.2425 6.3751 1.8706 6.6981-3.2768 2.8442-3.1939-2.3913-4.9304-5.6277-3.8588-7.192 1.0716-1.5643-3.7457-2.8442-10.706-2.8442-6.9596 0-12.654 1.3606-12.654 3.0235s3.4165 2.4299 7.5921 1.7044 6.5343-0.36484 5.2415 0.80146c-4.9823 4.4949-16.389 3.9813-16.389-0.73801 0-2.6529-3.1737-4.7913-7.111-4.7913-4.9329 0-7.1846 2.2108-7.3517 7.2172l-0.24177 7.2172-3.8581-7.2172c-3.1242-5.8439-6.7992-7.2172-19.315-7.2172-9.8452 0-15.559 1.4556-15.737 4.0096-0.224 3.2076-0.63928 3.2076-2.0739 0-2.4636-5.5079-21.321-5.0727-23.711 0.54723-2.1106 4.9623-12.174 4.895-15.996-0.10714-3.1879-4.1721-22.989-5.372-20.145-1.2207 1.2007 1.7525 0.62186 3.1863-1.2864 3.1863-1.9079 0-4.1308-1.7914-4.9397-3.9809-1.0407-2.8168-3.3966-2.2437-8.0557 1.9596-5.9996 5.4124-6.9567 5.4812-10.773 0.77326-5.2853-6.5211-49.609-7.4913-52.885-1.1576-1.659 3.2076-2.4889 3.2076-4.1479 0-1.141-2.2053-6.8351-4.0096-12.654-4.0096-6.1478 0-9.6593 1.3437-8.3825 3.2076 1.2085 1.7642 0.5031 3.2076-1.568 3.2076-2.0707 0-3.7653 2.8869-3.7653 6.4153 0 3.5284-1.2572 6.4153-2.7936 6.4153-3.8919 0-3.6913-13.995 0.23466-16.41 1.7667-1.0865-1.061-2.7124-6.284-3.6131-11.149-1.9227-13.901 2.3088-11.843 18.21 0.78186 6.0424 0.40747 10.421-0.83199 9.7297-1.2394-0.69109-2.592 50.652-3.0058 114.1-0.60657 93.033 0.14578 115.36 3.8858 115.4 3.5043 0.03721 3.5914 0.6489 0.35662 2.5039-3.0115 1.7268-4.3783 17.169-4.6094 52.075-0.18133 27.291-0.25244 50.88-0.16355 52.419 0.0889 1.5392 2.5002 1.0498 5.3546-1.0875 4.3274-3.2399 4.9368-2.6998 3.6672 3.2489-0.83768 3.9242-2.6282 8.0221-3.979 9.1066-1.3504 1.0844-1.419-0.62927-0.15288-3.8083 1.3738-3.4467 0.88461-4.9889-1.211-3.8202-1.9335 1.0778-3.515 4.8466-3.515 8.375 0 4.2785 1.4802 5.613 4.4444 4.0064 2.9411-1.5942 2.7701-0.54729-0.5063 3.0953-4.0504 4.5035-4.9116 28.313-4.7367 130.96 0.11733 69-0.85475 128.06-2.1607 131.24-1.3056 3.1795-1.8119 13.191-1.125 22.247l1.249 16.466 12.973-1.699c13.862-1.8154 51.423-5.1075 80.528-7.058 23.358-1.5654 36.072-3.446 40.685-6.0183 2.0672-1.1526 3.7585-0.61237 3.7585 1.2006 0 1.813 2 2.6328 4.4444 1.822 4.0394-1.3399 18.877-2.4878 82.666-6.3953 25.932-1.5885 39.256-3.4709 44.241-6.2502 2.0672-1.1526 3.7585-0.85692 3.7585 0.65715s5.5871 2.1644 12.416 1.4452c6.8287-0.71922 11.792-2.2337 11.03-3.3654-0.7623-1.1318 14.85-1.9378 34.695-1.7911 46.996 0.34733 88.479 6.9193 85.312 9.8119-3.0055 2.7446-99.315 2.9776-164.79 7.2351-35.684 2.3205-99.815 8.2664-119.11 11.043-1.9555 0.28131-4.6432 2.6769-5.9722 5.3232-1.9299 3.8421-2.4672 3.6254-2.6666-1.0756-0.23111-5.4133-2.4672-5.6825-27.805-3.3454-15.155 1.3979-34.755 2.6036-43.555 2.6794-8.7999 0.0757-17.175 1.5812-18.612 3.3454-3.4492 4.2353-3.5015 66.561-0.0533 64.68 1.4666-0.80027 19.466-2.5081 40-3.7952zm53.333-11.167c0-1.7642 1.6946-3.2076 3.7653-3.2076 2.0711 0 2.7765 1.4434 1.568 3.2076-1.2085 1.7642-2.9031 3.2076-3.7653 3.2076-0.86257 0-1.568-1.4434-1.568-3.2076zm53.333-6.6046c0-3.6325 1.5299-5.7514 3.4001-4.7087 1.8702 1.0427 2.4992 4.0148 1.3973 6.6046-2.8202 6.6305-4.7974 5.8492-4.7974-1.8959zm73.777-8.3503c2.4444-0.88983 6.4444-0.88983 8.8888 0 2.4444 0.88984 0.44444 1.6179-4.4444 1.6179-4.8888 0-6.8888-0.72807-4.4444-1.6179zm100.44-1.0833c0-1.7642 1.6946-3.2076 3.7653-3.2076 2.0711 0 2.7765 1.4434 1.568 3.2076-1.2085 1.7642-2.9031 3.2076-3.7653 3.2076-0.86257 0-1.568-1.4434-1.568-3.2076zm-54.549-4.9748c2.1582-5.0736 8.3274-6.395 8.3274-1.7836 0 1.5755-2.3186 3.6671-5.1523 4.6481-3.4435 1.1922-4.4963 0.24218-3.1751-2.8645zm221.66-7.8557c0-1.7642 1.6946-3.2076 3.7653-3.2076 2.0711 0 2.7765 1.4434 1.568 3.2076s-2.9031 3.2076-3.7653 3.2076c-0.86257 0-1.568-1.4434-1.568-3.2076zm-349.73-4.8115c1.1257-2.6463 2.4793-4.8114 3.0083-4.8114 0.52941 0 2.9539 2.1652 5.3884 4.8114 3.6945 4.016 3.1971 4.8115-3.0087 4.8115-5.148 0-6.8052-1.4799-5.388-4.8115zm499.06-8.0191c0-1.7642 1.6946-3.2076 3.7653-3.2076 2.0711 0 2.7765 1.4434 1.568 3.2076-1.2085 1.7642-2.9031 3.2076-3.7653 3.2076-0.86257 0-1.568-1.4434-1.568-3.2076zm-371.31-3.5635c1.6622-2.4265 10.811-1.9672 13.757 0.69067 0.96924 0.87437-2.081 1.5897-6.7782 1.5897-4.6976 0-7.8378-1.0262-6.9784-2.2804zm424.92-1.5153c0.17066-3.7367 1.0133-4.4968 2.1482-1.938 1.0272 2.3155 0.90096 5.0821-0.28089 6.148-1.1815 1.0659-2.0217-0.82866-1.8674-4.21zm-397.31-2.7992c0-2.5687 1.3596-3.9124 3.0211-2.986 1.6615 0.9264 2.1002 3.028 0.97527 4.6704-2.875 4.1968-3.9964 3.7243-3.9964-1.6844zm167.61-4.8125c1.1559-1.6872 4.4501-2.2544 7.3208-1.2606 7.3496 2.5444 6.4835 4.3282-2.1013 4.3282-4.0266 0-6.3754-1.3804-5.2195-3.0676zm-186.57-3.3477c0-1.7642 1.6946-3.2076 3.7653-3.2076 2.0711 0 2.7765 1.4434 1.568 3.2076s-2.9031 3.2076-3.7653 3.2076c-0.86257 0-1.568-1.4434-1.568-3.2076zm-122.17-30.473c1.1257-2.6463 2.4793-4.8115 3.0083-4.8115 0.52942 0 2.9539 2.1652 5.3884 4.8115 3.6945 4.016 3.1971 4.8115-3.0087 4.8115-5.148 0-6.8053-1.4799-5.388-4.8115zm227.06 1.6038c-1.2085-1.7642-0.5031-3.2076 1.568-3.2076 2.0707 0 3.7653 1.4434 3.7653 3.2076s-0.70541 3.2076-1.568 3.2076c-0.86221 0-2.5568-1.4434-3.7653-3.2076zm-33.777-3.397c0-1.8683 1.6-2.5048 3.5555-1.4145s3.5555 2.619 3.5555 3.397c0 0.77798-1.6 1.4145-3.5555 1.4145s-3.5555-1.5286-3.5555-3.397zm61.11-12.842c0.85546-2.3155 3.6554-4.8416 6.2222-5.6134 2.6666-0.80191 4 0.40095 3.1111 2.8067-0.85546 2.3155-3.6554 4.8415-6.2222 5.6134-2.6666 0.80191-4-0.40095-3.1111-2.8067zm-51.978-12.986c1.6622-2.4265 10.811-1.9672 13.757 0.69066 0.96923 0.87438-2.081 1.5897-6.7782 1.5897-4.6975 0-7.8378-1.0262-6.9784-2.2804zm27.608-4.3145c0-2.5687 1.3596-3.9124 3.0211-2.986 1.6615 0.9264 2.1002 3.028 0.97528 4.6704-2.875 4.1968-3.9964 3.7243-3.9964-1.6844zm36.187-8.103c-0.79075-1.1541 3.2529-2.0984 8.9855-2.0984 5.7326 0 9.6145 0.72926 8.6267 1.6206-2.7552 2.4855-15.991 2.8446-17.612 0.47781zm58.627 0.13216c0-1.6601 1.5815-3.9002 3.5146-4.9781 2.0156-1.1238 2.6115 0.16391 1.3977 3.0183-2.3637 5.557-4.9123 6.5737-4.9123 1.9597zm-328.89-3.397c1.2085-1.7642 3.7031-3.2076 5.543-3.2076 1.8403 0 3.3457 1.4434 3.3457 3.2076 0 1.7642-2.4946 3.2076-5.543 3.2076-3.0488 0-4.5542-1.4434-3.3457-3.2076zm-99.69-3.01c1.1342-1.6555-3.819-3.4598-11.007-4.0096l-13.069-0.99953 0.7815-55.975c0.42986-30.787 1.5719-57.129 2.5379-58.539 0.96603-1.4102-0.0356-2.5639-2.2186-2.5639-2.3228 0-2.796-1.6667-1.1385-4.0095 1.5605-2.2053 2.9756-70.769 3.1448-152.36 0.25244-121.19-0.55537-148.35-4.4049-148.35-2.592 0-4.6879-2.526-4.6581-5.6134 0.0427-4.3728 0.72994-4.6516 3.1111-1.2614 5.1576 7.3431 6.3089 0.43412 7.1402-42.844 0.88568-46.124 3.046-82.079 5.0392-83.877 0.71323-0.64359 6.7523-0.16424 13.42 1.0649 11.467 2.1141 11.642 2.3401 3.2345 4.1764-6.4831 1.416-8.8888 4.0726-8.8888 9.8159 0 7.6138 0.92621 7.9057 27.979 8.8182l27.98 0.94372-2.2293 124.15c-1.2259 68.285-3.1968 148.26-4.3793 177.72-2.0551 51.202-1.8186 53.946 5.3603 62.18l7.5107 8.6139 0.24178-57.368c0.29511-70.237 3.2295-234.06 4.8181-269.07 0.64034-14.114 1.3639-34.683 1.6078-45.709 0.24533-11.026 1.6434-20.048 3.11-20.048 1.4666-1.6e-4 2.1998 42.581 1.6291 94.625-0.70222 64.073 0.15999 94.626 2.6666 94.626 2.0373 0 3.7041-2.3889 3.7041-5.3086 0-4.6864 0.87963-4.5924 7.5036 0.80191 6.1752 5.0286 6.5247 6.2881 1.9747 7.1134-3.1562 0.57253-4.6872 2.9813-3.5676 5.6134 1.0788 2.5358 0.32356 4.6105-1.6786 4.6105-2.0018 0-4.3537-1.8043-5.227-4.0095-0.87288-2.2053-2.4729-3.2878-3.5552-2.4057-2.5934 2.1136-5.6803 134.59-5.9231 254.21-0.16355 80.868-0.97527 95.427-5.3169 95.427-2.8178 0-6.2652 1.6665-7.6604 3.7032-1.5143 2.2103-0.98097 2.8358 1.3223 1.5515 2.1226-1.1835 4.6524-0.99408 5.6216 0.42085 0.96923 1.415-3.6028 2.5726-10.16 2.5726s-11.129-1.1577-10.16-2.5726c0.96924-1.4149 3.499-1.6043 5.6216-0.42085s2.8689 0.70632 1.6586-1.0603c-2.8818-4.2067-35.479 0.1854-37.266 5.021-0.73457 1.9883-2.8967 3.6151-4.8049 3.6151-1.9079 0-2.5411-1.3545-1.4069-3.01zm35.274-19.641c1.7262-1.4184 2.1763-4.8412 1.0005-7.606-1.5431-3.6274-7.0381-5.0271-19.737-5.0271-23.085 0-28.847 2.301-28.847 11.521 0 7.4269 0.58204 7.5752 22.222 5.659 12.222-1.0822 23.634-3.1282 25.361-4.5467zm17.416-19.85c1.0051-11.026 2.064-33.76 2.353-50.52l0.52586-30.473-6.5624 8.7248c-8.897 11.829-11.805 92.316-3.3351 92.316 3.8023 0 5.6799-5.3631 7.0186-20.048zm-61.443-38.068c0-25.873-1.2142-37.815-3.7041-36.426-2.2947 1.2796-3.452 16.568-3.0417 40.188 0.36408 20.967 2.0309 37.359 3.7041 36.426 1.6729-0.93281 3.0417-19.017 3.0417-40.188zm17.497 7.5958c-0.15289-17.201-0.88035-29.831-1.6135-28.067-2.673 6.4347-3.3621 59.343-0.77261 59.342 1.4666-5.8e-4 2.5404-14.075 2.3861-31.276zm17.591-0.68737-0.46755-30.587-2.9592 22.453c-1.6277 12.349-2.1098 24.979-1.0709 28.067 1.0386 3.0874 0.0782 5.6134-2.1322 5.6134-2.8547 0-3.3589-7.9092-1.739-27.265 1.5594-18.631 1.0681-27.265-1.552-27.265-2.4665 0-3.8339 10.624-3.8339 29.785 0 27.647 0.51057 29.785 7.111 29.785 6.6467 0 7.0804-1.9979 6.6438-30.587zm11.134 1.4893c0-18.177-1.4346-30.473-3.5555-30.473-2.1209 0-3.5555 12.296-3.5555 30.473s1.4346 30.473 3.5555 30.473c2.1209 0 3.5555-12.296 3.5555-30.473zm-37.934-5.6711c0.91305-17.367 0.22755-31.217-1.5456-31.217-1.7529 0-3.1868 14.675-3.1868 32.611 0 17.936 0.69546 31.984 1.5456 31.217 0.84977-0.76682 2.2841-15.442 3.1868-32.611zm40.211-36.021c11.091-10.006 15.16-36.641 7.8182-51.179-5.1036-10.105-10.032-10.713-7.7215-0.95283 1.6455 6.9496 1.5065 6.9925-3.7546 1.1558-5.0438-5.596-6.1141-5.6766-13.94-1.0504-4.6624 2.756-10.564 9.5566-13.115 15.112-3.9818 8.6725-3.7898 11.706 1.3582 21.446 5.2326 9.8991 7.3389 11.166 16.537 9.9485 13.056-1.7288 13.19-0.80095 0.76266 5.2815-9.4605 4.6303-9.5099 4.7896-1.5239 4.9139 4.5397 0.0706 10.65-2.0335 13.579-4.6757zm-2.2777-22.65c0-4.5146 1.4496-7.4 3.2216-6.4121 1.7721 0.98799 2.3854 4.6817 1.3632 8.2084-2.5586 8.826-4.5848 8.032-4.5848-1.7963zm-40.06-4.5069c0.78007-17.646 6.3036-25.381 22.919-32.092 7.857-3.1735 12.568-6.2985 10.47-6.9445-2.2442-0.69096-2.837-4.476-1.44-9.1936l2.3754-8.0191 2.5127 8.0191c1.3824 4.4105 2.6727-22.536 2.8675-59.881 0.19555-37.345 1.3255-70.183 2.5127-72.974 1.1868-2.7906 0.42062-5.0738-1.7027-5.0738-2.6115 0-4.1984 20.494-4.9045 63.351l-1.0436 63.351-1.4812-78.587c-1.1147-59.154-2.0281-71.448-3.6928-49.718l-2.2119 28.869-0.67163-24.859c-0.37938-14.03-2.2208-24.859-4.2275-24.859-2.2681 0-3.5555 26.909-3.5555 74.31 0 40.871-1.04 73.372-2.3107 72.226-1.2711-1.1466-2.1362-35.669-1.9221-76.716 0.21334-41.047-0.8775-71.822-2.4252-68.388-2.635 5.8468-3.0115 5.7449-5.9235-1.6038-2.1088-5.3214-3.7738 9.7051-5.1726 46.683-2.3701 62.654-4.0668 56.965-3.5879-12.029 0.21333-30.949-0.95643-47.313-3.3866-47.313-2.5159 0-3.4944 30.816-3.0304 95.427 0.37688 52.485 1.253 86.406 1.9474 75.38 1.4261-22.649 7.6579-27.218 8.7491-6.4153 0.39359 7.4979 1.6714-3.6888 2.8405-24.859l2.1251-38.492 0.71537 39.483c0.46684 25.776 1.9694 38.783 4.3285 37.468 1.9875-1.1081 2.693-3.3585 1.568-5.0008-1.125-1.6423-0.81954-4.7757 0.67911-6.9632 1.8546-2.7071 3.5114-1.4266 5.1886 4.0095 1.3554 4.3927 2.6236-9.6953 2.8184-31.307 0.23822-26.397 1.6462-39.294 4.2904-39.294 2.1646 0 2.9646 2.2832 1.7778 5.0738-1.1872 2.7906-2.1582 21.555-2.1582 41.699 0 29.183-1.0073 36.625-4.9571 36.625-2.7267 0-9.9266 4.1877-16 9.306-9.1405 7.7031-11.043 11.755-11.043 23.523 0 11.54 1.9438 18.494 5.1704 18.494 0.23467 0 0.68231-5.7219 0.99164-12.715zm-5.451-87.853c0-5.915 1.4154-12.771 3.1456-15.236 2.0825-2.9672 3.1637 0.66706 3.2 10.755 0.0356 8.38-1.3856 15.236-3.1456 15.236s-3.2-4.8395-3.2-10.755zm10.924-46.983c0-7.9389 0.69332-11.187 1.5406-7.2172 0.84764 3.9695 0.84764 10.465 0 14.434-0.84728 3.9695-1.5406 0.72172-1.5406-7.2172zm19.156-5.6134c3.0072-20.726 4.7644-21.219 4.7644-1.3365 0 9.1151-1.5694 16.573-3.4876 16.573-2.1002 0-2.6083-6.0598-1.2768-15.236zm-19.156-23.255c0-7.9389 0.69332-11.187 1.5406-7.2172 0.84764 3.9695 0.84764 10.465 0 14.434-0.84728 3.9695-1.5406 0.72172-1.5406-7.2172zm1.3013-24.057c-1.1257-2.6463-0.49706-4.8115 1.3973-4.8115 1.894 0 3.4439 2.1652 3.4439 4.8115 0 2.6463-0.62898 4.8115-1.3973 4.8115-0.7687 0-2.3182-2.1652-3.4439-4.8115zm34.82-20.17c-2.8224-21.21-5.0901-20.952-5.0901 0.57924 0 11.382 1.3472 17.615 3.5424 16.391 2.021-1.1267 2.6855-8.417 1.5477-16.97zm-12.201-16.717c8.77-7.912 9.1707-19.819 0.88888-26.412-14.165-11.277-31.471 7.7759-22.75 25.045 4.7776 9.4594 12.365 9.9339 21.861 1.3673zm-31.164-40.897c-2.1564-32.438-7.9462-38.164-7.9462-7.8587 0 13.258 1.5143 23.095 3.5555 23.095 1.9555 0 3.5555 2.1652 3.5555 4.8115s0.55964 4.8115 1.2437 4.8115 0.50026-11.187-0.40853-24.859zm45.386-10.803c0-12.349-1.3333-21.71-2.9628-20.802-1.6295 0.90853-2.2578 6.4066-1.3959 12.218 1.5001 10.117 1.3287 10.293-4.0352 4.1508-5.3105-6.0816-5.6081-5.613-5.7151 9.0103-0.0711 9.4896 1.2551 14.663 3.4424 13.443 1.9555-1.0903 3.5555 0.3531 3.5555 3.2076s1.6 4.298 3.5555 3.2076 3.5555-12.086 3.5555-24.436zm-35.555 3.5862c0-5.2926-1.6-9.6229-3.5555-9.6229-1.9555 0-3.5555 4.3303-3.5555 9.6229 0 5.2926 1.6 9.6229 3.5555 9.6229 1.9555 0 3.5555-4.3303 3.5555-9.6229zm6.0195-2.3447c-0.90168-3.1209-1.6985-1.3441-1.771 3.9485-0.0711 5.2926 0.66523 7.8461 1.6391 5.6744 0.97421-2.1717 1.0332-6.502 0.13155-9.6229zm11.758 3.4139c0-4.7045-1.0994-7.562-2.4426-6.3499-3.5754 3.2254-3.9818 14.904-0.51874 14.904 1.6288 0 2.9614-3.8492 2.9614-8.5537zm3.5555-20.315c12.884-11.624 6.5126-28.869-10.667-28.869-11.366 0-17.778 7.2117-17.778 19.997 0 15.276 15.862 20.223 28.444 8.8715zm-21.104-3.0123c-7.2468-4.137 1.3863-13.026 12.651-13.026 10.304 0 11.298 8.0239 1.5762 12.718-8.2243 3.9709-7.826 3.9622-14.227 0.30825zm-5.5658-37.083 4.7598 9.6229 0.28799-10.082c0.17778-6.1901-1.7699-10.794-5.0446-11.928-2.9333-1.0155-5.4929-5.1393-5.6878-9.1642l-0.35555-7.3179-2.3122 7.317c-1.2718 4.0244-1.5378 15.572-0.59128 25.661l1.7212 18.344 1.2306-16.038 1.2302-16.038 4.7598 9.6229zm41.703-20.174c0.88746-21.681 0.26666-40.17-1.3767-41.087-1.6444-0.9169-2.9898 17.423-2.9898 40.756 0 23.333 0.61937 41.822 1.3767 41.087 0.75697-0.73509 2.1027-19.075 2.9898-40.756zm-19.001 19.372c-0.25244-5.427-1.0382-6.6612-2.0384-3.2076-0.89457 3.0874-3.2032 5.6134-5.1306 5.6134-1.9278 0-2.5842-1.3437-1.4592-2.986 1.125-1.6423 0.41955-3.8926-1.568-5.0008-1.9875-1.1081-3.6135 0.85147-3.6135 4.3546 0 3.5032 2.8 7.0295 6.2222 7.8363 3.4222 0.80682 6.6221 1.6344 7.111 1.839 0.48889 0.20464 0.70329-3.5974 0.47644-8.4489zm11.079-0.80191c0-5.2926-1.6-9.6229-3.5555-9.6229-1.9555 0-3.5555 4.3303-3.5555 9.6229 0 5.2926 1.6 9.6229 3.5555 9.6229 1.9555 0 3.5555-4.3303 3.5555-9.6229zm-10.433-16.151c13.033-6.2926 5.0005-30.753-9.2838-28.272-3.7415 0.65003-8.3274 5.0936-10.191 9.8746-2.6805 6.8761-2.0234 10.054 3.1441 15.205 7.5932 7.5695 7.3592 7.5238 16.331 3.1919zm-25.477-35.973c0.19555-3.0874-1.2455-5.6134-3.201-5.6134-1.9555 0-3.3959 6.1346-3.201 13.632 0.30222 11.581 0.78257 12.426 3.201 5.6134 1.5658-4.4105 3.0062-10.545 3.201-13.632zm6.2648-6.4153c-0.9863-2.2052-1.7934-0.40095-1.7934 4.0096 0 4.4105 0.8071 6.2148 1.7934 4.0096s0.9863-5.8138 0-8.0191zm29.645 3.8202c0-3.6325-1.5303-5.7514-3.4001-4.7087-1.8702 1.0427-2.4992 4.0148-1.3973 6.6046 2.8202 6.6305 4.7975 5.8492 4.7975-1.8959zm-11.793-3.6198c-1.1349-2.5588-1.9776-1.7988-2.1482 1.938-0.15289 3.3814 0.68621 5.2759 1.8677 4.21 1.1815-1.0659 1.3077-3.8325 0.28089-6.148zm583.96 532.27c-3.0062-8.8611-1.5804-10.862 7.7386-10.862 5.6117 0 9.3144 0.80172 8.2285 1.7816-1.0862 0.9799-4.662 1.8-7.9462 1.8226-3.2842 0.0224-5.5711 1.8452-5.0822 4.0504 0.71537 3.227-1.9466 6.1325-2.9386 3.2076zm-529.5-5.6134c0-1.7642 1.6-3.2076 3.5555-3.2076 1.9555 0 3.5555 1.4434 3.5555 3.2076s-1.6 3.2076-3.5555 3.2076c-1.9555 0-3.5555-1.4434-3.5555-3.2076zm46.222-1.6038c0-2.6463-2.363-4.8115-5.2515-4.8115-2.8881 0-7.7066-3.3809-10.708-7.5131-4.6951-6.4646-5.4182-26.05-5.1804-140.33 0.15289-73.052 0.31289-134.99 0.35662-137.63 0.13155-7.9522-0.0533-45.33-0.31644-63.831-0.13511-9.5264-1.9001-19.118-3.9207-21.314-2.0202-2.1963-3.4279-5.2278-3.1278-6.7366 1.3241-6.6536-0.70968-8.77-4.1767-4.3472-3.3528 4.2768-3.612 4.2768-2.3338 0 0.79111-2.6463 4.5127-5.2316 8.2705-5.7451 6.2012-0.84733 6.8312-3.8128 6.8156-32.076 0-17.128-1.2192-32.824-2.6887-34.878-1.4695-2.0546-0.66168-4.4707 1.7948-5.3692 3.3792-1.2359 3.168-2.462-0.86684-5.0363-3.5768-2.282-3.878-3.4189-0.91448-3.4518 2.8626-0.0321 4.2247-4.5216 3.8673-12.747-0.352-8.0876-1.9555-11.993-4.4188-10.756-2.1269 1.0681-1.8674-2e-3 0.57706-2.3778 2.6197-2.5463 4.4444-12.982 4.4444-25.418 0-25.493 6.0657-35.356 21.744-35.356 6.2111 0 9.756 1.3413 8.4774 3.2076-1.2085 1.7642-5.2085 3.2076-8.8888 3.2076-3.6803 0-7.5238 1.2151-8.541 2.7002-1.0176 1.4851-2.9394 120.59-4.2712 264.68-2.3107 250.03-2.1276 262.27 4.0145 268.39 4.1728 4.1599 8.8625 5.7204 13.339 4.4386 3.7969-1.0872 15.581-1.8832 26.187-1.7689 10.606 0.11419 23.631-1.392 28.944-3.3473 5.313-1.9553 23.26-3.984 39.882-4.5082s41.422-1.7868 55.11-2.806c13.689-1.0191 52.888-2.5031 87.11-3.2978 64.626-1.5007 116.82-3.624 156.44-6.3635 12.711-0.87892 42.311-2.3653 65.777-3.3032 41.082-1.6418 67.821-3.537 94.221-6.6781 7.9775-0.94918 16.273-5.1517 23.111-11.708 9.0758-8.702 10.667-12.755 10.667-27.178 0-9.3228 0.79999-16.955 1.7778-16.96 2.7235-0.0128 0.72355-422.97-2.0188-426.98-6.7068-9.7904-26.891-12.296-113.91-14.138-48.55-1.028-89.126-2.6758-90.169-3.6619-1.0432-0.98613 42.581-1.1663 96.943-0.40038s99.656 0.20144 100.65-1.2544c0.99733-1.4558 0.12089-2.647-1.952-2.647-2.0707 0-3.7653-1.4434-3.7653-3.2076 0-5.4203 7.2156-3.5496 9.2792 2.4057 1.0698 3.0874 4.1774 9.3803 6.9059 13.984 2.7282 4.604 3.9363 9.2952 2.6841 10.425-1.2522 1.1297-0.70186 2.0539 1.2227 2.0539 2.2745 0 3.0617 79.839 2.2492 228.08-1.2025 219.36-1.5178 228.56-8.2516 240.47-8.9002 15.739-14.935 18.512-44.854 20.608-13.39 0.93849-31.546 2.4181-40.346 3.2881-8.7999 0.86998-22.4 2.2159-30.222 2.9909-7.8221 0.77503-32.622 2.269-55.11 3.3199-32.071 1.4987-41.847 3.0507-45.333 7.1971-4.092 4.8674-4.4444 4.8393-4.4444-0.35425 0-4.3785-1.7902-5.1367-7.9999-3.3884-4.4 1.2388-9.0061 3.6645-10.236 5.3906-1.3102 1.8388-3.0343 1.3277-4.1635-1.2342-1.3685-3.1045-2.0089-3.2097-2.2083-0.36295-0.15288 2.2052-1.9751 4.0096-4.0458 4.0096-2.0711 0-2.7765-1.4434-1.568-3.2076s0.62044-3.2076-1.3074-3.2076c-1.9274 0-4.2364 2.526-5.1306 5.6134-1.5143 5.2283-1.6544 5.2338-2.0384 0.0795-0.34133-4.5896-1.969-5.0001-9.5327-2.4057-5.0161 1.7206-11.816 3.1062-15.111 3.0791-5.1822-0.0423-5.2707-0.48323-0.65741-3.2649 5.414-3.2646-89.175-1.5648-119.11 2.1404-7.8221 0.96819-20.522 1.6394-28.221 1.4916-7.6995-0.14788-17.643 1.8853-22.097 4.5181-10.083 5.9602-13.208 6.0657-10.783 0.36413 2.8181-6.6255-40.461-3.1296-46.453 3.7523-4.0156 4.6117-4.4444 4.5599-4.4444-0.53648 0-4.3785-1.7902-5.1367-7.9999-3.3884-4.3999 1.2388-9.0061 3.6645-10.236 5.3906-1.3102 1.8388-3.0343 1.3277-4.1635-1.2342-1.3685-3.1045-2.0089-3.2097-2.2083-0.36294-0.15289 2.2052-1.9751 4.0096-4.0458 4.0096-2.0711 0-2.7765-1.4434-1.568-3.2076s0.5031-3.2076-1.568-3.2076c-2.0707 0-3.8776 2.526-4.0152 5.6134-0.20621 4.5946-0.68834 4.7401-2.6666 0.80191-2.7794-5.5336-18.416-8.0415-18.416-2.9538 0 1.8623-3.0104 2.524-6.6901 1.4704-4.2222-1.209-7.4598-0.10553-8.7771 2.9915-2.6837 6.3096-9.4214 6.378-9.4214 0.0956zm227.28 4.0096c-3.0062-8.8611-1.5804-10.862 7.7386-10.862 5.6117 0 9.3144 0.80171 8.2285 1.7816-1.0862 0.9799-4.662 1.8-7.9462 1.8226-3.2842 0.0224-5.5711 1.8452-5.0823 4.0504 0.71537 3.227-1.9466 6.1325-2.9386 3.2076zm368.51-2.7616c1.6622-2.4265 10.811-1.9672 13.757 0.69067 0.96923 0.87437-2.081 1.5897-6.7782 1.5897-4.6975 0-7.8378-1.0262-6.9784-2.2804zm27.771-4.0688c0.4487-2.7569 1.8083-5.9083 3.0218-7.0032 1.2138-1.0948 1.8396 0.26495 1.3913 3.022-0.4487 2.7569-1.8083 5.9083-3.0222 7.0031-1.2135 1.0948-1.8393-0.26495-1.3909-3.0219zm14.803 1.4387c-1.125-1.6423-0.68621-3.744 0.97528-4.6704s3.0211 0.41728 3.0211 2.986c0 5.4086-1.1214 5.8812-3.9964 1.6844zm-692.88-8.7754c-1.3038-1.1761-2.3705-3.63-2.3705-5.453 0-2.0099 1.6562-1.8205 4.2072 0.48114 2.3143 2.0877 3.3809 4.5415 2.3705 5.453-1.0105 0.91151-2.9038 0.695-4.2072-0.48115zm527.4-1.2585c0-1.8683 1.6-2.5048 3.5555-1.4145s3.5555 2.619 3.5555 3.397c0 0.77799-1.6 1.4145-3.5555 1.4145s-3.5555-1.5286-3.5555-3.397zm-518.82-4.8894c0.17067-3.7367 1.0133-4.4968 2.1482-1.938 1.0272 2.3155 0.90097 5.0821-0.28088 6.148-1.1815 1.0659-2.0217-0.82867-1.8674-4.21zm54.426-37.21c-3.1082-4.537-11.248-53.587-9.1995-55.435 0.78576-0.70872 2.0782-75.36 2.8725-165.89 1.8919-215.68 2.5738-230.47 10.887-236 5.1196-3.4071 21.529-4.0462 76.836-2.9923 38.679 0.73702 71.2 2.1286 72.269 3.0923 1.0681 0.96377-2.4608 3.6878-7.8424 6.0534-11.531 5.0689-15.332 12.32-6.4579 12.32 3.4222 0 5.1036 1.0092 3.7361 2.2428-3.2718 2.9517-35.183 1.2105-39.008-2.1285-3.6188-3.1585 2.432-6.9232 18.976-11.807l12.444-3.6732-14.82-0.33635c-17.049-0.38691-26.911 2.2545-24.043 6.4397 2.561 3.7385-7.0876 12.47-13.78 12.47-2.8337 0-6.962 1.9674-9.1739 4.372-3.2675 3.5519-2.182 4.1001 5.787 2.9226 8.1318-1.2017 7.3076-0.28324-4.8231 5.3721-18.226 8.4972-28.141 25.948-25.038 44.065l2.0956 12.233-5.0527-9.6229c-3.4488-6.5692-5.1032-7.7746-5.2127-3.7987-0.0889 3.2034 1.4439 8.5286 3.4048 11.834 2.4938 4.2036 2.3285 6.6992-0.54933 8.3038-2.2631 1.2618-3.2092 0.97259-2.1027-0.64262 1.1065-1.6152-0.24533-5.7227-3.0062-9.1278-4.5656-5.6331-5.0076-4.7626-4.9048 9.6583 0.13866 19.206 6.3982 27.527 21.521 28.6 7.0243 0.4985 13.776 3.6722 17.637 8.2907 5.3734 6.4267 7.4349 6.972 14.604 3.8626 6.0686-2.6322 6.7189-3.6796 2.3826-3.8375-3.2807-0.11932-9.7794-4.6149-14.442-9.9899-7.4413-8.5782-9.6116-9.3839-17.754-6.5911-8.1012 2.7788-10.045 2.0869-15.352-5.4634-3.3418-4.7548-3.9484-6.8409-1.3479-4.6356 6.582 5.5818 12.235 5.0396 6.983-0.66975-3.5477-3.8563-2.678-5.0476 4.9439-6.7735 5.2252-1.1831 11.385-0.49468 14.159 1.5824 3.7752 2.8266 6.2901 2.4321 10.877-1.7066 5.5857-5.0391 5.8118-4.6378 3.542 6.2777-2.1418 10.3-1.4478 11.987 5.9466 14.455 7.0218 2.3435 9.6635 1.2134 16.39-7.0116 4.4103-5.3929 7.97-12.051 7.9107-14.796-0.0889-4.1285-0.73385-4.0209-3.7322 0.62318-5.3866 8.3436-9.548 6.7976-8.3437-3.0999 1.0688-8.7848 9.7485-16.948 18.02-16.948 2.4626 0 6.049-2.526 7.9704-5.6134 3.2483-5.2205 3.6782-5.1644 6.1393 0.8019 1.4556 3.5284 4.1806 7.3435 6.0557 8.478 3.9939 2.4162 47.373 0.63973 52.367-2.1445 1.8748-1.0453 3.4087-0.2749 3.4087 1.7125 0 2.1534 2.8729 2.7905 7.111 1.577 12.223-3.4998 7.7613 3.8021-5.895 9.6484-18.302 7.8353-56.986 4.4734-66.385-5.7693-6.4782-7.0602-6.4949-7.0367-4.4544 6.2528 1.8275 11.9 0.69012 14.806-10.539 26.932-6.923 7.4756-14.115 16.167-15.982 19.315-1.8674 3.1475-6.9983 6.2186-11.403 6.8248-4.4042 0.60615-7.5516 3.0241-6.994 5.3731 0.55751 2.3491-0.66239 6.0928-2.7104 8.3193-2.662 2.8934-2.2506 5.1516 1.4414 7.916 2.8412 2.1273 4.2897 5.9274 3.2192 8.4447-1.0709 2.5173-0.17422 4.5769 1.989 4.5769 2.165 0 4.0622-1.8043 4.2165-4.0095 0.15289-2.2053 1.958 0.32076 4.0081 5.6134 5.1814 13.377 15.38 22.942 39.818 37.344 30.054 17.713 42.182 17.117 63.415-3.1155 27.784-26.473 40.265-55.079 24.033-55.079-3.9111 0-7.111-1.4434-7.111-3.2076 0-1.7642-1.7817-3.2076-3.9591-3.2076-2.3218 0-3.3496 3.7464-2.4853 9.0588 0.83377 5.1255-0.63644 10.837-3.3859 13.154-5.7205 4.8209-11.001 1.7121-5.5082-3.243 2.0992-1.8938 2.9543-9.6871 1.9474-17.747-1.4581-11.67-0.4256-15.521 5.495-20.497 7.271-6.1113 23.943-11.548 31.366-10.229 7.4218 1.3195 36.794-26.62 39.148-37.239 3.0446-13.733 8.4927-13.035 8.4927 1.0886 0 21.28-15.517 44.002-30.05 44.002-6.3846 0-9.0609 1.7206-9.0609 5.825 0 3.2038-1.6259 6.7317-3.6135 7.8398-1.9875 1.1081-2.8049 3.1949-1.8169 4.6373 0.98808 1.4424-0.65884 4.4608-3.6593 6.7076-3.0009 2.2467-4.6282 6.0314-3.6163 8.4104 6.1386 14.431-40.656 70.522-60.182 72.139-3.9111 0.32378-9.8257 0.74597-13.144 0.93827-3.318 0.19214-7.1846 1.3888-8.5926 2.659-4.4849 4.0463-8.3363 2.4833-6.2083-2.5196 1.4087-3.3123-1.697-6.2607-9.8893-9.3877-13.11-5.0039-39.692-28.563-43.676-38.709-2.0384-5.1896-3.7169-3.2284-8.7867 10.265-6.8397 18.205-22.645 40.647-33.422 47.457-3.7557 2.3731-5.7727 5.8557-4.4828 7.739 1.2903 1.8833 3.1025 12.885 4.027 24.448 2.1824 27.292 10.467 62.727 15.294 65.418 3.5253 1.9657 21.968 0.73894 72.436-4.818l20.444-2.2511v-18.639c0-21.714-6.0725-50.074-11.352-53.017-5.6817-3.1678-10.325 5.6913-9.0271 17.222 1.2938 11.496-2.5834 14.209-5.5722 3.8986-2.3235-8.0153 7.852-41.588 12.605-41.588 1.8922 0 2.5646 2.0596 1.4937 4.5769-2.6937 6.3328 3.0954 9.5861 27.852 15.652 37.222 9.1204 46.145 23.967 60.137 100.06 2.9198 15.878 6.983 33.911 9.0299 40.074 4.5525 13.708 4.9052 24.933 0.65101 20.71-5.4936-5.4523-11.384-24.656-22.09-72.011-10.368-45.859-21.79-73.825-31.212-76.417-3.328-0.91562-4.1564 0.55428-2.6791 4.7537 1.1765 3.3435 2.7989 18.31 3.6056 33.258 1.4215 26.339 5.6966 42.942 11.661 45.286 4.4927 1.7658 18.157 29.603 20.822 42.423 1.9125 9.1971 0.47999 14.452-7.1366 26.177l-9.5298 14.67 45.592-2.1009c31.264-1.4407 50.062-3.8628 59.814-7.7072 7.8221-3.0834 21.119-8.2462 29.549-11.473 8.4298-3.2267 16.83-8.4003 18.667-11.497 4.0256-6.7857-1.9897-23.461-7.3788-20.456-1.9911 1.1102-2.5472 3.5852-1.2352 5.5001 1.3554 1.9787 0.74417 2.5667-1.4162 1.3622-2.0906-1.1657-4.4757-1.0279-5.2998 0.30633-0.82417 1.3342-1.0308 0.66764-0.45902-1.4811 0.57208-2.1488-0.49031-4.76-2.3605-5.8027-1.8702-1.0427-3.4247-6e-3 -3.4545 2.303-0.03911 3.0692-1.0254 2.9044-3.6636-0.61259-2.6385-3.5174-2.9735-2.2233-1.2459 4.8114 1.2999 5.2926 4.7964 12.149 7.7702 15.236 4.9873 5.178 4.6055 5.6096-4.9219 5.5643-5.681-0.0257-12.429-1.2506-14.996-2.719-6.2691-3.5867-6.4998-21.363-0.36373-28.033 4.3057-4.6806 3.9221-5.9682-3.0179-10.125-6.0117-3.6011-7.9512-7.8722-7.9512-17.51 0-7.0112-2.6272-20.901-5.8382-30.865-4.8767-15.134-5.1345-20.491-1.5662-32.529 2.3498-7.9259 6.7775-16.908 9.8392-19.96 3.2234-3.2135 4.7317-8.4299 3.5829-12.393-1.0908-3.764-0.27377-10.227 1.8137-14.363 3.1797-6.2952 2.3221-9.101-5.2668-17.238-18.701-20.05-20.597-43.539-5.4815-67.908 10.349-16.684 22.902-22.211 49.68-21.871 12.413 0.15718 41.853 0.07345 65.422-0.18636 41.629-0.45853 43.484-0.18059 64.937 9.725 12.146 5.6084 25.938 14.329 30.647 19.378 11.727 12.573 23.917 42.973 21.178 52.817-1.2107 4.3514-0.25956 12.141 2.1138 17.309 7.0502 15.355 2.1305 18.196-7.2554 4.1886-20.256-30.229-53.017-58.16-86.214-73.503-6.2545-2.8906-12.172-6.2173-13.149-7.3927-4.3086-5.1796-46.477-15.807-67.555-17.025-30.059-1.7374-42.975 1.6889-53.144 14.098-11.65 14.216-13.164 32.917-4.1834 51.668 4.0135 8.38 8.9133 15.236 10.888 15.236s6.2773-4.6912 9.5615-10.425c9.389-16.393 14.849-18.842 38.768-17.39 30.649 1.861 78.395 22.875 102.59 45.154 16.025 14.754 20.975 22.639 32.413 51.625 2.5315 6.4153 2.5315 6.4153 5.2351 0 2.315-5.4933 3.2337-4.7094 6.3942 5.4554 3.4744 11.174 1.8581 24.718-4.656 39.02-2.8423 6.2398-0.21333 6.0857 21.607-1.2662 17.201-5.7956 16.935-3.0675 16.2-165.99-0.38008-84.191-1.5868-156.32-2.6816-160.29-1.9662-7.1282-2.764-7.2211-64.716-7.5387-62.457-0.32012-111.7-1.5748-165.83-4.2254-15.644-0.76601-36.044-1.4998-45.333-1.6306-9.2888-0.13087-16.889-1.5179-16.889-3.0825 0-1.5646 8.3999-2.4081 18.666-1.8746 66.767 3.4697 214.68 6.507 224.89 4.6178 1.9555-0.36205 4.3555-0.43569 5.3333-0.16359 0.97777 0.27201 11.045 0.9366 22.371 1.4768 11.326 0.5402 22.526 2.7258 24.889 4.857 3.2476 2.93 4.4931 53.047 5.1071 205.52l0.81208 201.65-12.491 9.8944c-12.771 10.116-19.355 12.391-19.355 6.6868 0-1.7642 1.5353-3.2076 3.4115-3.2076 1.8766 0 7.4765-3.9547 12.444-8.7882 8.391-8.1638 9.0328-11.013 9.0328-40.095 0-30.493-1.5626-35.03-9.5764-27.8-2.1383 1.929-10.715 3.7333-19.06 4.0095-11.271 0.37315-17.656 2.7333-24.834 9.1794-5.3148 4.7724-8.8298 9.4287-7.8115 10.347 1.0183 0.91863 4e-3 3.6779-2.2528 6.1317-2.2574 2.4538-3.6853 7.7424-3.1733 11.753 1.3667 10.706-6.6108 11.378-11.174 0.94151l-3.9274-8.9814 1.301 8.821c0.71572 4.8516 0.0391 8.821-1.5008 8.821-5.2671 0-5.6284-11.216-0.65529-20.346 7.1686-13.16 2.609-14.387-6.1969-1.6675-5.5391 8.0011-6.9549 13.893-5.4826 22.815 1.1804 7.1542 0.52692 12.029-1.6128 12.029-1.9786 0-3.6216-0.36086-3.6512-0.80191-0.0356-0.44105-2.2464-6.4866-4.9272-13.434-4.4042-11.416-4.2048-13.79 2.0704-24.652 4.7562-8.2319 10.125-12.649 17.039-14.019 6.9268-1.3725 10.811-4.5762 12.378-10.209 3.2412-11.65 0.43377-12.375-9.7076-2.5084-6.7068 6.5253-10.722 8.0233-16.823 6.2764-7.7261-2.2122-7.6077-2.4722 3.3009-7.2384 10.749-4.6966 23.472-20.48 19.441-24.116-1.0379-0.93644-5.943 0.19567-10.9 2.516-10.625 4.973-31.178 0.30568-28.313-6.4295 0.9447-2.2211-0.0498-5.6336-2.2119-7.5834-2.161-1.9498-2.6172-4.6517-1.013-6.0042 1.6039-1.3526 3.6305-0.6549 4.5034 1.5503 0.87324 2.2053 3.2252 4.0095 5.227 4.0095 2.0018 0 2.7189-2.1652 1.5932-4.8115-1.1257-2.6463-0.70328-4.8115 0.9383-4.8115s1.5385-6.8563-0.22755-15.236c-1.7678-8.38-2.8199-18.846-2.3388-23.257 0.48142-4.4116-0.38399-9.8597-1.9235-12.107s-1.8094-8.1512-0.59982-13.12c2.0682-8.4953 0.8647-9.6233-20.181-18.916-29.176-12.882-73.935-17.103-73.935-6.9723 0 1.4946-4 8.035-8.8888 14.534-10.003 13.298-11.342 20.544-3.7952 20.544 9.7659 0 15.258 29.658 7.4769 40.372-3.2924 4.533-4.8778 10.758-3.6373 14.284 1.6754 4.7627 0.87466 5.7906-3.3674 4.3221-7.5188-2.6029-7.0012-8.3886 1.5452-17.279 7.4364-7.7354 9.4303-16.038 3.8517-16.038-1.7923 0-3.9324 1.8043-4.7551 4.0095-1.1755 3.1508-2.7253 3.094-7.2365-0.26527-5.0215-3.7389-6.4309-2.7854-11.245 7.6089-6.9994 15.113-6.9773 31.12 0.07467 52.539 3.0673 9.3181 4.7036 18.995 3.6362 21.505-2.5639 6.0279 10.022 17.12 20.12 17.733 16.986 1.0303 40.709-0.66042 57.08-4.0681 9.3944-1.9554 17.833-2.8764 18.753-2.0468 2.7904 2.5174-19.952 20.934-30.906 25.027-8.4177 3.1455-10.261 5.7611-10.261 14.559 0 13.629 8.9432 18.385 29.401 15.636 17.703-2.3791 19.541-3.5137 13.917-8.5878-2.3143-2.0876-4.081-6.033-3.9267-8.7675 0.24177-4.3117 0.54114-4.333 2.2418-0.16038 2.7907 6.8471 12.164 16.038 16.357 16.038 1.9555 0 0.90772-2.6397-2.3289-5.8659-3.2362-3.2263-5.8844-7.9896-5.8844-10.585s-1.5527-6.1202-3.4506-7.8324c-2.2307-2.0124-0.9959-6.4892 3.4922-12.661l6.9429-9.5482-2.0711 16.029c-1.6917 13.094-0.79004 17.351 4.9247 23.246 3.8478 3.9694 8.6748 7.2172 10.727 7.2172s4.2645 1.3426 4.9162 2.9835c1.2626 3.1782 12.736 4.7472 28.74 3.9306 7.223-0.36853 9.7777-2.175 9.7777-6.9141 0-3.5284 1.5328-6.4153 3.4058-6.4153 5.318 0 22.372-28.29 22.372-37.112 0-6.6212 0.85937-7.2716 5.2575-3.9785 5.3439 4.0011 4.8181 19.417-1.1285 33.071-2.4846 5.7056-2.1301 5.9283 3.2053 2.013 3.2995-2.4213 5.9989-7.1125 5.9989-10.425 0-3.3124 1.6-6.0225 3.5555-6.0225 4.5468 0 4.4782 3.0704-0.34844 15.56-2.1468 5.5558-5.4545 10.102-7.3503 10.102-1.8962 0-2.432 2.8869-1.1904 6.4153 1.9349 5.4999 0.57386 6.4611-9.538 6.7367-6.4874 0.17674-27.414 1.2594-46.503 2.4057-24.099 1.4472-34.261 1.0334-33.243-1.3536 2.24-5.2569-10.302-11.288-14.882-7.1562-5.4015 4.8732-46.754 1.6252-50.589-3.9735-2.5532-3.7272-3.4734-3.5778-5.366 0.87142-4.4355 10.428 1.4314 12.537 28.9 10.385 18.001-1.4096 26.335-0.95825 26.335 1.4262 0 2.1502-9.2066 3.5584-24 3.6708-13.2 0.1004-31.628 0.72496-40.951 1.388-9.917 0.7053-16.1-0.0359-14.901-1.7863 1.1275-1.6455 5.9551-2.9918 10.729-2.9918 6.1934 0 8.679-1.7669 8.679-6.1694 0-5.7777-0.67448-5.8659-10.624-1.3882-5.8428 2.6297-11.902 6.8422-13.464 9.3611-1.9189 3.0933-11.454 5.0605-29.376 6.0609-14.594 0.81455-42.935 2.4376-62.979 3.6068-29.615 1.7274-36.454 1.3026-36.498-2.2669-0.03556-2.9737-0.89848-3.2403-2.6666-0.82552-1.5452 2.1098-21.496 4.4623-48.834 5.7582-25.422 1.2051-53.422 2.9862-62.222 3.9581l-16 1.767 1.2426-29.177c0.84124-19.753-0.0356-29.177-2.6666-29.177-2.5525 0-3.9093 10.02-3.9093 28.869 0 15.878-1.2 28.869-2.6666 28.869-1.4666 2.5e-4 -2.1027-12.269-1.413-27.265 0.84657-18.414-0.0356-27.265-2.6666-27.265-2.5521 0-3.9203 9.5989-3.9203 27.5 0 24.453-0.6887 27.38-6.2158 26.42-6.7192-1.1673-6.6644-0.94119-7.4648-30.854-0.29866-11.13-1.9047-19.477-3.5704-18.548-1.6661 0.92886-2.2556 12.562-1.3102 25.85l1.7187 24.162h-16.258c-8.9418 0-17.428-1.7085-18.858-3.7967zm23.569-6.6281c0.0356-2.673 1.2032-2.4057 3.5011 0.80191 2.4878 3.4732 3.3632 0.79658 3.1466-9.6229-0.3271-15.79-5.6536-35.801-6.402-24.057-0.27378 4.2954-1.3141 5.1302-3.1484 2.5263-4.0842-5.798-17.526-1.3425-19.885 6.5912-3.3333 11.209-2.55 14.583 4.956 21.355 7.9725 7.1924 17.749 8.5114 17.832 2.4057zm-10.028-10.425c0.0711-5.2926 0.86932-7.0694 1.771-3.9485 0.90132 3.1209 0.8423 7.4512-0.13156 9.6229-0.97385 2.1717-1.7116-0.38181-1.6391-5.6744zm34.862-8.0191c0-12.639-1.5346-22.453-3.5107-22.453-2.0451 0-2.9166 7.0287-2.0874 16.84 0.78257 9.2621 1.5623 19.366 1.7326 22.453 0.17066 3.0874 1.11 5.6134 2.0878 5.6134 0.97777 0 1.7778-10.104 1.7778-22.453zm31.579-8.821c0.23111-7.4978 2.1283-13.632 4.2158-13.632 2.0871 0 2.9724 2.526 1.9669 5.6134-2.8682 8.8082-3.8634 35.66-1.4037 37.879 1.2206 1.1012 3.244-4.9865 4.4967-13.528 4.4935-30.641 3.6419-35.427-6.1884-34.785-7.5231 0.49164-8.033 2.037-8.5521 25.927-0.38186 17.568 0.30933 22.436 2.246 15.781 1.5388-5.2926 2.9873-15.758 3.2188-23.255zm66.52 25.33c-0.83981-1.2254 4.5599-1.9211 11.999-1.546 13.317 0.67159 13.641 0.4092 21.046-17.049 4.1365-9.7519 7.4175-21.572 7.2913-26.266-0.15644-5.8156-3.1897-1.1352-9.5174 14.687-5.1082 12.773-9.9658 22.611-10.795 21.863-0.82879-0.74776 1.8542-10.121 5.9619-20.83 8.4735-22.089 8.5841-22.652 4.4412-22.652-1.6654 0-5.8478 9.399-9.2948 20.887-3.4467 11.488-7.9558 21.829-10.021 22.98-2.4633 1.3734-2.7939-0.0192-0.96212-4.0466 4.3957-9.6671 8.9361-27.978 8.6804-35.008-0.128-3.5284-2.305 0.0802-4.8376 8.0191-10.108 31.688-16.636 38.231-7.6006 7.6181 4.8092-16.294 4.7797-16.439-3.3496-16.439-6.4248 0-8.946 2.519-11.638 11.628l-3.4361 11.628-0.36764-10.082c-0.36764-10.093-11.034-18.672-11.034-8.8742 0 2.6951 1.6 4.008 3.5555 2.9177s3.5555 0.42235 3.5555 3.3615c0 3.4323-1.9079 4.6835-5.3333 3.4976-3.7457-1.2967-5.3496 0.27201-5.3877 5.2702-0.0356 3.9141-1.6892 9.2817-3.6874 11.928-2.6062 3.4517-2.9706 1.1855-1.2892-8.0191 1.2889-7.0568 2.5482-13.552 2.7985-14.434 0.24889-0.8821-1.1452-2.3255-3.1008-3.2076-2.0622-0.93028-4.8501 7.4891-6.6378 20.048-1.6956 11.908-4.6033 21.652-6.4618 21.652-1.8588 0-2.4473-2.6495-1.3081-5.8878 3.6896-10.488 5.51-35.812 2.5742-35.812-2.4245 0-11.112 43.96-9.0616 45.851 2.0085 1.852 54.519-1.7803 53.217-3.6812zm-26.708-5.5493c0.17067-3.7367 1.0133-4.4968 2.1482-1.938 1.0272 2.3155 0.90097 5.0821-0.28088 6.148-1.1815 1.0659-2.0217-0.82866-1.8674-4.21zm10.947-10.959c0-4.4105 0.8071-6.2148 1.7934-4.0096 0.9863 2.2053 0.9863 5.8138 0 8.0191s-1.7934 0.40096-1.7934-4.0096zm12.096-9.5025c1.8208-13.789 3.7806-18.713 6.3253-15.891 0.66275 0.7351-0.91448 7.832-3.505 15.771l-4.7103 14.434zm-19.207 3.0872c0-4.4105 0.8071-6.2148 1.7934-4.0095 0.9863 2.2052 0.9863 5.8138 0 8.0191s-1.7934 0.40096-1.7934-4.0096zm63.438 18.773c0-5.9554 15.081-41.521 16.907-39.874 0.91839 0.82872-0.90986 8.3376-4.0629 16.686-7.398 19.587-7.0502 21.51 1.3778 7.6215 8.2214-13.547 8.8934-28.434 1.9591-43.406-6.902-14.903-12.997-14.296-7.2732 0.7238 2.5209 6.6148 3.2622 14.053 1.6789 16.84-1.5594 2.7459-6.934 14.014-11.943 25.04-7.297 16.063-8.0675 20.048-3.8755 20.048 2.8775 0 5.2316-1.6561 5.2316-3.6802zm-170.77-33.781c2.0654-1.7015-7.4214-7.3298-12.468-7.3971-2.0256-0.0257-3.6824 2.8369-3.6824 6.3642 0 4.9674 1.6316 5.9623 7.238 4.413 3.9808-1.1002 7.9917-2.6212 8.9126-3.38zm309.43 2.366c0-1.6601-1.6-3.9104-3.5555-5.0008s-3.5555 0.26784-3.5555 3.0183c0 2.7504 1.6 5.0008 3.5555 5.0008s3.5555-1.3582 3.5555-3.0183zm-274.66-8.7529c11.8-1.9389 15.082-5.8035 7.111-8.3719-2.4444-0.7876-3.1246-2.7002-1.5111-4.2501 1.6405-1.576 4.4608-0.35572 6.3989 2.7685 2.2698 3.6592 7.7805 5.5866 15.973 5.5866 11.122 0 12.242-0.75251 10.116-6.7948-1.7273-4.9099-1.0538-6.3974 2.4274-5.3621 2.6496 0.78796 5.3446 4.6777 5.9893 8.6438 0.79502 4.8933 2.8885 6.6168 6.513 5.3621 2.9376-1.017 7.5914-1.849 10.342-1.849 2.7502 0 4.7658-2.526 4.4792-5.6134-1.078-11.603 0.7687-16.84 5.9384-16.84 5.708 0 6.9905-8.5857 2.7157-18.182-2.0711-4.6493-3.0865-3.5324-4.865 5.351l-2.2478 11.227-0.46826-10.425c-0.47964-10.685-7.3788-14.925-7.8289-4.8115-0.21333 4.8-0.69261 4.6839-3.3056-0.80191-2.6709-5.6073-3.1544-5.2032-3.8385 3.2076l-0.78256 9.6229-1.4812-8.821c-1.4613-8.7039-8.0685-12.593-8.1741-4.8114-0.0356 2.673-1.2035 2.4057-3.5011-0.80191-2.5692-3.5864-3.4606-1.7971-3.5011 7.0279-0.064 13.917 6.8244 20.124 7.5409 6.7939 0.4064-7.5648 0.73137-7.8524 2.0249-1.7931 0.84763 3.9694 3.9242 7.2172 6.8369 7.2172 2.9127 0 4.3274 1.4136 3.1438 3.1413-1.1836 1.7278-0.39004 6.4189 1.7639 10.425 3.7539 6.9815 3.6867 7.0253-1.6131 1.057-3.0414-3.4245-5.5295-7.3043-5.5295-8.6216 0-1.3174-3.2-2.1778-7.111-1.912-3.9111 0.26591-7.111 1.4124-7.111 2.548 0 1.1356-4.4 2.1344-9.7777 2.2196-34.591 0.54813-43.058 3.3869-30.222 10.132 3.4222 1.7982 4.6222 3.2675 2.6666 3.265-1.9555-2e-3 -6.5912-2.0775-10.301-4.6112-3.7105-2.5337-8.2061-3.7926-9.9906-2.7977-1.7845 0.99498-0.34844 3.7897 3.1907 6.2105 3.5392 2.4208 4.6307 4.4474 2.4256 4.5035-2.2048 0.0561-5.8638-1.9141-8.1304-4.3783-4.0305-4.3814-18.082-3.4826-18.082 1.1566 0 4.143 15.769 9.5146 23.111 7.8723 3.9111-0.87489 12.311-2.4451 18.666-3.4893zm20.298-10.896c-3.8268-5.5859 0.53155-6.7689 5.4079-1.4679 2.8046 3.0485 3.0744 4.889 0.71679 4.889-2.0796 0-4.8358-1.5395-6.1247-3.421zm-59.64-0.30473c5.505-2.0491 11.05-3.5405 12.322-3.3141 1.2718 0.22614 1.8741-4.9535 1.3386-11.511-0.53546-6.5572-0.25244-8.3136 0.6279-3.903 0.8807 4.4105 3.296 9.4625 5.367 11.227 2.6112 2.2242 3.1744 0.99501 1.8371-4.0096-1.061-3.9695-0.47857-7.2172 1.2938-7.2172s3.2227 2.1652 3.2227 4.8115 1.7077 4.8115 3.7952 4.8115c2.0871 0 2.9184-2.526 1.8467-5.6134-2.6094-7.519-9.2447-76.481-8.7188-90.616 0.2311-6.1747 2.6112 8.7626 5.292 33.194 4.7722 43.493 13.682 84.794 10.597 49.124-1.4083-16.286 3.5719-16.974 5.5807-0.77034 0.63964 5.1566 3.3315 10.019 5.9822 10.805 7.068 2.0963 1.7298-18.781-6.439-25.182-4.9414-3.8724-7.3791-13.913-10.797-44.471-2.4281-21.708-5.6899-43.274-7.2486-47.924-2.72-8.1146-2.8633-8.0029-3.5605 2.7713l-0.72603 11.227-2.7143-9.6229c-2.1411-7.5913-2.9209-4.8825-3.6935 12.831l-0.97919 22.453-2.4384-16.038c-1.3411-8.821-2.6898-12.705-2.9969-8.6317-0.74346 9.8592-7.6696 5.6841-7.6696-4.6234 0-5.9539-1.6288-7.7823-6.2222-6.9851-5.5512 0.96348-6.2758 6.0201-6.7185 46.895-0.3584 33.053 0.63217 45.464 3.5555 44.553 2.8089-0.87479 3.8634-14.785 3.4378-45.343-0.33778-24.245 0.0853-43.448 0.94434-42.675 0.85724 0.7733 3.1957 21.471 5.1967 45.996 2.001 24.524 4.4526 47.476 5.4478 51.005 1.633 5.7916 1.4304 5.871-2.0839 0.81664-3.1228-4.4914-4.8262-4.8119-8.6129-1.6207-2.5962 2.1879-4.0117 5.6438-3.1456 7.6799 0.86577 2.0361-0.13511 4.6549-2.2233 5.8196-3.5776 1.9947-5.5765 17.777-2.2517 17.777 0.85048 0 6.0504-1.6765 11.555-3.7256zm-9.2657-7.7684c0.17067-3.7367 1.0133-4.4968 2.1482-1.938 1.0272 2.3155 0.90097 5.0821-0.28088 6.148-1.1815 1.0659-2.0217-0.82866-1.8674-4.21zm14.222-6.4153c0.17067-3.7367 1.0133-4.4968 2.1482-1.938 1.0272 2.3155 0.90097 5.0821-0.28088 6.148-1.1815 1.0659-2.0217-0.82866-1.8674-4.21zm15.007-23.79c0-9.7031 0.6663-13.673 1.4809-8.821 0.81492 4.8516 0.81492 12.79 0 17.642-0.81457 4.8516-1.4809 0.8821-1.4809-8.821zm-9.3617-5.3461c-1.3038-1.1761-2.2329-5.8673-2.065-10.425 0.29867-8.1365 0.36231-8.1152 3.4382 1.1753 3.232 9.7626 2.7552 12.974-1.3731 9.2496zm5.6373-34.749c0.0391-7.0568 0.76764-9.566 1.6181-5.576 0.85012 3.99 0.81812 9.7638-0.0711 12.831-0.88995 3.0668-1.5858-0.19791-1.5463-7.2546zm112.88 77.173c0-2.5422 1.7714-5.6098 3.9363-6.817 2.6474-1.476 3.1534 0.0321 1.5452 4.602-1.8201 5.1738-1.1388 6.3633 2.8529 4.9814 3.8264-1.3247 4.5176-4.137 2.5575-10.405-3.3923-10.846-0.90879-19.533 3.7059-12.962 2.0434 2.9094 3.089 0.34748 3.1253-7.6562 0.05689-12.755-6.7178-17.078-7.5409-4.8114l-0.48426 7.2172-1.5406-7.2172c-2.4234-11.35-8.1738-8.4238-6.3029 3.2076l1.6768 10.425-3.6451-10.425c-4.854-13.883-6.9973-13.146-6.9973 2.4057 0 9.4824 1.4464 12.831 5.543 12.831 3.0489 0 4.5383 1.467 3.3098 3.26-1.2281 1.793-3.5399 2.5315-5.1367 1.6412-1.5968-0.89032-3.6643 1.973-4.5944 6.3629-1.1321 5.3423-0.0924 7.9817 3.1491 7.9817 2.662 0 4.8401-2.08 4.8401-4.6221zm53.333-1.4014c0-1.3053-2.4828-5.1751-5.5174-8.5997-5.3119-5.9946-5.4406-5.9278-3.4567 1.7927 2.0419 7.947 2.0106 7.9583-3.4659 1.263-6.6342-8.1105-23.115-6.8946-23.115 1.7055 0 4.3232 3.6192 5.5079 17.778 5.82 9.7777 0.21555 17.778-0.67614 17.778-1.9814zm-65.777-6.807c1.2085-1.7642 0.5031-3.2076-1.568-3.2076-2.0707 0-3.7653 1.4434-3.7653 3.2076s0.70541 3.2076 1.568 3.2076c0.86221 0 2.5568-1.4434 3.7653-3.2076zm-51.134-12.029 0.42062-8.821 5.4286 19.246 0.42062-11.628c0.37831-10.463-0.49955-11.628-8.7665-11.628-7.6333 0-8.8443 1.153-7.1597 6.8162 1.1154 3.7489 2.0494 8.6205 2.0761 10.826 0.0995 8.1767 7.175 3.6853 7.5804-4.8115zm89.142-8.821c-0.79892-6.1747-2.0778-11.227-2.8416-11.227-0.76372 0-1.3888 5.052-1.3888 11.227 0 6.1747 1.2786 11.227 2.8416 11.227s2.1877-5.052 1.3888-11.227zm9.7297-2.4278c-1.8115-5.6982-3.1182-14.7-2.9038-20.005 0.32-7.9344 0.93261-7.1489 3.4538 4.4314 4.31 19.796 8.2804 21.325 5.099 1.9628-1.4492-8.821-3.1434-27.365-3.7646-41.21-1.5228-33.937-5.1779-35.415-5.1779-2.0935 0 29.649-2.6769 33.899-3.9182 6.2204-0.84728-18.893-6.0085-37.209-6.4984-23.061-0.13866 3.9695-2.1557 7.2172-4.4849 7.2172-2.3296 0-1.1296 2.1377 2.6666 4.7505 5.9797 4.116 6.1891 5.1871 1.5683 8.0191-3.862 2.3668-4.1955 3.9352-1.2099 5.6847 2.2681 1.3289 5.2721 14.681 6.6758 29.671 2.7161 29.003 3.9096 33.164 8.7398 30.471 1.6771-0.93509 1.5666-6.3592-0.24533-12.06zm306.9-36.866c2.1429-3.9695 6.0259-7.2172 8.6289-7.2172 5.9854 0 6.1905-5.347 0.28799-7.5076-3.3447-1.2243-3.1246-2.469 0.88888-5.0296 4.5006-2.8714 4.2229-3.4181-1.7778-3.5009-5.4556-0.07538-5.9665-0.75232-2.1941-2.9077 4.16-2.3769 4.1109-3.8478-0.32-9.5534-2.8796-3.7092-6.2926-5.7908-7.5836-4.6259-1.2914 1.1649-2.3477 0.43399-2.3477-1.6242 0-2.0582 1.6135-3.7423 3.5857-3.7423 2.1564 0 1.8606-2.4918-0.74239-6.2522-3.0588-4.4187-5.5925-5.3056-8.6392-3.0243-3.2273 2.4163-3.857 1.3673-2.5049-4.1726 1.4435-5.9128 1.0407-6.4333-2.0028-2.589-4.8195 6.0871-5.0314 18.247-0.36302 20.85 1.9555 1.0903 3.5047 3.7016 3.4424 5.8027-0.0604 2.1011-2.5841 0.93336-5.6042-2.595-3.5527-4.1506-4.9105-10.504-3.8471-17.997 1.3564-9.5581-0.0711-13.042-8.1724-19.94l-9.8161-8.3583-2.3552 18.78c-2.832 22.583 5.5555 43.41 16.447 40.841 3.9274-0.92656 6.3498 0.26591 6.3498 3.126 0 3.5777 1.5562 3.8726 6.8774 1.3035 10.034-4.8446 11.509-4.1186 6.486 3.1927-3.6999 5.3854-3.5512 7.0431 0.85866 9.5738 3.5445 2.0341 3.8424 3.0771 0.88888 3.1098-2.6912 0.02887-4.3338 4.1614-4.1639 10.474 0.15289 5.7337 1.0716 8.2597 2.038 5.6134 0.96639-2.6463 3.5104-8.0592 5.6533-12.029zm13.361 3.6168c0-3.99-1.1132-4.3707-4.7715-1.6317-2.6243 1.9649-5.8243 2.6228-7.111 1.462-1.2867-1.1608-2.3395-0.42659-2.3395 1.6316 0 2.0582 3.2 3.7422 7.111 3.7422 4.1891 0 7.111-2.1384 7.111-5.2042zm5.9843-11.435c-1.1349-2.5588-1.9776-1.7988-2.1482 1.938-0.15289 3.3814 0.68622 5.2759 1.8677 4.21 1.1815-1.0659 1.3077-3.8325 0.28089-6.148zm-173.78-54.169c-0.70079-1.8965-2.7939-3.4482-4.6517-3.4482-1.8578 0-3.9512 1.5517-4.6517 3.4482-0.70079 1.8965 1.3923 3.4482 4.6517 3.4482 3.2593 0 5.3525-1.5517 4.6517-3.4482zm-307.95-6.7416c16.633-4.4958 38.865-23.065 48.935-40.872 8.562-15.141 9.0598-19.506 2.2236-19.506-5.9918 0-26.965-23.002-26.965-29.573 0-2.526-3.8805-7.8813-8.6228-11.901-27.291-23.13-15.916-97.933 20.341-133.75l17.052-16.847-15.274-0.99353c-8.4003-0.54642-23.597-0.50305-33.77 0.0962l-18.496 1.0899-1.9367 13.344c-3.6583 25.203-4.4419 242.69-0.87466 242.69 1.8834 0 9.708-1.6985 17.389-3.7745zm502.19-41.934c-6.3996-18.636-13.864-30.505-18.234-28.992-2.6467 0.91629-4.6556-0.61237-4.6556-3.5429 0-2.8351-1.9274-4.7938-4.283-4.3527-2.3555 0.44105-4.3555-0.8821-4.4444-2.9403-0.17778-4.0922-4.7079-9.0222-8.4575-9.2019-1.3038-0.06255-5.7375-1.8051-9.8523-3.8724-7.8364-3.9366-54.74-9.4052-54.74-6.3822 0 0.95944 10.355 6.116 23.011 11.459 26.142 11.037 26.905 11.53 56.538 36.538 23.713 20.013 28.916 22.351 25.117 11.287zm-463.77-43.916c0-1.6601-1.6-3.9104-3.5555-5.0008-1.9555-1.0903-3.5555 0.26784-3.5555 3.0183 0 2.7504 1.6 5.0008 3.5555 5.0008s3.5555-1.3582 3.5555-3.0183zm12.154-13.29c-0.64781-1.0306-2.1322-6.7605-3.2988-12.733-1.1662-5.9726-2.4359-11.06-2.8213-11.305-3.8503-2.4475-27.367-3.4371-27.367-1.1517 0 1.6533 5.9999 3.0281 13.333 3.0551 9.8751 0.03625 11.95 0.84935 7.9999 3.1344-2.9333 1.6969-8.1332 2.2993-11.555 1.3385-3.4222-0.96069-6.2222-0.96264-6.2222-0.0032 0 4.0962 13.248 20.953 15.132 19.253 1.1381-1.0269 4.0504 1.4721 6.4714 5.5534 4.2328 7.135 4.5002 7.1765 6.9542 1.0766 1.4037-3.4891 2.022-7.1869 1.3738-8.2175zm162.89-14.004c4.1976-6.767 0.55075-10.703-5.1509-5.5596-2.3139 2.0876-6.4013 3.7957-9.0833 3.7957-2.6819 0-7.0211 1.9351-9.6429 4.3002-3.985 3.5951-2.6954 4.1867 7.8641 3.6083 7.575-0.41488 13.985-2.8744 16.013-6.1446zm-106.6-128.99c-2.4444-0.88983-6.4444-0.88983-8.8888 0-2.4444 0.88983-0.44444 1.6179 4.4444 1.6179 4.8888 0 6.8888-0.72807 4.4444-1.6179zm326.22 409.68c0-1.6601 1.6-3.9104 3.5555-5.0008 1.9555-1.0903 3.5555 0.26783 3.5555 3.0183 0 2.7504-1.6 5.0008-3.5555 5.0008-1.9555 0-3.5555-1.3582-3.5555-3.0183zm-22.882-21.703c-1.9296-4.5715-1.521-4.94 1.9904-1.7956 2.4298 2.1759 3.5224 4.7641 2.4277 5.7517s-3.083-0.79263-4.4181-3.9561zm59.876-1.4359c-1.5719-2.2944-0.97527-2.8325 1.568-1.4145 4.0657 2.2668 5.8478-4.894 4.7135-18.94-0.45759-5.6676-0.10666-5.7904 3.0122-1.054 1.942 2.9488 2.8405 8.7225 1.9968 12.831-0.84372 4.1081-1.6526 8.5518-1.798 9.875-0.40675 3.7033-6.6513 2.8497-9.4925-1.2975zm-61.882-18.109c0-3.3734 7.7222-10.264 11.503-10.264 1.633 0 1.2569 2.8869-0.83625 6.4153-3.7582 6.3349-10.667 8.8279-10.667 3.8492zm177.78-16.68c0-3.5284 0.61332-6.4153 1.3632-6.4153 0.7495 0 2.1998 2.8869 3.2224 6.4153 1.0229 3.5284 0.4096 6.4153-1.3628 6.4153-1.7724 0-3.2227-2.8869-3.2227-6.4153zm-405.05-14.702c0.17066-3.7367 1.0133-4.4968 2.1482-1.938 1.0272 2.3155 0.90097 5.0821-0.28088 6.148-1.1815 1.0659-2.0217-0.82866-1.8674-4.21zm121.92 1.9115c-5.334-1.9428-8.0931-6.3962-9.313-15.033-1.6953-12.002 3.5566-23.068 6.9663-14.678 0.89634 2.2053 4.9703 4.0095 9.0534 4.0095 4.0828 0 10.256 2.3126 13.718 5.1391 3.462 2.8265 10.387 5.3526 15.388 5.6134 11.698 0.61006 11.455 2.5079-1.4236 11.098-10.99 7.33-21.582 8.5162-34.39 3.8512zm9.357-6.4557c0-1.7642 3.2-3.2076 7.111-3.2076 3.9111 0 7.111-1.4434 7.111-3.2076s-2.2691-3.2076-5.0424-3.2076-7.7581-0.94006-11.077-2.089c-4.8913-1.6933-5.5747-0.78176-3.6067 4.8115 1.4496 4.1202 0.89848 6.9005-1.3675 6.9005-2.0874 0-3.7952-1.684-3.7952-3.7423 0-2.0582-0.96034-2.876-2.1337-1.8172-3.2384 2.9215 1.8802 8.7671 7.6767 8.7671 2.8181 0 5.1235-1.4434 5.1235-3.2076zm95.047-45.726c-0.94186-2.2146 0.288-5.7115 2.7306-7.771 3.4734-2.9273 4.4433-2.0486 4.4433 4.0264 0 8.2423-4.305 10.489-7.174 3.7446zm-59.764 0.22999c-0.14933-0.55822-0.85297-3.8169-1.563-7.2416-0.71003-3.4246-2.2179-9.5592-3.3511-13.632-1.1331-4.0733-0.48035-7.4059 1.4514-7.4059 1.9314 0 2.5216-2.3274 1.3116-5.1721-1.8652-4.3853-0.36088-4.8155 9.8893-2.8281 16.328 3.1659 23.653 6.9385 28.133 14.489 4.7808 8.0589-0.49137 8.3603-6.0398 0.34521-4.6208-6.6748-21.53-10.922-23.395-5.8757-0.65706 1.7784 2.6055 6.6617 7.2497 10.852 10.235 9.2331 8.8397 15.108-3.9104 16.47-5.227 0.55823-9.6258 0.55823-9.7755 0zm13.087-11.373c-3.6145-3.2606-6.5966 1.6484-3.6312 5.977 2.2403 3.2699 3.0777 3.2725 4.2819 0.01283 0.82346-2.2286 0.53084-4.9241-0.65066-5.99zm-574.85 4.7446c-1.4745-4.4753-2.4042-15.902-1.0588-13.011 0.98025 2.1062 3.9171 3.0903 6.5265 2.1871 2.609-0.90327 5.8662-0.0032 7.238 1.9986 1.584 2.3121 0.0924 3.2699-4.0846 2.6244-3.7976-0.58668-6.2033 0.67877-5.6902 2.9931 0.71395 3.2207-1.9616 6.1491-2.9308 3.2076zm800.82-5.6134c0-4.4105 0.8071-6.2148 1.7934-4.0095s0.9863 5.8138 0 8.0191-1.7934 0.40096-1.7934-4.0095zm-663.28-8.2815c-3.2462-7.6316-2.4978-9.9768 1.4517-4.5491 3.1121 4.2768 3.8901 4.2768 7.0022 0 3.9495-5.4277 4.6979-3.0825 1.4517 4.5491-1.1868 2.7906-3.4158 5.0738-4.9528 5.0738-1.537 0-3.766-2.2832-4.9528-5.0738zm147.17 2.4008c0-2.0582-2.3274-3.7423-5.1722-3.7423-5.3187 0-11.852-20.995-7.6988-24.741 1.2124-1.0939 2.2044 1.1386 2.2044 4.961 0 3.8224 2.2265 6.9499 4.9479 6.9499 4.9834 0 11.299 15.28 7.6696 18.555-1.0731 0.96794-1.9509 0.07602-1.9509-1.9823zm338.34-6.9499c0-4.4105 0.8071-6.2148 1.7934-4.0095s0.9863 5.8138 0 8.0191c-0.9863 2.2053-1.7934 0.40096-1.7934-4.0095zm85.495-16.184c-2.3872-3.4482-2.8978-6.2694-1.1349-6.2694 3.1921 0 8.6893 9.6386 6.582 11.54-0.60906 0.54937-3.0602-1.8224-5.447-5.2706zm104.57 2.7666c1.0268-1.4989 3.3564-1.8949 5.1768-0.87989 4.652 2.5938 4.1283 3.6053-1.867 3.6053-2.8472 0-4.3367-1.2264-3.3098-2.7254zm-671.47-7.6844c-1.2288-1.794-0.76443-5.358 1.0322-7.92 5.6714-8.088 3.4094-11.365-3.0414-4.4065-6.0703 6.5487-6.1834 6.4348-6.3601-6.4153-0.0996-7.1953 0.45262-10.556 1.2259-7.469 1.6046 6.4085 7.9402 7.6623 8.1034 1.6038 0.0605-2.2624 1.665-1.5996 3.681 1.5212 3.8488 5.9582-0.73919 28.781-4.641 23.086zm-120.04-40.033c0-1.8683 1.6-2.5048 3.5555-1.4145 1.9555 1.0903 3.5555 2.619 3.5555 3.397s-1.6 1.4145-3.5555 1.4145c-1.9555 0-3.5555-1.5286-3.5555-3.397zm323.75-10.236c-14.84-14.285-14.57-22.02 0.69226-19.843 24.675 3.5191 48.888 8.9347 48.888 10.934 0 1.1524-4.4874 5.9739-9.9722 10.714-13.585 11.741-26.129 11.169-39.608-1.8056zm31.803-5.2393c0-2.8848-11.842-6.6662-21.124-6.7456-3.6366-0.03208-3.1203 1.3234 1.7778 4.6657 7.6596 5.2266 19.346 6.4831 19.346 2.0799zm416.28-2.2452c0.17066-3.7367 1.0133-4.4968 2.1482-1.938 1.0272 2.3155 0.90097 5.0821-0.28089 6.148-1.1815 1.0659-2.0217-0.82866-1.8674-4.21zm7.0559-1.7457c-0.32-7.3807 8.9496-13.986 12.452-8.8739 1.6828 2.4565 1.141 3.0211-1.4915 1.5535-2.4871-1.3868-5.4499 0.6524-7.4349 5.1178-2.1721 4.8864-3.377 5.6391-3.5253 2.2026zm-794.08-9.0066c-1.0944-3.7759 0.33422-6.9472 3.6497-8.0946 7.1665-2.4809 10.919 1.0624 4.7619 4.4956-2.6382 1.471-3.6974 4.2794-2.3538 6.2409 1.3436 1.9614 0.93546 3.5663-0.90772 3.5663-1.8428 0-4.1603-2.7937-5.1502-6.2081zm813.77 0.32747c-1.0073-1.4702 0.42809-2.6731 3.1893-2.6731s4.1966 1.2029 3.1893 2.6731c-1.0073 1.4702-2.4423 2.673-3.1893 2.673s-2.182-1.2029-3.1893-2.673zm-448.46-10.298c-1.1559-1.6872-1.3379-3.0676-0.40462-3.0676 0.93332 0 4.2275-0.87613 7.3208-1.947 3.0933-1.0708 5.6241-0.50357 5.6241 1.2606 0 4.4876-9.9892 7.4779-12.54 3.7539zm451.22-1.077c0.4487-2.7569 1.8083-5.9083 3.0218-7.0031 1.2138-1.0948 1.8396 0.26495 1.3913 3.0219-0.44871 2.7569-1.8083 5.9083-3.0222 7.0031-1.2135 1.0948-1.8393-0.26495-1.3909-3.0219zm-14.386-3.4533c0-2.5687 1.3596-3.9124 3.0211-2.986 1.6615 0.9264 2.1002 3.028 0.97528 4.6704-2.875 4.1968-3.9964 3.7243-3.9964-1.6844zm-794.06-5.1419c0-1.8683 1.6-2.5048 3.5555-1.4145 1.9555 1.0903 3.5555 2.619 3.5555 3.397 0 0.77798-1.6 1.4145-3.5555 1.4145-1.9555 0-3.5555-1.5286-3.5555-3.397zm794.3-14.196c0-5.2937 2.1532-6.9013 9.2443-6.9013 7.2209 0 9.2443 1.5824 9.2443 7.2287 0 3.9758-1.3059 6.5005-2.9024 5.6104-1.5964-0.89006-2.0501-2.8622-1.0087-4.3826 2.5465-3.7174-4.3836-7.3235-9.0616-4.7152-2.5682 1.432-2.5856 3.3205-0.0569 6.07 2.6044 2.8309 2.3445 3.9913-0.89386 3.9913-2.5113 0-4.5656-3.1056-4.5656-6.9013zm-790.75 1.5552c0-1.7642 1.6-3.2076 3.5555-3.2076 1.9555 0 3.5555 1.4434 3.5555 3.2076 0 1.7642-1.6 3.2076-3.5555 3.2076-1.9555 0-3.5555-1.4434-3.5555-3.2076zm324.61-10.685c-8.22-3.8265-15.02-7.8512-15.111-8.9439-0.28088-3.3752 35.666-2.9166 42.839 0.54655 7.8897 3.8093 9.0989 12.667 1.7294 12.667-2.7733 0-7.1732 0.60474-9.7777 1.3439-2.6044 0.73914-11.46-1.7869-19.68-5.6134zm466.65-5.1231c-1.1285-1.6471-0.4256-3.9013 1.5619-5.0094 5.2504-2.9275 4.4451-8.8618-0.83093-6.1226-2.4444 1.2691-3.2583 1.1262-1.8087-0.31755 1.4496-1.4437 1.0752-4.3214-0.83234-6.3949-2.3818-2.5891-1.8773-3.7701 1.611-3.7701 2.7936 0 4.7683 1.5637 4.3879 3.4749-0.38008 1.9112 1.7088 3.4749 4.6421 3.4749s4.7999-2.1652 4.1482-4.8114c-0.65208-2.6463 0.0604-3.6871 1.5843-2.3129 3.7571 3.3896 5.0275 12.367 1.4691 10.383-1.5623-0.87107-5.0218 0.83575-7.6877 3.7929-4.224 4.6854-4.0618 5.1113 1.2611 3.3124 3.3596-1.1354 7.2159-0.32304 8.5699 1.8051 1.3539 2.1282 1.1946 2.8377-0.35555 1.5766-1.5484-1.2611-5.7077-0.89631-9.2429 0.8106-3.9559 1.9099-7.217 1.9517-8.4796 0.10874zm-666.54-8.5167c0.17066-3.7367 1.0133-4.4968 2.1482-1.938 1.0272 2.3155 0.90096 5.0821-0.28089 6.148-1.1815 1.0659-2.0217-0.82866-1.8674-4.21zm219.73-6.3076c-6.2979-5.6816-15.209-6.7734-28.013-3.4318-8.4934 2.2165-8.5844 2.1001-2.049-2.617 12.103-8.7355 30.178-9.9356 38.368-2.5474 3.9655 3.5777 6.1215 8.094 4.7911 10.036-3.2892 4.8016-6.5791 4.4399-13.097-1.4398zm41.055-5.0381c-1.1026-1.6093-3.2803-2.2148-4.8394-1.3455-1.5587 0.86927-5.6963-1.2723-9.1938-4.7591-3.4979-3.4868-5.3116-6.5201-4.0309-6.7406 1.2811-0.22036 3.568-0.58138 5.0823-0.80191 10.754-1.5658 29.979-23.051 34.085-38.091 2.7036-9.9051-3.1271-12.324-6.5123-2.702-1.184 3.3654-4.5397 6.9453-7.4573 7.9553-4.1031 1.4205-5.1448-0.51021-4.6001-8.5247 0.3872-5.6986-0.53262-13.78-2.0444-17.958-3.6757-10.16 5.1605-7.7794 11.279 3.0385l4.3918 7.7658 0.07467-8.0191 0.07467-8.0191 5.3116 9.1877c7.746 13.4 6.6101 21.389-5.4897 38.601l-10.801 15.365 14.356-2.1882c14.804-2.2564 18.125 0.87832 11.267 10.636-3.7632 5.3546-28.231 10.571-30.952 6.599zm37.105-4.3344c-1.0219-0.922 2.4473-9.7129 7.7094-19.535 10.09-18.834 10.145-36.279 0.12444-39.293-3.3521-1.0081-4.2083 0.19278-2.6865 3.7697 1.2277 2.887 0.64319 5.2491-1.2992 5.2491-3.328 0-11.297-13.886-11.947-20.818-0.16355-1.7469-5.0979-4.1021-10.964-5.2338-10.514-2.0282-10.53-2.0632-1.1427-2.4372 9.3738-0.37357 20.698 6.6674 20.698 12.869 0 1.7423 1.6042 2.2733 3.5651 1.18 4.9631-2.7672-2.3299-14.429-9.0235-14.429-2.8643 0-5.2081-1.6279-5.2081-3.6176 0-4.7821-28.991-0.73368-32.727 4.5703-3.0265 4.2955-3.5178 3.1097-4.161-10.041-0.24533-4.9986 1.1555-9.102 3.1111-9.1187 1.9555-0.016 7.3556-1.1337 12.001-2.4821 5.7802-1.678 7.6852-1.3425 6.0376 1.0629-1.5303 2.234-0.30933 2.7884 3.3493 1.5215 14.471-5.0098-16.202-13.344-50.72-13.78-8.311-0.10522-15.111-1.4258-15.111-2.9347 0-1.5089 6.7999-2.3411 15.111-1.8493 8.311 0.49183 23.911 1.0101 34.666 1.1516 19.5 0.25661 19.604 0.3121 36.749 19.45 20.147 22.489 29.405 49.235 23.455 67.757-3.6689 11.42-18.41 29.852-21.585 26.988zm103.6-4.0123c0-4.036 10.163-12.036 12.552-9.881 0.94256 0.85028-1.4962 4.1666-5.4193 7.3695-3.9228 3.203-7.1327 4.3331-7.1327 2.5115zm269.17-6.5033c-1.7525-8.2303-0.60764-13.228 2.3267-10.158 3.3368 3.4909 5.5896 18.979 2.7602 18.979-1.7646 0-4.054-3.9694-5.0869-8.821zm-12.611-4.0096c0-4.4105 0.8071-6.2148 1.7934-4.0096s0.9863 5.8138 0 8.0191c-0.9863 2.2052-1.7934 0.40095-1.7934-4.0096zm-658.33 0c0-1.7642 1.6-3.2076 3.5555-3.2076s3.5555 1.4434 3.5555 3.2076-1.6 3.2076-3.5555 3.2076-3.5555-1.4434-3.5555-3.2076zm424.88-6.4153c1.2085-1.7642 2.9031-3.2076 3.7653-3.2076 0.86257 0 1.568 1.4434 1.568 3.2076s-1.6946 3.2076-3.7653 3.2076c-2.0711 0-2.7765-1.4434-1.568-3.2076zm229.33-8.0191c0-2.6463 1.6-4.8115 3.5555-4.8115 1.9555 0 3.5555 2.1652 3.5555 4.8115s-1.6 4.8115-3.5555 4.8115c-1.9555 0-3.5555-2.1652-3.5555-4.8115zm-211.55-1.6038c1.2085-1.7642 2.9031-3.2076 3.7653-3.2076 0.86257 0 1.568 1.4434 1.568 3.2076s-1.6946 3.2076-3.7653 3.2076c-2.0711 0-2.7765-1.4434-1.568-3.2076zm8.8888-4.4683c0-0.69336 2.4832-2.1202 5.5178-3.1709 3.1644-1.0954 4.5916-0.55765 3.3457 1.2606-2.0878 3.0479-8.8635 4.5082-8.8635 1.9103zm24.889 0.0497c0-0.6661 2.8-3.1921 6.2222-5.6134 5.6394-3.9899 5.7649-3.8764 1.3426 1.211-4.6449 5.3431-7.5647 7.0423-7.5647 4.4023zm-328.29-7.3426c-3.275-2.9544-2.993-8.2101 0.34133-6.3514 1.4912 0.83145 6.6911-0.53857 11.555-3.0444l8.844-4.5561-9.8239 1.9881c-5.8204 1.1779-12.031 0.33571-15.239-2.0668-4.5088-3.3758-7.1743-2.535-15.917 5.0213-5.7756 4.9919-11.533 8.1451-12.795 7.0072-3.1715-2.8615 5.9125-21.823 9.4975-19.824 1.5932 0.88845 3.9182 0.12478 5.1662-1.6969 1.248-1.8217 3.9061-2.3996 5.9068-1.284 2.0007 1.1155 8.4746-3.2655 14.386-9.7356 12.75-13.955 17.658-13.059 6.0504 1.1052-9.1675 11.187-7.8264 13.85 7.3748 14.646 25.53 1.3361 28.503 1.8547 28.503 4.9711 0 1.8079-3.8446 4.6057-8.5432 6.2174-4.699 1.6117-9.5935 4.4629-10.877 6.3359-2.5618 3.7395-20.651 4.6777-24.431 1.2671zm317.63 0.92736c0-0.6661 2.8-3.1921 6.2222-5.6134 5.6394-3.9899 5.7649-3.8765 1.3426 1.211-4.6449 5.3431-7.5647 7.0423-7.5647 4.4023zm24.889-1.618c0-1.7642 1.6-4.0997 3.5555-5.19s3.5555-0.53898 3.5555 1.2252-1.6 4.0997-3.5555 5.19-3.5555 0.53898-3.5555-1.2252zm20.666-8.985c2.5667-0.92663 5.6334-0.81266 6.8149 0.25308 1.1815 1.0659-0.91875 1.824-4.6666 1.6847-4.1422-0.15397-4.9845-0.91399-2.1482-1.938zm-303.35-19.624c0.14933-10.054 1.5079-20.084 3.0218-22.29 1.5143-2.2052 1.7642-5.453 0.55573-7.2172-1.2085-1.7642-0.59733-3.2076 1.3582-3.2076s4.5603 1.467 5.7887 3.26c1.2281 1.793 3.7024 2.4408 5.4982 1.4396 1.7955-1.0012 5.4716 0.0394 8.1692 2.3125 4.1347 3.4848 4.1443 4.6424 0.06044 7.3814-4.0753 2.7325-4.0245 4.6656 0.32 12.169 6.5948 11.39 3.5818 21.439-3.8456 12.826-4.5898-5.3231-4.7754-5.3295-2.7545-0.0943 1.2131 3.1428 0.43448 5.6134-1.7692 5.6134-2.1646 0-3.9601-4.6912-3.9904-10.425-0.06044-11.509-5.2007-21.187-9.2927-17.496-1.4428 1.3015-0.72959 4.0743 1.5843 6.162 5.6014 5.0534 5.3656 20.106-0.38257 24.41-3.6629 2.7424-4.5358-0.25629-4.321-14.844zm457.19 13.529c0.17066-3.7367 1.0133-4.4968 2.1482-1.938 1.0272 2.3155 0.90097 5.0821-0.28089 6.148-1.1815 1.0659-2.0217-0.82866-1.8674-4.21zm-778.94-14.702c0-1.4702 1.5054-2.673 3.3457-2.673 1.84 0 4.1696 1.2029 5.1768 2.673 1.0073 1.4702-0.49848 2.673-3.3457 2.673s-5.1768-1.2029-5.1768-2.673zm354.25-5.0788c-4.2979-7.53-4.3114-9.4263-0.09244-12.957 2.7193-2.2748 5.1061-3.7182 5.3045-3.2076 1.3763 3.5415 2.4974 24.986 1.3067 24.986-0.8167 0-3.7504-3.9694-6.5197-8.821zm419.7 4.3232c-2.5351-5.9596 0.53333-8.3327 10.774-8.3327 7.046 0 7.6806 0.74093 3.8517 4.4954-2.5216 2.4725-5.1178 3.1942-5.7695 1.6038-0.65208-1.5904-2.6016-2.8916-4.3331-2.8916-1.7312 0-2.2265 2.1652-1.1008 4.8114 1.1257 2.6463 1.2466 4.8115 0.27022 4.8115-0.97777 0-2.6389-2.024-3.691-4.4978zm-1.8418-17.956c0-4.4105 0.8071-6.2148 1.7934-4.0096s0.9863 5.8138 0 8.0191-1.7934 0.40095-1.7934-4.0096zm-770.33-12.831c1.2085-1.7642 2.9031-3.2076 3.7653-3.2076 0.86257 0 1.568 1.4434 1.568 3.2076 0 1.7642-1.6946 3.2076-3.7653 3.2076-2.0711 0-2.7765-1.4434-1.568-3.2076zm-26.133-6.2549c1.5278-4.1351 6.4046-4.8779 6.8444-1.0425 0.14578 1.279-1.6533 2.9029-4 3.6086s-3.6266-0.44907-2.8444-2.5661zm810.12-8.1795c0-2.6463 1.6-4.8115 3.5555-4.8115s3.5555 2.1652 3.5555 4.8115-1.6 4.8115-3.5555 4.8115-3.5555-2.1652-3.5555-4.8115zm-7.111-4.8115c0-3.5284 1.4503-6.4153 3.2227-6.4153 1.7724 0 2.3858 2.8869 1.3628 6.4153-1.0226 3.5284-2.4729 6.4153-3.2224 6.4153-0.74986 0-1.3632-2.8869-1.3632-6.4153zm16.188-12.557c-1.1449-1.6711-0.56604-3.8833 1.2864-4.9161 1.8524-1.0328 4.3043-0.51056 5.4492 1.1605 1.1449 1.6711 0.56604 3.8833-1.2864 4.9161-1.8524 1.0328-4.3043 0.51056-5.4492-1.1605zm-14.41-3.4816c-1.2085-1.7642-0.5031-3.2076 1.568-3.2076 2.0707 0 3.7653 1.4434 3.7653 3.2076 0 1.7642-0.70541 3.2076-1.568 3.2076-0.86221 0-2.5568-1.4434-3.7653-3.2076zm-666.38-8.2864c0.17066-3.7367 1.0133-4.4968 2.1482-1.938 1.0272 2.3155 0.90096 5.0821-0.28089 6.148-1.1815 1.0659-2.0217-0.82866-1.8674-4.21zm382.99 0.15172c-0.78968-0.71232-42.15-2.2109-91.912-3.3302-49.762-1.1193-91.23-2.6847-92.151-3.4786-4.1408-3.569 9.0491-6.5144 22.876-5.1084 9.149 0.93032 16.181 0.12125 17.656-2.0316 1.3479-1.9678 4.0508-3.5777 6.0063-3.5777s2.5667 1.4434 1.3582 3.2076c-2.5902 3.7809 1.0901 4.2737 24.889 3.3323 9.7777-0.38675 19.298-2.0164 21.155-3.6216 4.5571-3.9373 10.035-3.7199 7.2888 0.28932-1.2085 1.7642-0.9031 3.353 0.6791 3.5308 1.5818 0.1777 10.076 0.92547 18.876 1.6617 8.7999 0.73621 20.8 1.8697 26.666 2.5188 5.8666 0.6491 27.066 1.3448 47.111 1.5459 20.044 0.20112 36.444 1.457 36.444 2.7909 0 2.4771-44.336 4.6218-46.942 2.2708zm-449.26-4.9971c-1.0951-1.5986 2.1031-2.9065 7.1075-2.9065 10.894 0 11.774 1.8282 1.9911 4.1362-3.9093 0.92222-8.0035 0.36888-9.0986-1.2297zm25.095 0.3012c-6.7854-2.6304-6.7445-2.7671 0.88888-2.9822 4.4-0.12414 7.9999 1.218 7.9999 2.9822s-0.39999 3.1062-0.88887 2.9822c-0.48889-0.12414-4.0888-1.466-7.9999-2.9822zm55.11 0c0-1.7642 1.6946-3.2076 3.7653-3.2076 2.0711 0 2.7765 1.4434 1.568 3.2076-1.2085 1.7642-2.9031 3.2076-3.7653 3.2076-0.86257 0-1.568-1.4434-1.568-3.2076zm118.22-2.5045c-23.955-0.49535-43.557-1.9388-43.559-3.2076-2e-3 -1.2688 18.502-1.8335 41.12-1.2547 38.859 0.99434 41.502 0.65811 48.003-6.1042 7.6348-7.9416 9.0186-4.9147 2.3097 5.0519-3.9982 5.9395-7.5487 6.3485-47.874 5.5146zm48.888-1.0464c0-1.9529 2.3186-2.7482 5.1523-1.7672 3.4435 1.1922 4.4963 0.24218 3.1751-2.8644-1.0876-2.5565-0.20622-4.6481 1.9587-4.6481s3.936 2.8869 3.936 6.4153c0 4.2768-2.3705 6.4153-7.111 6.4153-3.9111 0-7.111-1.5979-7.111-3.5508zm-120.89-2.8645c0-1.7642 1.6-3.2076 3.5555-3.2076 1.9555 0 3.5555 1.4434 3.5555 3.2076s-1.6 3.2076-3.5555 3.2076c-1.9555 0-3.5555-1.4434-3.5555-3.2076zm10.667 0c0-1.7642 3.2-3.2076 7.111-3.2076 3.9111 0 7.111 1.4434 7.111 3.2076s-3.2 3.2076-7.111 3.2076c-3.9111 0-7.111-1.4434-7.111-3.2076zm465.11-2.1912c2.5667-0.92662 5.6334-0.81265 6.8149 0.25341 1.1815 1.0659-0.91875 1.824-4.6666 1.6847-4.1422-0.15396-4.9845-0.91401-2.1482-1.938zm104.06-2.8876c0.17067-3.7367 1.0133-4.4968 2.1482-1.938 1.0272 2.3155 0.90096 5.0821-0.28089 6.148-1.1815 1.0659-2.0217-0.82866-1.8674-4.21zm-10.058-2.927c-5.836-5.9799-5.6088-8.0325 0.88888-8.0325 2.9628 0 5.3333 2.8512 5.3333 6.4153 0 7.525-0.36408 7.6197-6.2222 1.6172zm20.725-3.4883c0.17066-3.7367 1.0133-4.4968 2.1482-1.938 1.0272 2.3155 0.90097 5.0821-0.28089 6.148-1.1815 1.0659-2.0217-0.82866-1.8674-4.21zm-531.02-4.337c-1.0724-3.7004 0.31288-6.9397 3.4318-8.0191 9.5405-3.3029 11.133-1.8924 6.9816 6.1831-4.9454 9.6193-8.001 10.158-10.413 1.836zm79.192-2.0003c0-4.5146 1.4496-7.4 3.2217-6.4121 1.7721 0.98799 2.3854 4.6818 1.3632 8.2084-2.5585 8.826-4.5848 8.032-4.5848-1.7964zm123.5 6.291c-3.2053-2.8915 1.2082-11.142 4.8682-9.1016 1.7504 0.97608 3.1829 3.8547 3.1829 6.3969 0 4.7235-4.236 6.1466-8.0511 2.7047zm39.209-6.2366c1.9488-9.1965 3.9313-8.7712 6.0821 1.3047 0.88959 4.1665-0.352 6.8493-3.174 6.8493-3.0481 0-4.044-2.7925-2.9081-8.154zm228.39 3.3425c0-2.6463 1.3333-4.8115 2.9628-4.8115 1.6298 0 2.9632 2.1652 2.9632 4.8115s-1.3333 4.8115-2.9632 4.8115c-1.6295 0-2.9628-2.1652-2.9628-4.8115zm-625.77-1.4145c0-1.6601 1.6-3.9104 3.5555-5.0008 1.9555-1.0903 3.5555 0.26784 3.5555 3.0183 0 2.7504-1.6 5.0008-3.5555 5.0008-1.9555 0-3.5555-1.3582-3.5555-3.0183zm593.77-0.18925c0-1.7642 1.6-3.2076 3.5555-3.2076 1.9555 0 3.5555 1.4434 3.5555 3.2076s-1.6 3.2076-3.5555 3.2076c-1.9555 0-3.5555-1.4434-3.5555-3.2076zm-693.33-3.2076c0-1.7642 1.6946-3.2076 3.7653-3.2076 2.0711 0 2.7765 1.4434 1.568 3.2076-1.2085 1.7642-2.9031 3.2076-3.7653 3.2076-0.86257 0-1.568-1.4434-1.568-3.2076zm474.06-2.6928c-4.6375-6.6994-2.8334-10.011 8.5962-15.778 6.7967-3.4297 7.9999-3.2806 7.9999 0.99119 0 2.7654-1.4325 4.2293-3.1829 3.2532-4.1838-2.3326-7.8253 6.4837-5.2138 12.623 2.8967 6.81-3.3013 5.9869-8.1994-1.0889zm156.85 2.9667c1.1054-1.6135 0-3.6647-2.4569-4.5582-2.8469-1.0355-2.3481-1.7164 1.3753-1.8778 3.2131-0.13921 6.7626 1.9119 7.8883 4.5582 1.269 2.9828 0 4.8115-3.3848 4.8115-2.9873 0-4.5272-1.3201-3.4218-2.9337zm-495.53-5.3527c0.17066-3.7367 1.0133-4.4968 2.1482-1.938 1.0272 2.3155 0.90096 5.0821-0.28089 6.148-1.1815 1.0659-2.0217-0.82866-1.8674-4.21zm149.33 0c0.17067-3.7367 1.0133-4.4968 2.1482-1.938 1.0272 2.3155 0.90096 5.0821-0.28089 6.148-1.1815 1.0659-2.0217-0.82866-1.8674-4.21zm19.357 1.751c2.5002-3.6494 14.781-4.138 17.139-0.68182 0.90274 1.3232-3.0602 2.7125-8.8063 3.0876-5.9558 0.38867-9.5384-0.64567-8.3327-2.4057zm55.028 0.11997c6.9631-4.0596 11.67-4.0596 8.8888 0-1.2085 1.7642-4.9031 3.1855-8.2097 3.1585-5.1815-0.0423-5.2753-0.47887-0.6791-3.1585zm17.111 1.0165c2.5667-0.92663 5.6334-0.81266 6.8149 0.2534 1.1815 1.0659-0.91874 1.824-4.6666 1.6847-4.1422-0.15396-4.9845-0.91398-2.1482-1.938zm13.111-1.0165c-1.2085-1.7642-0.50311-3.2076 1.568-3.2076 2.0707 0 3.7653 1.4434 3.7653 3.2076 0 1.7642-0.70541 3.2076-1.568 3.2076-0.86221 0-2.5568-1.4434-3.7653-3.2076zm22.732-0.941c2.4273-2.19 7.5046-2.2289 15.337-0.1174l11.708 3.1564-15.337 0.1174c-10.432 0.0799-14.177-0.92974-11.708-3.1564zm-377.17-4.4578c2.5667-0.92663 5.6334-0.81266 6.8149 0.2534 1.1815 1.0659-0.91875 1.824-4.6666 1.6847-4.1422-0.15397-4.9845-0.91399-2.1482-1.938zm42.666 0c2.5667-0.92663 5.6334-0.81266 6.8149 0.2534 1.1815 1.0659-0.91875 1.824-4.6666 1.6847-4.1422-0.15397-4.9845-0.91399-2.1482-1.938zm30.889-1.0165c1.2085-1.7642 2.9031-3.2076 3.7653-3.2076 0.86256 0 1.568 1.4434 1.568 3.2076s-1.6946 3.2076-3.7653 3.2076c-2.0711 0-2.7765-1.4434-1.568-3.2076zm164.09-1.5011c-1.1018-2.5898-0.47288-5.5619 1.3973-6.6046 1.8698-1.0427 3.4001 1.0762 3.4001 4.7087 0 7.7451-1.9772 8.5264-4.7974 1.8958zm143.46-4.9142c0-1.7642 1.6-3.2076 3.5555-3.2076s3.5555 1.4434 3.5555 3.2076-1.6 3.2076-3.5555 3.2076-3.5555-1.4434-3.5555-3.2076zm-373.33-3.2076c0-1.7642 1.6-3.2076 3.5555-3.2076 1.9555 0 3.5555 1.4434 3.5555 3.2076s-1.6 3.2076-3.5555 3.2076c-1.9555 0-3.5555-1.4434-3.5555-3.2076zm16 0c-1.2085-1.7642 1.0969-3.2076 5.1235-3.2076 4.0263 0 7.3208 1.4434 7.3208 3.2076s-2.3054 3.2076-5.1235 3.2076c-2.8178 0-6.1123-1.4434-7.3208-3.2076zm742 6.4153c2.1319 0 5.9214 2.5237 8.4216 5.6083 6.3868 7.8799 9.6497 3.4801 3.3941-4.577-6.9112-8.9018-23.204-6.5321-23.048 3.3522 0.096 6.1895 0.45439 6.307 3.7322 1.2299 1.9932-3.0874 5.3681-5.6134 7.4996-5.6134zm-18.451 0c0-1.7642-2.4-3.2076-5.3333-3.2076s-5.3333 1.4434-5.3333 3.2076 2.4 3.2076 5.3333 3.2076 5.3333-1.4434 5.3333-3.2076zm-691.55-9.6229c1.2085-1.7642 0.50311-3.2076-1.568-3.2076-2.0707 0-3.7653 1.4434-3.7653 3.2076s0.70542 3.2076 1.568 3.2076c0.86222 0 2.5568-1.4434 3.7653-3.2076z"/>
</g>
</svg>
