<?xml version="1.0" encoding="UTF-8" standalone="no"?>
<!-- Created with Inkscape (http://www.inkscape.org/) -->

<svg
   xmlns:dc="http://purl.org/dc/elements/1.1/"
   xmlns:cc="http://creativecommons.org/ns#"
   xmlns:rdf="http://www.w3.org/1999/02/22-rdf-syntax-ns#"
   xmlns:svg="http://www.w3.org/2000/svg"
   xmlns="http://www.w3.org/2000/svg"
   xmlns:sodipodi="http://sodipodi.sourceforge.net/DTD/sodipodi-0.dtd"
   xmlns:inkscape="http://www.inkscape.org/namespaces/inkscape"
   id="svg3594"
   version="1.1"
   inkscape:version="0.91 r13725"
   width="703.95032"
   height="900"
   viewBox="0 0 703.95032 900"
   sodipodi:docname="WatchingTV.svg">
  <metadata
     id="metadata3600">
    <rdf:RDF>
      <cc:Work
         rdf:about="">
        <dc:format>image/svg+xml</dc:format>
        <dc:type
           rdf:resource="http://purl.org/dc/dcmitype/StillImage" />
        <dc:title></dc:title>
      </cc:Work>
    </rdf:RDF>
  </metadata>
  <defs
     id="defs3598" />
  <sodipodi:namedview
     pagecolor="#ffffff"
     bordercolor="#666666"
     borderopacity="1"
     objecttolerance="10"
     gridtolerance="10"
     guidetolerance="10"
     inkscape:pageopacity="0"
     inkscape:pageshadow="2"
     inkscape:window-width="1366"
     inkscape:window-height="705"
     id="namedview3596"
     showgrid="false"
     inkscape:zoom="0.58888889"
     inkscape:cx="351.97516"
     inkscape:cy="450"
     inkscape:window-x="-8"
     inkscape:window-y="-8"
     inkscape:window-maximized="1"
     inkscape:current-layer="svg3594"
     fit-margin-top="0"
     fit-margin-left="0"
     fit-margin-right="0"
     fit-margin-bottom="0" />
  <path
     style="fill:#000000"
     d="m 582.54256,898.94081 c -2.36584,-0.57497 -13.15038,-1.38239 -23.96564,-1.79428 -23.78605,-0.90585 -25.19464,-1.14662 -25.19464,-4.30618 0,-2.33042 1.66773,-2.9229 7.37404,-2.61971 1.01393,0.0538 13.45763,0.70418 27.65266,1.44512 27.02131,1.41043 30.25992,2.20218 25.36574,6.20126 -3.1217,2.55077 -4.58079,2.69025 -11.23216,1.07379 z M 428.91669,884.39673 c 0,-4.08318 3.87791,-4.78309 23.35114,-4.2146 9.80133,0.28614 28.3286,0.0716 41.17173,-0.47667 12.84312,-0.54831 27.49903,-0.62305 32.56868,-0.1661 27.90212,2.51495 93.05528,1.82364 118.66174,-1.2591 9.46447,-1.13941 16.60264,2.57375 9.89554,5.14752 -3.94156,1.51251 -118.42677,1.73775 -148.22139,0.2916 -12.99944,-0.63096 -24.91082,-0.50667 -33.18319,0.34625 -30.74631,3.17009 -44.24425,3.2711 -44.24425,0.3311 z m -317.08378,-2.19484 c -10.31641,-4.29642 -0.28023,-8.90261 12.97298,-5.95405 6.20402,1.38028 11.71619,1.82947 16.32476,1.33034 3.82688,-0.41447 22.44345,-1.03068 41.37016,-1.36937 18.9267,-0.33868 43.49349,-0.86731 54.59288,-1.17473 23.31235,-0.64569 28.27062,0.8687 20.18659,6.16556 -2.94948,1.93256 -3.56845,1.95997 -6.45228,0.28565 -5.33679,-3.09849 -94.99778,-2.47791 -131.00655,0.90675 -3.37977,0.31769 -6.97461,0.23211 -7.98854,-0.19015 z m 328.06282,-10.35012 c -5.37556,-3.53036 2.58285,-5.02398 22.81865,-4.28258 28.80928,1.05552 69.31404,1.13529 84.80148,0.16701 7.43549,-0.46488 17.66698,-1.02771 22.73663,-1.25075 5.06965,-0.22304 22.3577,-1.04526 38.4179,-1.82717 16.06018,-0.78189 29.69461,-1.11616 30.29873,-0.74278 0.6041,0.37336 6.54429,0.13607 13.20039,-0.52731 6.65611,-0.66337 19.56823,-1.7241 28.6936,-2.35717 9.12538,-0.63308 17.42118,-1.46663 18.43511,-1.85234 3.08984,-1.17542 5.7635,1.28283 4.18375,3.84667 -3.28575,5.33256 -23.90592,9.78746 -26.82497,5.79541 -1.25813,-1.72059 -5.69318,-1.78625 -42.53623,-0.62983 -22.62241,0.71007 -47.49176,1.34992 -55.26523,1.42189 -7.77347,0.072 -16.89885,0.67316 -20.27862,1.336 -8.1686,1.60201 -116.36332,2.42519 -118.68119,0.90295 z m -213.76518,-1.4738 c -1.76171,-1.81597 -120.30493,-3.11451 -142.224331,-1.55794 -15.205569,1.0798 -19.674644,-0.13842 -15.558997,-4.2412 1.566039,-1.56113 40.925798,-1.52074 82.199408,0.0843 43.88219,1.70655 83.08097,1.55758 100.16406,-0.38065 16.8459,-1.91133 25.73566,-1.79342 27.06593,0.35899 1.24424,2.01323 -2.18169,4.80564 -5.67726,4.62746 -1.28649,-0.0656 -12.01749,0.29963 -23.84668,0.81158 -11.8292,0.51195 -21.78415,0.64578 -22.12213,0.29739 z M 2.7585424,859.71188 c -2.93696677,-1.25444 -3.8120774,-4.86413 -1.2290069,-5.06945 0.8449422,-0.0671 10.9381625,-0.23165 22.4293765,-0.36556 11.491215,-0.1339 33.336813,-0.9736 48.545774,-1.86602 24.238875,-1.42224 59.088184,-1.97833 102.007574,-1.62773 7.09752,0.058 26.40786,0.01 42.91188,-0.1073 30.51019,-0.21631 32.63511,0.0964 29.30884,4.31323 -1.4063,1.78282 -3.29228,1.81154 -19.98793,0.30446 -22.85149,-2.06277 -135.936021,-2.41742 -152.396854,-0.47795 -6.083584,0.71678 -14.932434,1.2122 -19.664111,1.10091 -4.731676,-0.11123 -13.304,0.64057 -19.049607,1.6708 -14.296123,2.56336 -29.5420128,3.54866 -32.8759356,2.12465 z M 417.9637,857.96728 c -4.47566,-5.39285 -0.41013,-5.83975 50.75789,-5.57965 48.36931,0.2459 177.19363,-1.97347 180.34087,-3.10689 0.92949,-0.33473 8.87967,-0.84003 17.66707,-1.12288 10.2554,-0.33009 18.02448,-1.22256 21.69416,-2.49207 9.84627,-3.4063 13.63497,1.51663 5.18592,6.73843 -4.20972,2.60175 -5.12217,2.69238 -16.28434,1.6173 -6.50361,-0.6264 -21.7797,-0.77452 -33.94687,-0.32919 -12.16717,0.44535 -60.55931,1.18392 -107.5381,1.64128 -61.75968,0.60127 -89.49036,1.31837 -100.12737,2.58927 -17.75768,2.12166 -16.02884,2.11734 -17.74923,0.0444 z m -51.44476,-7.09976 c -3.2337,-3.2337 2.85757,-7.93782 6.97969,-5.39021 0.64693,0.39982 6.32922,0.13175 12.62731,-0.59571 6.29808,-0.72748 36.33847,-1.52145 66.75639,-1.7644 32.71293,-0.26129 58.31763,-0.99171 62.67935,-1.78807 4.05572,-0.74049 17.329,-1.29429 29.49617,-1.23066 12.16717,0.0637 27.65265,-0.21183 34.41219,-0.61213 6.75954,-0.40029 22.52155,-0.97224 35.0267,-1.271 12.50514,-0.29876 31.82368,-1.13251 42.93007,-1.85276 20.32806,-1.3183 22.9596,-0.96562 21.48415,2.87932 -1.97782,5.1541 -16.81137,7.89395 -20.25745,3.74167 -1.42763,-1.72019 -5.01516,-1.85696 -30.5684,-1.16538 -15.92303,0.43093 -50.91504,1.26308 -77.76003,1.84922 -26.84501,0.58614 -49.45663,1.4659 -50.24807,1.95503 -0.79144,0.48915 -24.1777,1.07589 -51.96948,1.30388 -27.79178,0.22799 -51.91315,0.65383 -53.60303,0.94632 -1.68988,0.29248 -6.94389,1.14305 -11.67557,1.89015 -4.73167,0.7471 -9.99722,1.64118 -11.70121,1.98685 -1.70399,0.34567 -3.77794,-0.0512 -4.60878,-0.88212 z m -102.22912,-2.26915 c -3.98513,-0.93819 -5.20695,-1.99521 -9.12537,-7.89449 -1.42442,-2.1445 -1.9745,-2.22343 -5.45315,-0.78253 -3.93488,1.62988 -9.30883,1.02089 -12.20556,-1.38319 -3.22681,-2.67802 -0.39316,-18.21244 3.81827,-20.93226 4.97517,-3.21304 8.85391,2.6548 5.20163,7.86915 -2.35936,3.36846 -2.56155,7.16737 -0.38146,7.16737 2.26626,0 5.77166,-6.47907 6.80864,-12.58448 2.13669,-12.58009 10.06602,-6.3969 9.4408,7.36182 -0.49254,10.83878 1.0157,13.82571 6.98122,13.82571 4.62602,0 5.39319,-2.37618 3.07971,-9.53884 -3.40212,-10.53319 -3.88203,-17.28682 -1.42155,-20.00562 4.32117,-4.77483 8.54084,-1.48811 9.07982,7.07231 0.13966,2.21802 7.46571,10.18208 9.36638,10.18208 4.26939,0 3.40899,-7.71788 -1.51244,-13.56666 -3.91171,-4.64881 -3.0528,-7.93246 1.77635,-6.79107 3.4901,0.8249 8.88206,6.28642 8.89274,9.00748 0.006,1.68437 7.02964,6.42215 9.53091,6.42963 2.29262,0.007 1.80621,-3.88195 -0.92175,-7.36945 -1.32185,-1.68988 -2.41565,-3.51383 -2.43068,-4.05323 -0.0426,-1.53162 -6.59394,-6.92569 -8.46406,-6.969 -0.92246,-0.0214 -4.2685,-1.44919 -7.43564,-3.17297 l -5.75845,-3.13414 -6.08344,2.62287 c -6.7851,2.92538 -23.97098,7.1021 -32.62822,7.92969 -8.10973,0.77526 -13.85412,-4.78666 -10.61208,-10.27499 2.46919,-4.18001 1.72258,-7.57158 -4.49478,-20.41822 -2.29391,-4.73977 -5.93945,-15.53093 -8.1012,-23.98036 -2.16176,-8.44942 -4.69519,-18.12785 -5.62986,-21.50762 -3.00878,-10.87985 -5.49553,-23.05185 -7.2815,-35.6412 -0.95894,-6.75954 -2.10107,-13.76201 -2.53807,-15.56104 -4.33633,-17.85164 11.89721,-1.52777 17.30826,17.40455 2.22173,7.77347 4.86062,16.06927 5.86419,18.43511 5.19717,12.2519 10.58997,36.11221 13.67821,60.51903 2.91636,23.04831 4.48758,24.8338 19.13406,21.74329 3.04179,-0.64184 7.2564,-1.49995 9.36578,-1.90693 2.1094,-0.40697 6.11903,-2.82752 8.9103,-5.37899 l 5.07505,-4.63905 0,-10.45054 c 0,-5.80402 -1.30846,-17.479 -2.94288,-26.25837 -4.93484,-26.50774 -7.28079,-43.54261 -7.59304,-55.13606 -0.51279,-19.03988 -8.03374,-36.25486 -18.34574,-41.99222 -2.70381,-1.50434 -5.7878,-4.28562 -6.85329,-6.18063 -2.91921,-5.19185 -11.96459,-5.36016 -25.62757,-0.47685 -10.34856,3.69869 -12.37789,3.82614 -12.37789,0.77738 0,-2.42358 -3.24735,-3.23854 -7.07746,-1.77617 -3.30529,1.26197 -3.32255,1.32172 -0.91109,3.15458 2.28191,1.73439 2.06177,1.81282 -3.07251,1.0946 -3.0418,-0.42552 -9.40191,-1.17201 -14.13358,-1.65889 -11.89668,-1.22414 -14.50576,-3.46136 -9.41234,-8.07084 2.05591,-1.86057 2.73953,-1.88015 7.46249,-0.2138 8.35612,2.94822 27.96468,0.22994 36.82384,-5.10476 7.70285,-4.63842 13.14529,-6.65248 25.96185,-9.60762 9.63608,-2.22181 19.66411,-6.27944 19.66411,-7.95666 0,-0.53882 2.74926,-3.90801 6.10947,-7.48708 7.01178,-7.46847 9.64903,-6.87736 12.55251,2.81357 3.04769,10.17231 9.2338,8.28195 25.67451,-7.84565 18.09471,-17.7501 28.53888,-46.72081 19.20109,-53.26125 -6.64211,-4.65231 -31.5834,4.1798 -31.5834,11.1842 0,2.23603 -7.13235,6.9906 -9.26117,6.17369 -4.87808,-1.87189 -0.45541,-9.86051 7.94209,-14.34569 8.68207,-4.63719 13.26462,-11.92403 20.21751,-32.1484 5.8083,-16.89506 4.32767,-30.75434 -5.14488,-48.15855 -5.48968,-10.08636 -32.18865,-21.45186 -32.18865,-13.7024 0,2.9098 -2.20835,3.34189 -5.62807,1.10119 -2.26092,-1.48141 -5.62448,-2.10015 -11.13481,-2.04831 -6.64394,0.0626 -8.10084,-0.30973 -9.19198,-2.34855 -1.96479,-3.67124 -18.67937,-10.89516 -23.14332,-10.00237 -2.54653,0.50932 -5.54131,-0.23065 -10.07289,-2.48882 -3.72377,-1.85563 -8.55417,-3.22132 -11.43088,-3.2318 -2.74009,-0.01 -8.46409,-0.8391 -12.72,-1.84248 -8.08431,-1.90595 -39.02872,3.50293 -59.24286,10.35527 -3.71774,1.26026 -8.48056,2.65697 -10.58403,3.10378 -2.38246,0.50607 -4.34199,1.94814 -5.19694,3.82455 -0.84483,1.85419 -2.401,3.01215 -4.04803,3.01215 -5.15251,0 -18.170591,11.76064 -18.23715,16.47559 -0.01819,1.28809 -1.320406,4.05336 -2.893826,6.14503 -3.769478,5.01104 -7.059014,11.79157 -5.72062,11.79157 0.584253,0 1.404083,-0.55305 1.821846,-1.229 1.187034,-1.92067 4.296666,-1.44271 5.154289,0.79223 0.443552,1.15588 -0.01628,2.60286 -1.074049,3.37977 -4.22813,3.10545 -7.058002,39.44591 -4.015632,51.56768 0.960515,3.82699 0.980804,3.83225 4.89466,1.26779 3.754952,-2.46034 4.179292,0.16131 1.185767,7.32583 -3.423952,8.19466 0.04852,18.99984 8.606305,26.77997 2.50142,2.27412 5.27424,5.53695 6.16181,7.25074 4.58785,8.85852 9.73823,7.46494 7.28074,-1.97001 -2.39855,-9.20868 -3.36519,-34.60038 -1.34493,-35.32902 4.3993,-1.58668 5.61623,1.38548 4.87393,11.90386 -1.30857,18.54261 7.70776,39.64126 17.91736,41.92754 4.31189,0.96556 11.64929,9.82366 10.80656,13.04622 -0.44128,1.68752 0.66664,3.75681 3.56125,6.65143 7.56147,7.56147 4.8574,12.93119 -3.43931,6.82972 -7.55082,-5.55293 -15.90178,-3.06474 -19.83033,5.90851 -1.65425,3.77854 -14.31003,20.9458 -17.22441,23.36452 -2.99563,2.48615 -2.43711,3.8222 1.59781,3.8222 2.35041,0 3.8442,-0.74818 4.29412,-2.15076 0.37946,-1.18292 2.07581,-3.75759 3.76966,-5.72148 1.69387,-1.96391 5.43031,-6.88828 8.30321,-10.94307 9.04731,-12.76928 13.32349,-15.60361 16.94958,-11.23444 1.34301,1.61824 0.71094,2.7873 -4.20593,7.77923 -5.50193,5.58594 -7.97805,8.8389 -18.95351,24.89989 -2.60498,3.812 -5.69631,10.17211 -6.86962,14.13358 -1.17332,3.96147 -3.04312,8.86184 -4.15511,10.88971 -2.61991,4.77772 -3.48761,28.29992 -1.69821,46.03587 1.40215,13.89757 0.8565,16.02897 -4.10348,16.02897 -4.1521,0 -5.04671,-13.39599 -4.42479,-66.25712 0.0351,-2.98171 0.9647,-7.78032 2.06582,-10.66355 2.84612,-7.45244 1.81992,-8.85065 -3.22452,-4.39342 -2.34079,2.06831 -8.41471,7.31077 -13.497588,11.64991 -30.960653,26.43049 -28.674824,62.27751 3.407764,53.44154 7.541084,-2.07692 8.744954,0.66164 1.976634,4.49643 -16.357235,9.26771 -43.463433,-1.35101 -40.424348,-15.83604 0.435896,-2.07758 1.201285,-7.09574 1.700864,-11.15146 1.417659,-11.50896 14.014471,-30.11067 20.390521,-30.11067 0.822846,0 4.294152,-2.90353 7.71401,-6.45229 3.419859,-3.54876 8.77168,-8.6645 11.892936,-11.36831 3.121257,-2.70382 7.709687,-8.51088 10.196517,-12.90458 6.53185,-11.54041 9.32071,-14.91849 18.91238,-22.90827 7.70054,-6.41447 8.49815,-7.49012 7.82538,-10.55322 -0.54163,-2.46605 -0.2114,-3.61708 1.19226,-4.15572 4.76042,-1.82674 -2.82818,-9.12282 -13.17631,-12.66838 l -7.12913,-2.44264 -5.16093,4.54925 c -2.83851,2.50208 -5.43745,4.88686 -5.77543,5.29951 -13.452829,16.42503 -47.894709,-6.51839 -59.902047,-39.9037 l -3.338767,-9.28314 2.708832,-3.43437 c 1.489859,-1.88891 4.216493,-6.10487 6.05919,-9.36881 3.254897,-5.76534 7.976431,-9.42815 12.153325,-9.42815 3.299606,0 14.05231,-4.15693 14.05231,-5.43254 0,-0.64271 -1.141783,-2.38394 -2.537294,-3.86941 -6.751793,-7.18695 -5.600554,-25.90062 2.742601,-44.58167 1.914943,-4.28772 3.481714,-8.26963 3.481714,-8.84869 0,-4.8216 18.273876,-25.84707 26.143786,-30.08039 3.53369,-1.90082 7.98823,-4.74727 9.89896,-6.32545 1.91074,-1.57818 4.1935,-2.86942 5.0728,-2.86942 0.8793,0 2.25134,-0.78635 3.04897,-1.74744 0.79763,-0.96109 3.59491,-2.10978 6.21616,-2.55264 4.85676,-0.82054 8.61166,-4.61079 8.61166,-8.69275 0,-1.45319 -0.60214,-1.76073 -2.15077,-1.09843 -7.28917,3.11735 -14.42087,-0.0746 -11.56571,-5.17648 1.1094,-1.98236 0.38414,-2.49506 -6.34177,-4.48313 -4.17692,-1.23462 -8.56225,-2.54384 -9.74517,-2.90937 -2.55372,-0.78912 -2.85174,2.57921 -0.86208,9.74348 2.02246,7.28235 -2.1854,12.54218 -6.18161,7.72704 -1.00051,-1.20553 -1.56732,-7.2972 -1.68674,-18.12785 -0.16934,-15.35698 -2.800331,-23.80267 -4.247926,-13.63617 -0.209569,1.47181 -1.177412,3.33696 -2.150762,4.14476 -0.973352,0.80781 -1.769729,2.39652 -1.769729,3.53047 0,1.13395 -0.665937,2.72767 -1.479859,3.54159 -0.813923,0.81392 -1.353029,3.36313 -1.198011,5.66491 l 0.281848,4.18505 -7.712289,1.03318 c -8.36652,1.12082 -9.9245,3.74751 -6.657689,11.22458 0.989601,2.265 0.725759,3.32255 -1.345743,5.39405 -5.003456,5.00345 -6.084118,2.59561 -6.811501,-15.17679 -0.368847,-9.01217 -1.044605,-17.76839 -1.501685,-19.45827 -0.45708,-1.68989 -1.14374,-4.45515 -1.525912,-6.14504 -0.38217,-1.68988 -4.322261,-6.55384 -8.755756,-10.80878 l -8.060899,-7.73626 0.431265,-7.01182 c 0.635003,-10.32434 0.555356,-11.25033 -1.660213,-19.30189 -2.183114,-7.93362 -2.544445,-23.59374 -0.598486,-25.93847 1.257266,-1.51491 1.460773,-9.5206 0.98083,-38.58439 -0.467748,-28.32524 -0.448352,-71.70502 0.04754,-106.3091 0.251852,-17.5748 0.0937,-35.54903 -0.351459,-39.94273 -1.188838,-11.73384 -3.430093,-65.056959 -3.729901,-88.740219 -0.219454,-17.33582 -0.584201,-20.88869 -2.344138,-22.8334 -4.245824,-4.69158 -2.149066,-7.72206 6.518804,-9.42172 6.500603,-1.27469 31.982588,-9.16976 36.870208,-11.42348 3.851627,-1.77602 33.683593,-2.8932199 64.522863,-2.4163699 9.07553,0.14033 46.60993,-2.18234 53.62559,-3.31841 7.71789,-1.24979 124.52068,-2.72909 179.27122,-2.27046 14.53301,0.12174 30.01849,-0.0735 34.41219,-0.43396 32.11313,-2.63422997 137.44698,-4.03583997 175.13349,-2.33039 13.93866,0.63078 25.28,0.46675 34.0725,-0.49278997 16.25229,-1.77364003 18.99375,-0.7604 23.87977,8.82594997 l 3.27424,6.4240299 0.20914,58.462593 c 0.11503,32.154426 0.55965,59.029756 0.98807,59.722936 0.42841,0.6932 1.06903,34.84765 1.42358,75.89878 0.35456,41.05113 0.93716,75.11169 1.29466,75.69014 0.3575,0.57845 0.14721,1.36247 -0.46731,1.74227 -1.51145,0.93412 -0.59054,83.7291 0.99044,89.04654 1.4694,4.94217 -0.0854,8.75332 -3.57095,8.75332 -1.28824,0 -2.66429,0.5211 -3.05792,1.15799 -0.39363,0.6369 -3.19153,1.46648 -6.21757,1.84352 -3.02604,0.37703 -7.93307,0.98729 -10.90451,1.35614 -6.20437,0.77015 -6.04299,0.33728 -7.99751,21.4515 -0.59443,6.42156 -1.41579,12.50514 -1.82523,13.51907 -0.40946,1.01393 -1.0265,10.13931 -1.37124,20.27862 -0.8803,25.89171 -1.06801,27.6427 -3.10114,28.92846 -5.31898,3.36374 -6.29644,-0.7786 -4.99595,-21.17213 2.10634,-33.03058 1.70314,-56.30211 -0.9755,-56.30211 -2.81314,0 -5.57507,3.08184 -4.42688,4.93964 0.46239,0.74816 -0.15678,2.46247 -1.3759,3.8096 -1.74149,1.92433 -1.92319,2.91916 -0.8477,4.64131 1.88198,3.01351 0.59862,4.53661 -5.16503,6.12989 -7.18362,1.98582 -7.64432,1.84016 -11.20695,-3.54335 -5.25668,-7.94339 -7.82314,1.61561 -4.06624,15.14508 2.19033,7.88788 -3.1799,13.61833 -7.88746,8.41653 -1.66796,-1.84306 -2.034,-5.05714 -2.034,-17.86007 0,-11.12899 -0.53182,-16.88538 -1.8519,-20.04479 l -1.85192,-4.43224 -6.44388,0.77402 c -3.54415,0.4257 -9.6413,0.77882 -13.54925,0.7847 -4.64154,0.007 -7.24568,0.54339 -7.51,1.54693 -0.22256,0.84495 -1.40428,4.54388 -2.62606,8.21985 -1.22177,3.67597 -2.31322,9.97643 -2.42544,14.001 -0.15073,5.40531 -0.77027,7.73145 -2.37087,8.90185 -4.04827,2.96017 -5.81943,0.83966 -5.08326,-6.08591 1.47067,-13.83525 1.39514,-16.12649 -0.53166,-16.12649 -1.36525,0 -1.84352,1.43311 -1.84352,5.52395 0,7.00907 -13.83008,12.80428 -16.14714,6.76612 -0.48337,-1.25963 -2.45385,-1.84351 -6.22153,-1.84351 -4.51733,0 -5.63267,-0.45341 -6.17002,-2.50826 -1.2008,-4.59183 -3.23692,-1.7341 -3.32981,4.67343 -0.10324,7.12313 -1.97865,10.1758 -4.80856,7.82718 -1.4965,-1.24199 -2.87001,-9.43969 -3.42448,-20.43891 -0.60202,-11.94206 -0.87514,-12.01902 -39.78391,-11.20951 -87.49805,1.82044 -107.94887,2.3027 -131.50374,3.10107 -14.19503,0.48112 -39.08242,0.70027 -55.30531,0.487 -16.22289,-0.21327 -33.64406,-0.3247 -38.71372,-0.24764 -5.06965,0.0771 -22.61629,0.2801 -38.99254,0.4512 l -29.77498,0.31109 -3.92384,3.83627 c -3.52888,3.45014 -3.77915,4.15381 -2.48644,6.991 1.89122,4.15079 1.81343,5.49708 -0.31768,5.49708 -1.2027,0 -2.01723,2.09821 -2.58802,6.66656 -1.05577,8.45014 -0.50012,9.30087 5.25773,8.04998 16.08952,-3.49543 47.22211,-3.80344 58.07769,-0.57459 1.01393,0.30157 4.05572,0.87144 6.75954,1.26635 15.70236,2.29348 25.28492,6.06815 35.74461,14.08017 l 7.47746,5.72765 14.03016,-0.29098 c 42.06753,-0.87247 64.97576,24.7447 55.34681,61.89167 -1.4316,5.52291 -2.60292,11.39652 -2.60292,13.05245 0,1.65592 -1.38545,4.65728 -3.07876,6.66968 -1.69332,2.01239 -3.43424,5.43628 -3.86871,7.60865 l -0.78995,3.94976 6.43133,-0.88453 c 7.06797,-0.9721 10.78018,1.30694 16.08294,9.87378 5.49742,8.88131 -5.98321,40.74829 -19.46308,54.02397 -11.20477,11.03506 -23.01285,20.27862 -25.9047,20.27862 -0.54209,0 -2.75568,0.88303 -4.91909,1.96228 -4.89581,2.44235 -9.00691,1.50655 -11.1745,-2.54363 -1.6911,-3.15985 -6.82696,-4.28929 -9.29675,-2.04446 -1.44075,1.30953 -15.34138,6.43432 -27.32233,10.073 -10.64323,3.23242 -10.41632,3.93596 1.58619,4.91769 23.08041,1.88784 37.33876,31.47832 40.52995,84.11216 1.19877,19.77192 1.71462,20.4523 11.65982,15.37864 15.29531,-7.80308 34.97159,-2.12331 40.23736,11.61496 7.24912,18.91271 1.22689,43.60211 -12.2619,50.27023 -3.54,1.75 -8.07896,4.51102 -10.08655,6.13561 l -3.6502,2.95382 2.16949,6.8824 c 3.20852,10.17859 -0.63755,15.36466 -10.25423,13.82689 -3.84549,-0.61492 -4.71195,-0.35136 -5.21897,1.58745 -1.21223,4.63559 -6.1296,6.56666 -11.77172,4.62279 -5.81146,-2.00221 -6.32427,-1.73037 -6.37699,3.38046 -0.0477,4.62703 -2.14903,7.58191 -6.59336,9.27165 -3.72662,1.41685 -3.38593,1.41585 -9.28459,0.0272 z m 43.93838,-53.3161 c 3.19963,-1.62137 8.11835,-3.5675 10.93048,-4.32473 9.29814,-2.50373 14.8916,-12.95816 13.45298,-25.14419 -2.02493,-17.1526 -26.85187,-26.09791 -41.89778,-15.09608 -2.30211,1.68335 -2.3056,1.95647 -0.15617,12.19892 1.38798,6.61398 1.89137,12.29589 1.36524,15.41004 -0.57601,3.40937 -0.25681,6.04806 1.03346,8.54317 1.02679,1.98559 1.58648,4.68248 1.24376,5.99306 -0.46109,1.76321 0.27515,2.737 2.83108,3.74458 4.87608,1.92222 4.76292,1.9356 11.19695,-1.32477 z M 100.28056,609.08582 c 1.80443,-1.41937 4.83272,-2.58067 6.72953,-2.58067 5.97776,0 5.15046,-2.056 -4.79413,-11.91429 -9.647439,-9.56372 -11.27617,-12.58469 -11.27617,-20.91506 0,-13.26702 -21.196966,-20.16018 -32.237395,-10.48346 -15.016185,13.16138 25.84802,58.26681 41.578165,45.89348 z M 80.181237,590.6819 c -13.49663,-11.232 -16.920474,-17.5403 -9.959301,-18.34957 2.73061,-0.31746 3.623996,0.43843 5.810193,4.91602 2.482748,5.08496 6.794348,10.2715 12.306585,14.80393 1.430591,1.17631 2.601076,2.69721 2.601076,3.37977 0,2.68549 -3.884749,0.97029 -10.758553,-4.75015 z m 6.443208,-67.35862 c 0.196743,-6.63639 0.755084,-13.58707 1.240758,-15.44594 1.086884,-4.15995 -1.093257,-4.56629 -3.297098,-0.6145 -2.703843,4.84836 -1.783574,31.6088 0.991567,28.83367 0.388882,-0.38889 0.86803,-6.13684 1.064773,-12.77323 z M 596.67614,397.67088 c -6.00226,-2.38406 -12.23292,-2.86385 -10.52905,-0.81082 1.06651,1.28508 3.53811,1.91654 7.29976,1.86501 4.10809,-0.0563 5.00477,-0.34899 3.22929,-1.05419 z M 118.59245,385.90685 c 8.94069,1.04411 44.44801,1.89461 71.2824,1.70741 10.81526,-0.0755 21.04674,-0.0912 22.73662,-0.035 1.68989,0.0562 20.56412,0.31775 41.94274,0.58122 21.37861,0.26348 39.52596,0.88431 40.32742,1.37965 0.80146,0.49533 2.52992,-0.0702 3.84103,-1.25673 2.31538,-2.0954 89.05127,-3.037 92.3432,-1.00248 0.56134,0.34694 8.06305,0.0488 16.67046,-0.66263 8.60741,-0.71138 25.6048,-1.21489 37.77197,-1.11893 29.58262,0.23333 53.11578,0.16589 54.99806,-0.15759 0.84494,-0.14521 4.57805,-0.17938 8.29579,-0.076 3.71775,0.10349 15.88492,-0.48695 27.03816,-1.31201 11.15323,-0.82504 26.91525,-1.39061 35.02669,-1.25678 10.0541,0.16586 17.48624,-0.39282 23.35113,-1.75532 4.8471,-1.12605 13.04762,-1.9187 18.78337,-1.81557 6.21459,0.11171 12.43846,-0.54211 15.97709,-1.67845 3.18823,-1.0238 7.17941,-2.02996 8.86929,-2.2359 2.72239,-0.33177 3.10082,-1.00469 3.32085,-5.90498 0.13658,-3.04179 0.82278,-10.50801 1.5249,-16.59159 0.70212,-6.08358 1.28934,-20.18644 1.30493,-31.33968 0.0156,-11.15323 0.3099,-49.86695 0.65405,-86.03048 1.14881,-120.72182 1.01156,-159.679558 -0.6084,-172.675469 -0.84258,-6.75954 -1.42893,-18.9718 -1.30301,-27.13836 0.37229,-24.14383 -1.7604,-28.3775399 -12.37258,-24.56145 -3.37156,1.21239 -7.43498,1.83256 -9.37508,1.43084 -8.27988,-1.71445 -92.01453,-0.20806 -100.69382,1.81149 -4.49401,1.04569 -7.37585,1.10427 -9.96262,0.20251 -2.15546,-0.75139 -4.33809,-0.82647 -5.35254,-0.1841 -2.36112,1.4951 -6.94942,1.38773 -11.53348,-0.26989 -2.97809,-1.07689 -8.84292,-0.90136 -25.8964,0.77509 -21.89981,2.15285 -67.37443,2.65597 -97.01581,1.07334 -21.27615,-1.13598 -56.77012,-0.36591 -59.44912,1.2898 -0.82459,0.50962 -16.82116,0.74004 -35.54792,0.51203 -60.47463,-0.73631 -93.90027,0.006 -123.76619,2.74733 -16.77979,1.54037 -34.23348,2.42406 -42.9486,2.17452 l -14.681441,-0.42035 -0.865888,3.07252 c -1.329568,4.71783 -1.254234,78.095179 0.102204,99.549559 0.662419,10.47729 1.500209,32.04636 1.861759,47.93127 0.725403,31.87115 1.15916,39.51483 2.964069,52.2328 2.734947,19.27132 3.997797,52.37319 3.211777,84.18697 -1.848335,74.81008 -1.03568,84.50891 6.57755,78.50192 2.78929,-2.20081 4.21038,-2.42621 10.59539,-1.68054 z m 11.22556,-21.70855 c -3.21176,-4.90556 -3.4012,-5.86435 -2.61297,-13.22476 0.46742,-4.36467 0.75094,-19.58465 0.63004,-33.82221 -0.12093,-14.23755 -0.18095,-27.26909 -0.13344,-28.95898 0.41259,-14.67669 -0.15715,-55.22993 -0.9495,-67.58381 -0.66665,-10.39413 -0.51066,-18.72798 0.48309,-25.80915 0.80722,-5.75197 1.35027,-11.84075 1.2068,-13.53064 -2.16743,-25.52852 -3.23775,-135.780469 -1.3366,-137.681609 0.65789,-0.65789 6.03556,-1.19617 11.95036,-1.19617 7.74121,0 11.02955,-0.46627 11.73702,-1.66424 1.80123,-3.05007 7.24279,-3.76765 51.37211,-6.77445 11.49121,-0.78296 27.85326,-1.95535 36.36012,-2.60531 14.23706,-1.08777 33.71425,-0.12378 39.2238,1.94132 2.23236,0.83673 75.52573,2.40651 88.4885,1.89523 5.06965,-0.19997 18.34293,-0.87422 29.49617,-1.49834 11.15323,-0.62412 30.23357,-1.4174 42.40074,-1.76285 12.16716,-0.34545 23.50475,-0.95287 25.19464,-1.34982 3.70072,-0.86931 10.03968,-1.40743 26.66864,-2.26394 l 12.53507,-0.64564 1.6275,3.36975 c 1.57649,3.26414 1.94082,3.36974 11.62584,3.36974 5.49908,0 10.34754,0.3449 10.77433,0.76643 2.83054,2.79565 5.80092,41.859711 4.98812,65.599949 -0.54329,15.86904 -1.79011,122.54574 -2.0121,172.15623 -0.10225,22.84075 0.29845,35.35366 1.18509,37.01035 1.34663,2.51619 -0.99435,31.48217 -2.68061,33.16842 -0.40631,0.40633 0.21427,2.3521 1.37907,4.32396 2.66695,4.51477 -1.57314,8.9239 -7.09862,7.38165 -3.53117,-0.98562 -5.1562,-0.97336 -30.11067,0.227 -10.13931,0.48771 -24.24216,1.93736 -31.33968,3.22144 -7.09751,1.28407 -18.98815,2.62312 -26.42365,2.97566 -7.43549,0.35256 -18.77308,0.90583 -25.19464,1.22953 -10.16843,0.51254 -40.44889,1.62906 -70.05339,2.58302 -5.06966,0.16336 -28.14078,0.63513 -51.26917,1.04838 -23.12839,0.41325 -45.80356,1.2687 -50.38928,1.90101 -4.62453,0.63767 -26.39962,0.86363 -48.8949,0.50739 -22.30648,-0.35325 -42.49291,-0.65828 -44.85875,-0.67784 -2.36584,-0.0195 -5.69759,0.34645 -7.4039,0.81337 -2.69066,0.73627 -3.5619,0.14705 -6.56518,-4.44007 z m 117.82016,-3.97154 c 64.84414,-0.60025 97.58726,-1.97402 123.7187,-5.19074 9.12563,-1.12333 19.29565,-1.62346 24.58014,-1.20877 13.25106,1.03986 13.22861,1.04008 37.89571,-0.38205 12.50515,-0.72096 26.33147,-2.1226 30.72517,-3.11475 4.3937,-0.99216 13.12217,-2.17857 19.3966,-2.63648 8.38946,-0.61225 12.18765,-1.44579 14.35437,-3.15011 2.15715,-1.69682 5.30491,-2.39421 11.75201,-2.60364 l 8.80568,-0.28607 1.91118,-4.91602 c 1.99293,-5.12628 3.6756,-103.05436 2.03498,-118.4318 -1.15791,-10.85303 -3.04884,-5.56533 -3.72611,10.41948 -0.93078,21.96763 -1.39447,28.47275 -2.74961,38.57343 -2.96298,22.08489 -4.30994,28.2655 -8.35963,38.35851 -2.36257,5.88822 -3.96939,11.23366 -3.5707,11.87875 0.39869,0.6451 -0.66144,2.82046 -2.35583,4.83414 -1.69441,2.01369 -3.08074,4.02274 -3.08074,4.46454 0,1.46639 -6.69993,6.94608 -10.66977,8.7265 -2.15063,0.96454 -4.25722,2.31515 -4.68131,3.00134 -0.42409,0.68619 -2.15541,1.24762 -3.84739,1.24762 -4.18134,0 -15.54079,3.78002 -17.05724,5.67604 -0.92454,1.15595 -12.79871,1.72546 -47.93127,2.29888 -63.16145,1.0309 -79.80884,1.58719 -88.48849,2.95693 -4.05573,0.64004 -17.73464,1.21769 -30.39759,1.28365 -12.66295,0.066 -24.39403,0.641 -26.06905,1.27784 -1.90505,0.72431 -6.84392,0.72469 -13.18889,10e-4 -6.67795,-0.76164 -11.73097,-0.72939 -14.79029,0.0944 -3.24803,0.8746 -5.39903,0.84878 -7.14529,-0.0858 -1.8103,-0.96884 -5.19475,-0.94283 -12.28874,0.0945 -5.3847,0.78735 -11.59069,1.06693 -13.7911,0.62129 -2.2004,-0.44564 -6.76601,-1.30534 -10.14577,-1.91047 -18.78825,-3.36389 -25.53224,-5.08376 -34.53146,-8.80634 -10.53944,-4.35975 -14.01432,-6.57689 -14.01432,-8.94189 0,-0.79856 -1.86175,-3.25642 -4.13723,-5.4619 -5.44628,-5.27874 -9.28331,-19.8784 -7.09185,-26.98404 3.62343,-11.74865 4.03259,-107.99042 0.56521,-132.9461 -1.08005,-7.77347 -1.87848,-17.05606 -1.77427,-20.62799 0.19294,-6.61372 -1.7495,-12.44371 -3.51052,-10.53638 -0.53509,0.57954 -0.5074,7.24228 0.0616,14.80609 2.60293,34.60529 3.05756,67.23172 1.06242,76.24392 -0.63252,2.85716 -0.80041,12.25906 -0.37307,20.89312 0.42733,8.63405 0.60297,17.35745 0.3903,19.38531 -0.21267,2.02786 -0.35564,7.55839 -0.31771,12.29007 0.038,4.73167 0.19348,22.66537 0.34567,39.85263 l 0.2767,31.24961 3.46985,3.46984 c 3.30758,3.30759 4.0059,3.47074 14.93271,3.48867 6.30456,0.01 12.10576,0.42514 12.89157,0.92176 0.78579,0.49661 8.52853,0.75717 17.20609,0.57903 8.67755,-0.17816 37.34645,-0.52358 63.70865,-0.7676 z m -24.58014,-16.86123 c 12.84313,-0.0925 37.17746,-0.15599 54.07631,-0.14104 71.19542,0.0629 83.36109,-0.42006 120.44268,-4.78217 6.08358,-0.71564 18.8038,-1.77345 28.26716,-2.35068 21.30633,-1.29958 20.92186,-1.28223 27.70845,-1.2505 3.07247,0.0144 7.39032,-0.49126 9.59522,-1.12361 2.20489,-0.63236 4.75688,-0.86271 5.67106,-0.5119 0.9142,0.35081 3.34377,-0.23177 5.39908,-1.29461 2.0553,-1.06284 4.76199,-1.93243 6.01487,-1.93243 7.27776,0 21.01991,-27.04211 26.23118,-51.61829 3.51173,-16.56116 7.83523,-89.68715 6.72142,-113.68314 -0.40788,-8.7874 -0.95021,-26.20857 -1.20514,-38.71372 -0.6292,-30.862202 -5.38177,-55.305311 -10.75325,-55.305311 -4.04428,0 -7.04212,-2.299371 -9.64196,-7.395468 -2.67691,-5.24719 -6.92315,-7.24395 -11.27511,-5.30204 -2.90242,1.2951 -20.99264,-0.20253 -25.41446,-2.10398 -1.88512,-0.81063 -3.40764,-0.82929 -4.34274,-0.0532 -0.89487,0.74267 -2.12217,0.76354 -3.24222,0.0551 -3.06563,-1.9389 -10.66846,-1.4079 -11.5174,0.8044 -0.54845,1.42926 -1.1896,1.62584 -2.29919,0.70496 -0.84625,-0.70233 -4.84935,-1.31543 -8.89576,-1.36244 -19.8763,-0.23094 -100.99295,1.22668 -102.60514,1.84376 -1.01393,0.38809 -15.39331,1.19312 -31.95418,1.78896 -16.56087,0.59584 -35.36467,1.68878 -41.78623,2.42876 -15.98186,1.84166 -19.68699,1.76404 -23.96564,-0.50203 -4.2529,-2.25243 -9.17573,-2.47783 -15.53547,-0.71134 -2.63295,0.73134 -5.66776,0.80912 -7.37404,0.189 -10.95618,-3.98186 -37.26377,6.293267 -41.45503,16.191349 -0.2509,0.592531 -1.49527,1.967022 -2.76527,3.054425 -1.26999,1.087403 -2.30908,2.979751 -2.30908,4.205216 0,1.225465 -0.89955,3.600995 -1.99898,5.278954 -1.4743,2.250072 -1.80233,4.57744 -1.24974,8.86706 0.45306,3.517095 -0.002,9.216975 -1.15328,14.419275 -2.687,12.15051 -3.71799,48.26937 -1.80605,63.27217 2.28425,17.92424 2.33745,18.87923 3.0477,54.71249 0.36174,18.25076 0.92163,34.84235 1.24418,36.87021 0.32257,2.02786 -0.004,7.28186 -0.72602,11.67556 -4.24787,25.85476 -0.57975,45.97987 9.6653,53.02864 11.26427,7.75002 21.82012,11.6971 30.19015,11.28879 4.20502,-0.20514 18.1535,-0.44868 30.99662,-0.5412 z M 524.6807,146.24205 c 0.0408,-11.49121 -0.50645,-28.91238 -1.21616,-38.71371 -0.7097,-9.801334 -1.70533,-27.919423 -2.21249,-40.262424 -1.08117,-26.312595 0.13544,-24.345445 -16.13693,-26.091635 -10.74202,-1.15273 -13.24344,-1.8232 -14.92674,-4.00092 -2.57586,-3.33245 -19.28576,-4.41445 -35.28652,-2.28487 -14.32663,1.90676 -24.71988,2.52922 -53.02332,3.1756 -13.1811,0.30102 -30.73502,1.11533 -39.00872,1.80956 -8.27369,0.69424 -20.71739,1.1957 -27.65265,1.11437 -19.73436,-0.23144 -29.31381,-0.25158 -54.39581,-0.11437 -12.84312,0.0703 -33.85914,0.15885 -46.70226,0.19688 -12.84313,0.038 -26.22185,0.53943 -29.73052,1.11422 -3.50865,0.5748 -15.79371,0.9946 -27.30012,0.93291 -20.02735,-0.10739 -20.93581,-0.007 -21.27328,2.34583 -0.30114,2.09977 -1.69127,2.6037 -9.53799,3.45765 -12.04435,1.31076 -11.87173,1.08418 -12.0963,15.87647 -0.10533,6.94103 -0.4416,23.129169 -0.74717,35.973639 -0.77611,32.62435 0.7262,41.60072 4.21276,25.17132 1.03952,-4.89842 1.31474,-11.26834 0.80012,-18.51834 l -0.78445,-11.05148 5.03695,-10.092043 c 2.77033,-5.550624 7.12965,-12.891616 9.6874,-16.313315 2.55775,-3.421701 4.85369,-7.276581 5.10208,-8.566411 0.27509,-1.42841 2.12933,-2.8503 4.74338,-3.63739 2.36047,-0.71073 6.12248,-2.4559 8.36003,-3.87817 5.24241,-3.33225 23.87601,-5.06289 30.13666,-2.799 3.27554,1.18445 5.03297,1.18212 8.3247,-0.0111 5.54779,-2.01086 95.35413,-3.09607 117.24127,-1.41673 10.18648,0.78158 20.4314,0.8104 28.26715,0.0795 6.75954,-0.63049 26.39293,-1.36867 43.62975,-1.6404 25.07464,-0.3953 32.42579,-0.89616 36.77272,-2.50545 4.31983,-1.59925 8.60084,-1.9003 20.89312,-1.46926 36.71173,1.28735 45.81794,2.92158 47.50714,8.52576 0.43877,1.45567 2.08892,4.0293 3.66701,5.71919 8.49872,9.100799 11.88441,29.978043 13.45341,82.957969 1.12479,37.98028 4.06606,41.42647 4.19578,4.91603 z m 39.42676,208.06147 c -14.90076,-7.54745 -18.94366,-25.36173 -9.13563,-40.25446 6.50642,-9.87952 6.97418,-10.11495 18.35318,-9.23726 26.74428,2.06281 30.37412,3.0574 35.98032,9.85868 18.93355,22.96969 -16.59276,54.12195 -45.19787,39.63304 z m 27.45846,-5.55269 c 8.43886,-3.02483 14.77722,-10.2194 13.63977,-15.48228 -2.57283,-11.90424 -14.01734,-24.31925 -14.0789,-15.27278 -0.0372,5.46962 -2.2168,6.8381 -3.77511,2.37025 -4.63297,-13.28323 -27.02287,-0.81084 -26.91313,14.99208 0.0827,11.90174 16.08208,18.78559 31.12737,13.39273 z m -23.75386,-64.53454 c -14.49816,-7.32011 -18.9095,-33.5349 -7.48498,-44.48026 3.8238,-3.66345 19.98554,-8.01175 29.94574,-8.05689 17.17016,-0.0778 31.77715,26.93876 23.2059,42.92079 -5.59819,10.43842 -32.72485,16.15069 -45.66666,9.61636 z m 29.02897,-6.98496 c 19.78217,-12.06256 12.91415,-36.10812 -10.36437,-36.28662 l -9.01397,-0.0691 -4.95103,5.30104 -4.95103,5.30103 0.87448,8.83255 c 0.80313,8.11188 2.66736,13.80644 5.80849,17.74284 2.04479,2.56247 17.9989,1.98233 22.59743,-0.82172 z m -21.94754,-89.87429 c -24.7967,-3.79222 -29.98935,-23.94817 -11.77441,-45.7039 13.4773,-16.09716 33.99549,-15.82853 51.07041,0.66865 18.31461,17.69493 -9.51549,49.58966 -39.296,45.03525 z m 18.99251,-6.8809 c 17.42481,-6.71216 20.55699,-24.42842 6.06045,-34.27908 -12.41185,-8.43406 -33.14743,2.61825 -34.26093,18.26151 -1.04441,14.67258 12.18509,22.1868 28.20048,16.01757 z m -29.16404,-72.83331 c -16.52729,-8.185053 -22.93149,-36.913751 -10.76159,-48.275599 23.435,-21.87894 59.30736,-8.5093 59.30736,22.103875 0,20.637844 -28.59348,36.052994 -48.54577,26.171724 z m 30.96217,-7.7537 c 22.99378,-13.382304 3.15246,-55.743989 -20.34247,-43.431649 -20.17623,10.5732 -17.37763,48.673969 3.27187,44.544069 1.88665,-0.37733 4.23382,-0.17774 5.21592,0.44353 2.92866,1.85267 6.89165,1.33252 11.85468,-1.55595 z M 89.644655,383.61432 c 0.653847,-1.71975 0.620566,-13.34081 -0.08184,-28.57441 -0.651127,-14.12171 -1.426033,-39.50215 -1.722009,-56.401 C 87.54483,281.74007 86.476063,257.68226 85.465771,245.17711 82.306216,206.06896 80.881152,171.25603 80.43744,122.3399 80.201693,96.350582 79.618597,64.350271 79.141668,51.228081 l -0.867141,-23.85851 -4.745576,0.63651 c -2.610066,0.35008 -7.246091,1.65595 -10.302276,2.90193 l -5.556701,2.26541 0.290377,30.11067 c 0.212487,22.033935 0.713683,30.753908 1.868496,32.508723 1.826792,2.775929 0.898453,14.530466 -1.460686,18.495056 -1.017161,1.70937 -1.329132,8.26004 -1.024286,21.50763 0.241097,10.47728 0.41846,20.70876 0.39414,22.73662 -0.02432,2.02787 -0.275214,21.38472 -0.557539,43.01525 -1.006902,77.14428 -0.797558,130.50328 0.573793,146.25182 0.765188,8.7874 1.770062,20.12499 2.233051,25.19464 l 0.8418,9.21755 6.145035,0.8388 c 7.190772,0.98155 20.742559,3.09618 21.230788,3.31286 0.185719,0.0825 0.833589,-1.1545 1.439712,-2.74872 z M 55.358503,843.16117 c -3.172428,-3.82254 0.342975,-4.03306 69.792177,-4.17935 61.80392,-0.13019 79.06926,-0.71709 99.44361,-3.38034 7.42049,-0.96999 8.99655,1.46224 3.34644,5.16434 -2.78853,1.82712 -10.41656,2.06214 -74.66217,2.30037 -39.35598,0.14595 -77.095455,0.70021 -83.865505,1.23169 -10.8558,0.85223 -12.515265,0.71802 -14.054552,-1.13671 z M 390.81748,832.88208 c -10.27519,-5.63473 -4.80597,-10.41208 9.83205,-8.58828 5.06966,0.63165 13.36545,0.86903 18.43511,0.52752 5.06965,-0.34151 17.88403,-1.15031 28.4764,-1.79733 33.44383,-2.04289 26.90419,-6.60688 -8.81229,-6.15006 -37.1831,0.47558 -84.14078,-0.33412 -85.30245,-1.47089 -3.02849,-2.96356 2.05822,-4.88274 12.94152,-4.88274 12.05978,0 12.35511,-0.20125 7.59177,-5.1731 -5.94971,-6.21016 -3.40017,-6.93373 25.44094,-7.22027 26.5247,-0.26351 43.61324,-11.93767 17.87842,-12.21376 -11.2338,-0.12057 -24.54352,-13.72995 -22.27339,-22.77491 1.26363,-5.03468 4.08435,-3.39226 7.59003,4.41944 3.06111,6.82107 8.12253,12.23742 11.43549,12.23742 2.11843,0 1.62592,-2.9009 -2.45213,-14.44314 -4.90695,-13.88838 -7.46616,-24.53981 -7.01069,-29.17861 0.48754,-4.96548 3.90783,-4.9716 4.45989,-0.007 0.22555,2.02786 1.12552,4.5166 1.99996,5.53053 0.87443,1.01393 1.85132,4.72869 2.17086,8.25502 0.78166,8.62609 2.87785,11.21224 6.19878,7.64766 3.43323,-3.68514 6.55797,-0.81883 4.63141,4.24838 -3.36263,8.8444 1.13254,13.91914 15.31409,17.2885 6.46512,1.53602 7.59214,3.27974 2.84426,4.40057 -6.31878,1.49166 -1.53173,12.23618 5.45163,12.23618 3.17837,0 5.19259,1.19913 9.52717,5.6718 6.04106,6.23351 9.17743,7.84727 15.25131,7.84727 2.21799,0 5.80932,0.8863 7.98074,1.96955 2.37571,1.18515 5.75475,1.75162 8.48463,1.42235 2.49511,-0.30094 8.13141,0.48372 12.52511,1.74369 10.13098,2.90524 42.83107,3.00523 55.30531,0.1691 4.3937,-0.99893 10.75537,-2.25837 14.13704,-2.79873 11.48534,-1.83526 29.25164,-14.70901 34.57754,-25.05546 9.02271,-17.52811 1.50413,-48.86768 -9.50192,-39.60671 -7.76851,6.53678 -14.53315,7.4769 -51.50273,7.15753 -27.15741,-0.2346 -35.54156,0.0916 -42.67367,1.65995 -22.12316,4.86509 -70.8806,-10.32153 -64.69157,-20.14966 2.04905,-3.2539 4.92661,-3.16391 9.46263,0.29588 12.55772,9.57823 40.53645,15.16298 58.70364,11.71766 3.63536,-0.68944 14.08059,-1.21708 23.21162,-1.17257 27.79263,0.13552 34.59076,-0.0667 46.09802,-1.37118 13.60573,-1.54238 22.11371,-5.30887 22.13895,-9.80094 0.0143,-2.53497 0.68291,-3.04959 4.36626,-3.36037 2.41103,-0.20344 5.91203,-1.70968 7.85563,-3.37977 3.98124,-3.42098 5.58189,-3.78812 5.58189,-1.28032 0,1.18843 2.71817,2.19095 8.65593,3.19248 22.53593,3.80117 36.51905,-14.93217 22.991,-30.80133 -10.166,-11.92529 -16.6434,-19.88497 -19.65154,-24.14856 -1.52782,-2.16546 -4.85179,-5.10438 -7.38662,-6.53093 -5.57183,-3.13573 -5.75943,-5.16191 -0.92546,-9.99587 4.78713,-4.78713 7.36777,-4.12553 10.61893,2.72233 1.45711,3.06909 4.78051,7.15719 7.38534,9.08465 9.06402,6.70696 12.97612,11.16772 17.29283,19.71807 2.38883,4.73167 5.38002,10.07106 6.6471,11.86528 12.45725,17.64005 -21.62506,43.72042 -43.37512,33.1914 -11.3064,-5.47333 -12.64192,0.23392 -2.58721,11.05624 4.78585,5.15123 7.1355,22.55255 4.63964,34.36071 -2.13721,10.11127 -13.24834,25.10225 -23.36436,31.52283 -2.05277,1.30289 -0.86044,1.45652 7.38397,0.95145 30.86528,-1.89089 44.22078,-1.44154 44.63867,1.50192 0.30988,2.18263 1.10776,2.72378 3.72219,2.52457 6.30263,-0.48024 8.5656,3.96865 4.08242,8.02587 -2.96876,2.68669 -11.64762,2.69906 -13.87123,0.0198 -1.94998,-2.34958 -40.11448,-1.70348 -82.8163,1.40204 -12.84312,0.93402 -32.19998,2.05738 -43.01524,2.49636 -29.4852,1.19678 -33.98882,1.43791 -54.69081,2.92818 -39.70273,2.85809 -65.23937,2.98324 -70.05339,0.34331 z m 83.57247,-3.89114 c 18.1571,-1.27563 24.58014,-2.25468 24.58014,-3.74672 0,-2.34639 -29.07102,-2.82946 -36.87021,-0.61268 -1.01393,0.28819 -9.5774,1.12437 -19.02994,1.85819 -19.31932,1.49977 -23.07818,2.17957 -21.96964,3.97322 0.80657,1.30504 22.15539,0.71534 53.28965,-1.47201 z m 131.50374,-7.95758 c 16.95571,-1.05489 21.14132,-1.74313 20.16896,-3.31643 -1.80605,-2.92227 -54.58115,0.8817 -54.58115,3.93414 0,1.05901 10.4873,0.87076 34.41219,-0.61771 z m -160.55694,-8.8366 c 7.03214,-0.96386 7.09829,-1.64698 0.47879,-4.9435 -10.39782,-5.1781 -13.63808,-5.63547 -32.68583,-4.61364 -9.90589,0.5314 -18.76787,0.82342 -19.69329,0.64893 -7.84481,-1.47915 -18.48075,6.11999 -10.91474,7.79832 7.6584,1.69883 52.71056,2.49486 62.81507,1.10989 z m -262.29527,20.49155 c -2.20693,-1.30732 -3.32179,-1.32939 -75.5101,-1.49452 -62.207736,-0.14229 -58.09901,-0.19756 -67.288126,0.90505 -8.730068,1.04753 -9.944518,-1.72512 -2.125892,-4.85351 6.03577,-2.41503 39.720594,-2.73554 65.011988,-0.61858 14.88284,1.24573 18.89655,1.05091 17.01952,-0.82613 -0.38322,-0.3832 -4.48503,-1.47682 -9.11514,-2.43025 -13.188518,-2.71577 -13.948906,-2.96835 -13.948906,-4.63373 0,-0.86289 -2.488739,-6.40549 -5.530531,-12.3169 -5.760096,-11.19414 -7.276124,-20.8224 -4.424999,-28.10305 0.608044,-1.5527 1.71802,-5.11239 2.466616,-7.91042 1.868844,-6.98518 7.24411,-9.66238 15.62781,-7.78355 4.30197,0.96409 6.74982,0.9262 9.33473,-0.1445 2.90693,-1.2041 5.01409,-1.00704 12.37189,1.15701 20.44476,6.01314 39.08094,6.63585 73.7464,2.46418 9.11588,-1.09701 12.37578,-1.10293 13.45428,-0.0245 3.59562,3.59562 -9.05041,12.24392 -13.04998,8.92455 -0.98739,-0.81946 -4.15008,-0.83022 -9.4189,-0.0321 -27.42736,4.15506 -52.64893,4.30987 -67.87022,0.41657 -3.89983,-0.9975 -10.74029,-1.93398 -15.20103,-2.08107 l -8.11043,-0.26743 -1.643581,6.14504 c -4.227333,15.80523 0.256482,27.96919 12.416881,33.68526 20.76442,9.76043 85.20858,13.07518 106.71073,5.48878 8.01636,-2.82834 9.7385,-2.37341 8.72541,2.30494 -1.71163,7.90399 -4.61946,10.37895 -13.13401,11.17882 -17.05427,1.60213 -28.6971,1.9264 -30.51441,0.84989 z m 211.34145,-39.28223 c -15.74044,-0.77998 -19.96974,-2.36976 -16.50103,-6.20265 2.6183,-2.89319 2.52327,-3.13589 -3.51061,-8.96524 -6.78321,-6.5533 -8.55721,-13.39123 -6.77193,-26.10272 2.60423,-18.54259 2.87596,-19.61266 5.08831,-20.03798 2.32431,-0.44686 6.36886,2.83195 5.40906,4.38496 -0.93015,1.50503 -3.54322,20.20951 -3.36287,24.07167 0.30398,6.50976 8.75509,17.11916 17.26401,21.673 5.51585,2.952 19.17516,7.4005 22.77992,7.41887 4.47369,0.0229 7.38461,1.67115 6.23528,3.53081 -0.87103,1.40935 -2.52771,1.42362 -26.63014,0.22928 z m -15.85552,-62.34633 c -17.50146,-5.7915 -22.73903,-14.1609 -19.19445,-30.67193 1.55628,-7.24928 11.47382,-20.14226 15.49384,-20.14226 0.65064,0 2.95836,-1.951 5.12826,-4.33557 4.52704,-4.97487 40.50039,-23.38276 43.46913,-22.24355 4.19933,1.61144 -2.453,7.67992 -11.71359,10.68556 -6.0424,1.96112 -20.63369,9.5569 -24.34022,12.67076 -1.7076,1.43456 -5.0468,4.26746 -7.42044,6.29532 -22.369,19.11042 -16.76554,39.31187 10.84195,39.0871 18.95599,-0.15434 40.25687,-7.78037 55.07147,-19.71642 7.11294,-5.73085 11.32049,-6.76377 11.32049,-2.77909 0,1.35191 -0.44734,2.45802 -0.9941,2.45802 -0.54676,0 -2.04678,0.76972 -3.33338,1.71052 -5.90943,4.32107 4.46861,7.56029 11.90377,3.71542 5.61684,-2.90459 7.44634,-0.37028 3.04732,4.22131 -5.06427,5.28595 -11.33706,6.9676 -17.03642,4.56724 -6.25079,-2.6326 -9.28232,-2.40731 -15.50938,1.1526 -2.93183,1.67607 -8.18583,3.85096 -11.67556,4.83307 -3.48974,0.98211 -10.94775,3.47549 -16.57336,5.54083 -9.81009,3.60161 -22.53552,4.91995 -28.48533,2.95107 z m 224.54565,-7.34223 c -0.45763,-0.45763 0.81939,-3.71844 2.8378,-7.24627 5.58317,-9.75835 3.09293,-26.63151 -5.61544,-38.04877 -3.99181,-5.23353 -3.90713,-8.95575 0.23962,-10.53233 5.42081,-2.061 12.26549,8.70653 14.53906,22.87177 0.42782,2.66542 1.37245,7.18982 2.09919,10.05421 1.84103,7.25625 -10.19563,26.80599 -14.10023,22.90139 z M 430.401,664.42625 c -5.01554,-3.09976 -3.02753,-11.26897 4.52462,-18.59288 l 3.16826,-3.07252 -9.81187,-0.71467 c -16.4963,-1.20152 -30.30342,-10.68233 -38.33548,-26.32348 -3.1782,-6.18902 -6.06044,-28.07875 -4.11223,-31.23103 1.8564,-3.00372 6.61129,-0.99518 7.70689,3.25551 1.35997,5.27634 5.15038,6.13371 15.15022,3.42688 16.50627,-4.46804 22.08269,-15.97606 21.15686,-43.66125 -0.83312,-24.91291 4.2368,-46.43462 14.32359,-60.80329 11.64724,-16.59155 20.0264,-24.29521 29.47869,-27.10225 3.36557,-0.99945 8.50075,-2.97009 11.41153,-4.37917 11.42329,-5.52992 27.04457,-7.2758 37.68449,-4.21172 3.4838,1.00325 10.03499,2.01482 14.55817,2.24792 4.52319,0.2331 9.09204,1.14423 10.15298,2.02473 2.44829,2.03191 8.77176,5.72275 13.71713,8.00633 12.44426,5.7463 29.45385,21.18922 33.22956,30.16897 0.83486,1.98558 3.22223,9.55536 5.30525,16.82177 l 3.78732,13.21162 -0.12875,30.44896 c -0.14956,35.3679 1.24001,42.65063 9.71121,50.89662 9.83847,9.57688 18.46172,11.41705 24.51031,5.2304 3.99804,-4.08928 8.87877,-4.14777 8.84272,-0.10594 -0.0914,10.25157 -6.16557,21.71874 -17.17976,32.43305 -23.74479,23.0983 -37.89526,23.78492 -71.64662,3.47653 -4.25436,-2.55988 -6.54324,-2.85483 -26.42364,-3.40506 -21.87639,-0.60547 -29.22908,0.0511 -47.8129,4.26984 -7.2389,1.64329 -9.44664,1.73103 -12.1832,0.48418 -14.49972,-6.60651 -29.70134,-0.95038 -32.85015,12.22272 -0.80198,3.35505 -5.64492,6.39273 -7.9352,4.97726 z M 165.21045,622.91649 c -12.30901,-16.59024 -14.33892,-19.59412 -16.66183,-24.65623 -1.30543,-2.84481 -2.94733,-5.52703 -3.64869,-5.96049 -6.86693,-4.244 -9.52417,-15.29079 -3.6781,-15.29079 2.92761,0 3.4319,0.68692 11.61518,15.82156 3.79137,7.01196 9.82412,16.13734 13.40614,20.27861 9.34668,10.80599 11.23049,14.04524 9.42986,16.21487 -2.52317,3.04023 -4.22712,1.99668 -10.46256,-6.40753 z m 48.16212,3.62844 c -5.06627,-25.19888 -5.50918,-35.34094 -1.64786,-37.7345 3.78371,-2.34543 5.02506,4.82449 6.25002,36.09908 0.21752,5.55341 -3.54558,6.89065 -4.60216,1.63542 z m 13.31626,0.76235 c -0.44869,-0.72599 0.29254,-2.52341 1.64717,-3.99427 3.82104,-4.14885 6.26773,-13.15228 7.14561,-26.29469 0.91653,-13.72082 2.91487,-20.00934 6.35849,-20.00934 3.60931,0 3.62326,0.30857 0.67823,15.01118 -1.52809,7.62876 -2.79867,15.74088 -2.82352,18.02695 -0.0857,7.88698 -10.36664,21.53072 -13.00598,17.26017 z m -30.5518,-3.40649 c -0.39959,-0.64654 -1.53213,-5.38602 -2.51675,-10.53216 -0.98462,-5.14614 -3.20929,-12.18195 -4.94373,-15.63513 -3.35916,-6.68793 -2.76794,-9.66346 1.92004,-9.66346 3.55341,0 8.38576,16.34132 10.16226,34.36511 0.20266,2.05616 -3.52607,3.2386 -4.62182,1.46564 z m -16.30947,-4.18382 c -2.70017,-3.66866 -5.47989,-10.69972 -7.10427,-17.96963 -0.96643,-4.32524 -2.93287,-9.08987 -4.39306,-10.64416 -3.00331,-3.19687 -2.84339,-6.43644 0.41623,-8.43194 4.1324,-2.5298 8.50913,7.49659 10.67222,24.44841 0.60376,4.73168 1.47048,9.84742 1.92604,11.36831 0.91396,3.05136 0.2312,3.60445 -1.51716,1.22901 z m 70.08582,-7.7145 c -0.43443,-1.13211 -0.19082,-2.4286 0.54133,-2.88111 4.19382,-2.59192 9.77289,-34.32998 6.40101,-36.4139 -1.77917,-1.0996 -1.50804,-4.41417 0.54683,-6.68476 1.1938,-1.31914 2.14915,-7.02082 2.91483,-17.39628 1.174,-15.90819 2.56974,-20.77772 5.9555,-20.77772 2.1185,0 2.13544,-0.48957 -0.78663,22.73663 -0.76536,6.08359 -1.58224,14.37938 -1.8153,18.43511 -0.99952,17.3943 -4.32501,38.08441 -6.61468,41.15435 -2.81075,3.76859 -6.07735,4.60444 -7.14289,1.82768 z m 49.19031,-8.52479 c -0.41792,-1.08906 0.051,-2.92735 1.042,-4.0851 0.99102,-1.15774 3.63266,-5.4233 5.87031,-9.47903 2.23765,-4.05572 4.7185,-8.20362 5.51298,-9.21755 0.79448,-1.01393 2.4101,-4.46147 3.59026,-7.66119 3.12781,-8.48027 6.04304,-11.76439 8.57649,-9.66181 3.78102,3.13796 0.47376,14.3647 -4.44846,15.10066 -2.93255,0.43847 -2.91791,0.4152 -11.18278,17.76997 -3.81039,8.00114 -4.09406,8.40592 -6.17821,8.81609 -1.11251,0.21895 -2.36467,-0.49298 -2.78259,-1.58204 z m -25.02104,-26.77595 c 0.0371,-4.93414 5.82636,-24.50175 7.8467,-26.52209 6.50279,-6.5028 4.58089,8.32365 -3.51763,27.13659 -1.33233,3.095 -4.35378,2.6661 -4.32907,-0.6145 z m 22.1545,-39.37719 c -0.12382,-5.11931 8.50959,-17.77939 11.05268,-16.20767 2.47027,1.52671 0.95509,5.11295 -4.9212,11.64786 -4.22646,4.70017 -6.09448,6.08937 -6.13148,4.55981 z"
     id="path3606"
     inkscape:connector-curvature="0" />
</svg>
